<?xml version="1.0" standalone="no"?>
<!DOCTYPE svg PUBLIC "-//W3C//DTD SVG 1.1//EN" "http://www.w3.org/Graphics/SVG/1.1/DTD/svg11.dtd" >
<svg xmlns="http://www.w3.org/2000/svg" xmlns:xlink="http://www.w3.org/1999/xlink" version="1.1">
<metadata>
Created by FontForge 20200314 at Wed Nov  5 02:08:20 2014
 By Unknown
Copyright (c) 2009 Linotype GmbH, www.linotype.com. All rights reserved. This font software may not be reproduced, modified, disclosed or transferred without the express written approval of Linotype GmbH. Palatino is a trademark of Linotype Corp. registered in the U.S. Patent and Trademark Office and may be registered in certain other jurisdictions in the name of Linotype Corp. or its licensee Linotype GmbH. This typeface is original artwork of Hermann Zapf and Akira Kobayashi. The design may be protected in certain jurisdictions.
</metadata>
<defs>
<font id="PalatinonovaW04-Light" horiz-adv-x="330" >
  <font-face 
    font-family="PalatinonovaW04-Light"
    font-weight="300"
    font-stretch="normal"
    units-per-em="1000"
    panose-1="2 3 3 2 5 5 5 3 3 4"
    ascent="800"
    descent="-200"
    x-height="444"
    cap-height="683"
    bbox="-166 -290 1270 926"
    underline-thickness="50"
    underline-position="-125"
    unicode-range="U+000D-FB06"
  />
<missing-glyph horiz-adv-x="550" 
d="M188 511q34 0 55 -13t21 -50q0 -35 -22 -53.5t-57 -18.5q-38 0 -59.5 22.5t-21.5 55.5q0 39 15 67t41 45t62 25t77 8q35 0 66 -6.5t54.5 -21t37 -38.5t13.5 -59q0 -54 -24.5 -92t-86.5 -63l-30 -12q-21 -9 -33 -16t-18 -14.5t-7 -15.5t-1 -18q32 -2 54 -19.5t22 -59.5
q0 -35 -23 -56t-58 -21q-38 0 -61 22t-23 55t19 54t52 24q-2 14 -3 27.5t-1 21.5q0 13 1.5 23.5t6.5 21t15 22t28 28.5q23 21 30 49t7 57q0 42 -17 63.5t-62 21.5q-27 0 -51 -17t-24 -49h6zM502 636h48v-585h-48v585zM0 636h48v-585h-48v585zM51 639v48h448v-48h-448zM51 1
v48h448v-48h-448z" />
    <glyph glyph-name="IJ" unicode="IJ" horiz-adv-x="615" 
d="M197 226v-90.5t1 -53t3.5 -28t6.5 -14.5q5 -5 17.5 -9t44.5 -6l4 -3v-22l-4 -3q-38 2 -68.5 2.5t-40.5 0.5q-9 0 -39.5 -0.5t-68.5 -2.5l-4 3v22l4 3q32 2 44 6t17 9q4 6 6.5 15t3.5 28.5t1 53v89.5v227v89.5t-1 54t-3.5 28.5t-6.5 14q-5 5 -17 9t-44 6l-4 3v23l4 3
q38 -2 68.5 -2.5t40.5 -0.5q9 0 39.5 0.5t68.5 2.5l4 -3v-23l-4 -3q-32 -2 -44.5 -6t-17.5 -9q-4 -5 -6.5 -14t-3.5 -28.5t-1 -54v-89.5v-227zM430 453v89.5t-1 54t-3.5 28.5t-6.5 14q-5 5 -19.5 9t-46.5 6l-4 3v23l4 3q38 -2 68.5 -2.5t40.5 -0.5q9 0 40 0.5t69 2.5l4 -3
v-23l-4 -3q-32 -2 -42.5 -6t-14.5 -9t-6.5 -14t-3.5 -28.5t-1 -54v-89.5v-349q0 -66 -16 -123t-51 -99t-72.5 -65t-80.5 -23q-8 0 -17.5 2t-10.5 5q3 13 6 31t5 33l8 6q12 -9 27.5 -13.5t25.5 -4.5q24 0 46.5 11t35.5 35t17 68.5t4 98.5v387z" />
    <glyph glyph-name="ij" unicode="ij" horiz-adv-x="547" 
d="M99 621q0 20 14 34t34 14t34.5 -14t14.5 -34t-14.5 -34.5t-34.5 -14.5t-34 14.5t-14 34.5zM180 179q0 -72 3 -105t8 -39q5 -5 17 -8.5t47 -6.5l3 -3v-17l-3 -2q-25 2 -54 2h-57h-52.5t-46.5 -2l-3 2v17l3 3q21 2 33 4t18.5 4t8.5 5t4 8t3.5 14t2 25t1 40t0.5 59v156
q0 22 -0.5 36t-5.5 19q-4 5 -9 7t-16 3l-41 2l-3 3v16l3 3q10 1 26 5t34.5 9t36.5 11.5t33 12.5l8 -6q-1 -9 -1.5 -26t-0.5 -35v-34.5v-25.5v-156zM383 335q0 22 -0.5 36t-5.5 19q-4 5 -9 7t-16 3l-41 2l-3 3v16l3 3q10 1 26 5t34.5 9t36.5 11.5t33 12.5l8 -6
q-1 -9 -1.5 -26t-0.5 -35v-34.5v-25.5v-301q0 -48 -5 -100.5t-24 -97t-57.5 -76t-105.5 -38.5l-10 -1l-9 18l4 6q51 5 79.5 37t43 77t17.5 94.5t3 89.5v292zM366 621q0 20 14 34t34 14t34.5 -14t14.5 -34t-14.5 -34.5t-34.5 -14.5t-34 14.5t-14 34.5z" />
    <glyph glyph-name="napostrophe" unicode="&#x22;n" horiz-adv-x="589" 
d="M174 179q0 -72 2 -105t7 -39q5 -5 18 -8.5t48 -6.5l3 -3v-17l-3 -2q-25 2 -54 2h-57h-52.5t-46.5 -2l-3 2v17l3 3q21 2 33 4t18.5 4t8.5 5t4 8t3.5 14t2 25t1 40t0.5 59v156q0 22 -0.5 36t-5.5 19q-4 5 -9 7t-16 3l-41 2l-3 3v16l3 3q10 1 26 5t34.5 9t36.5 11.5t33 12.5
l8 -6q-2 -18 -2 -33v-32v-16q8 6 20 15.5t24 19.5t22.5 19.5t15.5 15.5q14 6 30.5 10.5t46.5 4.5q46 0 75.5 -15t46.5 -39t23.5 -52.5t6.5 -55.5v-222q0 -32 9 -41.5t41 -12.5l22 -2l3 -3v-17l-3 -3q-8 0 -20.5 0.5t-26 1t-26.5 1t-22 0.5q-11 0 -25 -0.5t-28 -2.5
q-2 0 -4 4.5t-2 6.5q3 7 6 17t5 19q4 35 5.5 79t1.5 89v17q0 38 -3.5 71t-16.5 57t-37.5 38t-67.5 14q-24 0 -44.5 -8.5t-35.5 -20t-24.5 -22t-10.5 -13.5q-3 -6 -5 -29.5t-2 -75.5v-61zM-2 475l-7 8q21 58 35 109t19 88q20 2 30 4.5t20 7.5l10 -10q-11 -27 -22.5 -54.5
t-22.5 -53t-21.5 -47.5t-19.5 -38z" />
    <glyph glyph-name="uniFB01" unicode="fi" horiz-adv-x="569" 
d="M167 441h54q11 0 26.5 0.5t31 0.5t29.5 0.5t23 0.5l5 -6l-6 -12q12 2 28 6t33.5 9.5t34.5 11t30 10.5l8 -6q-1 -9 -1.5 -26t-0.5 -35v-34.5v-25.5v-156q0 -72 3 -105t8 -39q5 -5 17 -8.5t47 -6.5l3 -3v-17l-3 -2q-25 1 -54 1.5t-57 0.5q-29 0 -52.5 -1t-46.5 -1l-3 2v17
l3 3q21 2 33 4t18.5 4t8.5 5t4 8t3.5 14t2 25t1 40t0.5 59v156q0 22 -0.5 36t-5.5 19q-4 5 -9 7t-16 3l-44 2h-156v-223q0 -72 2 -105t7 -39q5 -5 21 -8.5t51 -6.5l3 -3v-17l-3 -2q-25 1 -57 1.5t-60 0.5q-29 0 -52.5 -1t-46.5 -1l-3 2v17l3 3q21 2 33 4t18.5 4t8.5 5t4 8
t3.5 14t2 25t1 40t0.5 59v223h-81l-3 3v16l3 3l81 17v8q0 60 14 101t48 79q22 25 39 42.5t32.5 29t31 17t33.5 5.5q34 0 43 -10l5 -8l-19 -55l-10 -4q-14 10 -25.5 15t-29.5 5q-13 0 -28.5 -5t-24.5 -12q-23 -17 -34 -44.5t-11 -82.5v-81zM381 621q0 20 14 34t34 14
t34.5 -14t14.5 -34t-14.5 -34.5t-34.5 -14.5t-34 14.5t-14 34.5z" />
    <glyph glyph-name="uniFB02" unicode="fl" horiz-adv-x="569" 
d="M462 179q0 -72 2 -105t7 -39q5 -5 18 -8.5t48 -6.5l3 -3v-17l-3 -2q-25 1 -54 1.5t-57 0.5q-29 0 -52.5 -1t-46.5 -1l-3 2v17l3 3q21 2 33 4t18.5 4t8.5 5t4 8t3.5 14t2 25t1 40t0.5 59v411q0 22 -0.5 36t-5.5 19q-4 5 -9 7.5t-16 2.5h-35l-2 -5l-10 -4q-14 10 -25.5 15
t-29.5 5q-13 0 -28.5 -5t-24.5 -12q-23 -17 -34 -44.5t-11 -82.5v-81h54q23 0 43 0.5t38 1.5l5 -6l-15 -30l-4 -5h-121v-223q0 -72 2 -105t7 -39q5 -5 21 -8.5t51 -6.5l3 -3v-17l-3 -2q-25 1 -57 1.5t-60 0.5q-29 0 -52.5 -1t-46.5 -1l-3 2v17l3 3q21 2 33 4t18.5 4t8.5 5
t4 8t3.5 14t2 25t1 40t0.5 59v223h-81l-3 3v16l3 3l81 17v8q0 60 14 101t48 79q22 25 39 42.5t32.5 29t31 17t33.5 5.5q34 0 43 -10l5 -8l-8 -25q24 5 57 16t58 22l11 -7q-2 -18 -3.5 -69t-1.5 -154v-309z" />
    <glyph glyph-name="uniFB03" unicode="ffi" horiz-adv-x="864" 
d="M462 441h54q11 0 26.5 0.5t31 0.5t29.5 0.5t23 0.5l5 -6l-6 -12q12 2 28 6t33.5 9.5t34.5 11t30 10.5l8 -6q-1 -9 -1.5 -26t-0.5 -35v-34.5v-25.5v-156q0 -72 3 -105t8 -39q5 -5 17 -8.5t47 -6.5l3 -3v-17l-3 -2q-25 2 -54 2h-57h-52.5t-46.5 -2l-3 2v17l3 3q21 2 33 4
t18.5 4t8.5 5t4 8t3.5 14t2 25t1 40t0.5 59v156q0 22 -0.5 36t-5.5 19q-4 5 -9 7t-16 3l-44 2h-156v-223q0 -72 2 -105t7 -39q5 -5 21 -8.5t51 -6.5l3 -3v-17l-3 -2q-25 2 -57 2h-60h-52.5t-46.5 -2l-3 2v17l3 3q21 2 33 4t18.5 4t8.5 5t4 8t3.5 14t2 25t1 40t0.5 59v223
h-231v-223q0 -72 2 -105t7 -39q5 -5 21 -8.5t51 -6.5l3 -3v-17l-3 -2q-26 2 -57.5 2h-59.5h-52.5t-46.5 -2l-3 2v17l3 3q21 2 33 4t18.5 4t8.5 5t4 8t3.5 14t2 25t1 40t0.5 59v223h-81l-3 3v16l3 3l81 17v8q0 60 14 101t48 79q22 25 39 42.5t32.5 29t31 17t33.5 5.5
q34 0 43 -10l5 -8l-19 -55l-10 -4q-14 10 -25.5 15t-29.5 5q-13 0 -28.5 -5t-24.5 -12q-23 -17 -34 -44.5t-11 -82.5v-81h231v8q0 60 14 101t48 79q22 25 39 42.5t32.5 29t31 17t33.5 5.5q34 0 43 -10l5 -8l-19 -55l-10 -4q-14 10 -25.5 15t-29.5 5q-13 0 -28.5 -5
t-24.5 -12q-23 -17 -34 -44.5t-11 -82.5v-81zM676 621q0 20 14 34t34 14t34.5 -14t14.5 -34t-14.5 -34.5t-34.5 -14.5t-34 14.5t-14 34.5z" />
    <glyph glyph-name="uniFB04" unicode="ffl" horiz-adv-x="864" 
d="M398 449q0 60 14 101t48 79q22 25 39 42.5t32.5 29t31 17t33.5 5.5q34 0 43 -10l5 -8l-8 -25q24 5 57 16t58 22l11 -7q-2 -18 -3.5 -69t-1.5 -154v-309q0 -72 2 -105t7 -39q5 -5 18 -8.5t48 -6.5l3 -3v-17l-3 -2q-25 1 -54 1.5t-57 0.5h-52.5t-46.5 -2l-3 2v17l3 3
q21 2 33 4t18.5 4t8.5 5t4 8t3.5 14t2 25t1 40t0.5 59v411q0 22 -0.5 36t-5.5 19q-4 5 -9 7.5t-16 2.5h-35l-2 -5l-10 -4q-14 10 -25.5 15t-29.5 5q-13 0 -28.5 -5t-24.5 -12q-23 -17 -34 -44.5t-11 -82.5v-81h54q23 0 43 0.5t38 1.5l5 -6l-15 -30l-4 -5h-121v-223
q0 -72 2 -105t7 -39q5 -5 21 -8.5t51 -6.5l3 -3v-17l-3 -2q-25 2 -57 2h-60h-52.5t-46.5 -2l-3 2v17l3 3q21 2 33 4t18.5 4t8.5 5t4 8t3.5 14t2 25t1 40t0.5 59v223h-231v-223q0 -72 2 -105t7 -39q5 -5 21 -8.5t51 -6.5l3 -3v-17l-3 -2q-26 2 -57.5 2h-59.5h-52.5t-46.5 -2
l-3 2v17l3 3q21 2 33 4t18.5 4t8.5 5t4 8t3.5 14t2 25t1 40t0.5 59v223h-81l-3 3v16l3 3l81 17v8q0 60 14 101t48 79q22 25 39 42.5t32.5 29t31 17t33.5 5.5q34 0 43 -10l5 -8l-19 -55l-10 -4q-14 10 -25.5 15t-29.5 5q-13 0 -28.5 -5t-24.5 -12q-23 -17 -34 -44.5
t-11 -82.5v-81h231v8z" />
    <glyph glyph-name="f_f.liga" unicode="ff" horiz-adv-x="599" 
d="M395 449q0 60 14 101t48 79q22 25 39 42.5t32.5 29t31 17t33.5 5.5q34 0 43 -10l5 -8l-19 -55l-10 -4q-14 10 -25.5 15t-29.5 5q-13 0 -28.5 -5t-24.5 -12q-23 -17 -34 -44.5t-11 -82.5v-81h54q23 0 43 0.5t38 1.5l5 -6l-15 -30l-4 -5h-121v-223q0 -72 2 -105t7 -39
q5 -5 21 -8.5t51 -6.5l3 -3v-17l-3 -2q-25 2 -57 2h-60h-52.5t-46.5 -2l-3 2v17l3 3q21 2 33 4t18.5 4t8.5 5t4 8t3.5 14t2 25t1 40t0.5 59v223h-228v-223q0 -72 2 -105t7 -39q5 -5 21 -8.5t51 -6.5l3 -3v-17l-3 -2q-29 2 -59 2h-58h-52.5t-46.5 -2l-3 2v17l3 3q21 2 33 4
t18.5 4t8.5 5t4 8t3.5 14t2 25t1 40t0.5 59v223h-81l-3 3v16l3 3l81 17v8q0 60 14 101t48 79q22 25 39 42.5t32.5 29t31 17t33.5 5.5q34 0 43 -10l5 -8l-19 -55l-10 -4q-14 10 -25.5 15t-29.5 5q-13 0 -28.5 -5t-24.5 -12q-23 -17 -34 -44.5t-11 -82.5v-81h228v8z" />
    <glyph glyph-name="f_f_t.liga" unicode="fft" horiz-adv-x="914" 
d="M462 402v-223q0 -72 2 -105t7 -39q5 -5 21 -8.5t51 -6.5l3 -3v-17l-3 -2q-25 1 -57 1.5t-60 0.5q-29 0 -52.5 -1t-46.5 -1l-3 2v17l3 3q21 2 33 4t18.5 4t8.5 5t4 8t3.5 14t2 25t1 40t0.5 59v223h-231v-223q0 -72 2 -105t7 -39q5 -5 21 -8.5t51 -6.5l3 -3v-17l-3 -2
q-26 2 -57.5 2h-59.5q-29 0 -52.5 -1t-46.5 -1l-3 2v17l3 3q21 2 33 4t18.5 4t8.5 5t4 8t3.5 14t2 25t1 40t0.5 59v223h-81l-3 3v16l3 3l81 17v8q0 60 14 101t48 79q22 25 39 42.5t32.5 29t31 17t33.5 5.5q34 0 43 -10l5 -8l-19 -55l-10 -4q-14 10 -25.5 15t-29.5 5
q-13 0 -28.5 -5t-24.5 -12q-23 -17 -34 -44.5t-11 -82.5v-81h231v8q0 60 14 101t48 79q22 25 39 42.5t32.5 29t31 17t33.5 5.5q34 0 43 -10l5 -8l-19 -55l-10 -4q-14 10 -25.5 15t-29.5 5q-13 0 -28.5 -5t-24.5 -12q-23 -17 -34 -44.5t-11 -82.5v-81h231q0 69 -0.5 108.5
t-2.5 50.5q25 9 40.5 18.5t28.5 18.5l10 -10q-1 -7 -3 -29t-3.5 -50t-2.5 -57t-1 -50h54q23 0 43 0.5t38 1.5l5 -6l-15 -30l-4 -5h-121l-2 -215q0 -42 3.5 -71t13.5 -46.5t27 -25t43 -7.5q15 0 25 1.5t25 5.5l2 -2l2 -13q-15 -6 -31 -15t-25 -15q-16 -5 -28 -6t-24 -1
q-36 0 -55.5 9.5t-29 26.5t-11 40t-1.5 49v285h-231z" />
    <glyph glyph-name="f_h.liga" unicode="fh" horiz-adv-x="877" 
d="M462 375q8 6 20 15.5t24 20t22.5 20.5t15.5 16q14 6 30.5 9.5t46.5 3.5q46 0 75.5 -15t46.5 -39t23.5 -52.5t6.5 -55.5v-222q0 -32 9 -41.5t41 -12.5l22 -2l3 -3v-17l-3 -3q-8 0 -20.5 0.5t-26 1t-26.5 1t-22 0.5q-11 0 -25 -0.5t-28 -2.5q-2 0 -4 4.5t-2 6.5q6 18 11 36
q4 35 5.5 79t1.5 89v17q0 38 -3.5 71t-16.5 57t-37.5 38t-67.5 14q-24 0 -44.5 -8.5t-35.5 -20t-24.5 -22t-10.5 -13.5q-3 -6 -5 -29.5t-2 -75.5v-61q0 -72 2 -105t7 -39q5 -5 18 -8.5t48 -6.5l3 -3v-17l-3 -2q-25 2 -54 2h-57h-52.5t-46.5 -2l-3 2v17l3 3q21 2 33 4t18.5 4
t8.5 5t4 8t3.5 14t2 25t1 40t0.5 59v411q0 22 -0.5 36t-5.5 19q-4 5 -9 7.5t-16 2.5h-35l-2 -5l-10 -4q-14 10 -25.5 15t-29.5 5q-13 0 -28.5 -5t-24.5 -12q-23 -17 -34 -44.5t-11 -82.5v-81h54q23 0 43 0.5t38 1.5l5 -6l-15 -30l-4 -5h-121v-223q0 -72 2 -105t7 -39
q5 -5 21 -8.5t51 -6.5l3 -3v-17l-3 -2q-25 2 -57 2h-60h-52.5t-46.5 -2l-3 2v17l3 3q21 2 33 4t18.5 4t8.5 5t4 8t3.5 14t2 25t1 40t0.5 59v223h-81l-3 3v16l3 3l81 17v8q0 60 14 101t48 79q22 25 39 42.5t32.5 29t31 17t33.5 5.5q34 0 43 -10l5 -8l-8 -25q24 5 57 16t58 22
l11 -7q-2 -18 -3.5 -69t-1.5 -154v-113z" />
    <glyph glyph-name="f_j.liga" unicode="fj" horiz-adv-x="562" 
d="M381 621q0 20 14 34t34 14t34.5 -14t14.5 -34t-14.5 -34.5t-34.5 -14.5t-34 14.5t-14 34.5zM398 335q0 22 -0.5 36t-5.5 19q-4 5 -9 7t-16 3l-44 2h-156v-223q0 -72 2 -105t7 -39q5 -5 21 -8.5t51 -6.5l3 -3v-17l-3 -2q-25 2 -57 2h-60h-52.5t-46.5 -2l-3 2v17l3 3
q21 2 33 4t18.5 4t8.5 5t4 8t3.5 14t2 25t1 40t0.5 59v223h-81l-3 3v16l3 3l81 17v8q0 60 14 101t48 79q22 25 39 42.5t32.5 29t31 17t33.5 5.5q34 0 43 -10l5 -8l-19 -55l-10 -4q-14 10 -25.5 15t-29.5 5q-13 0 -28.5 -5t-24.5 -12q-23 -17 -34 -44.5t-11 -82.5v-81h54
q11 0 26.5 0.5t31 0.5t29.5 0.5t23 0.5l5 -6l-6 -12q12 2 28 6t33.5 9.5t34.5 11t30 10.5l8 -6q-1 -9 -1.5 -26t-0.5 -35v-34.5v-25.5v-301q0 -48 -5 -100.5t-24 -97t-57.5 -76t-105.5 -38.5l-10 -1l-9 18l4 6q51 5 79.5 37t43 77t17.5 94.5t3 89.5v292z" />
    <glyph glyph-name=".notdef" horiz-adv-x="550" 
d="M188 511q34 0 55 -13t21 -50q0 -35 -22 -53.5t-57 -18.5q-38 0 -59.5 22.5t-21.5 55.5q0 39 15 67t41 45t62 25t77 8q35 0 66 -6.5t54.5 -21t37 -38.5t13.5 -59q0 -54 -24.5 -92t-86.5 -63l-30 -12q-21 -9 -33 -16t-18 -14.5t-7 -15.5t-1 -18q32 -2 54 -19.5t22 -59.5
q0 -35 -23 -56t-58 -21q-38 0 -61 22t-23 55t19 54t52 24q-2 14 -3 27.5t-1 21.5q0 13 1.5 23.5t6.5 21t15 22t28 28.5q23 21 30 49t7 57q0 42 -17 63.5t-62 21.5q-27 0 -51 -17t-24 -49h6zM502 636h48v-585h-48v585zM0 636h48v-585h-48v585zM51 639v48h448v-48h-448zM51 1
v48h448v-48h-448z" />
    <glyph glyph-name="glyph1" horiz-adv-x="0" 
 />
    <glyph glyph-name="glyph1" horiz-adv-x="0" 
 />
    <glyph glyph-name="uni000D" unicode="&#xd;" horiz-adv-x="230" 
 />
    <glyph glyph-name="space" unicode=" " horiz-adv-x="230" 
 />
    <glyph glyph-name="exclam" unicode="!" horiz-adv-x="302" 
d="M101 44q0 22 14.5 37t36.5 15q23 0 37.5 -15t14.5 -37q0 -23 -16 -37t-36 -14t-35.5 14t-15.5 37zM194 691v-51q0 -41 -2.5 -97t-5.5 -114.5t-7 -114.5l-7 -98l-27 -25l-9 5q0 54 -1.5 112.5t-4.5 117t-6.5 115t-7.5 106.5l3 8q17 8 32 17t26 19h17z" />
    <glyph glyph-name="quotedbl" unicode="&#x22;" horiz-adv-x="346" 
d="M98 445l-21 201q-2 13 -2.5 22t-0.5 11q0 15 7 19t27 4t25.5 -4t5.5 -18q0 -2 -0.5 -11.5t-2.5 -22.5l-18 -201h-20zM231 445l-21 201q-2 13 -2.5 22t-0.5 11q0 15 7 19t27 4t25.5 -4t5.5 -18q0 -2 -0.5 -11.5t-2.5 -22.5l-18 -201h-20z" />
    <glyph glyph-name="numbersign" unicode="#" horiz-adv-x="504" 
d="M95 0l37 194h-82l19 55h71l38 205h-83l19 54h71l33 172h29l-33 -172h110l32 172h30l-32 -172h81l-19 -54h-71l-37 -205h82l-19 -55h-72l-35 -194h-30l37 194h-110l-37 -194h-29zM170 249h109l36 205h-109z" />
    <glyph glyph-name="dollar" unicode="$" horiz-adv-x="550" 
d="M59 35q5 27 8 61.5t5 79.5l4 4h22l3 -4q1 -39 2 -57t4 -27q1 -9 14 -20t32.5 -20.5t43.5 -15.5t48 -6v297q-39 7 -72 20t-57.5 34t-38 52t-13.5 75q0 84 48 126.5t133 53.5q0 12 -0.5 30t-0.5 36t-0.5 33.5t-0.5 23.5l5 4h29l5 -4q0 -8 -0.5 -23.5t-0.5 -33.5t-0.5 -35.5
t-0.5 -28.5q48 0 87.5 -6t65.5 -21l2 -6q-4 -17 -6 -35t-4 -43l-4 -43l-4 -4h-19l-3 3q0 16 -1 34.5t-5 35.5q-4 11 -14.5 20.5t-25.5 16.5t-33 11t-36 4v-271q44 -9 82.5 -19t67 -27.5t45 -46.5t16.5 -76t-16.5 -85.5t-45 -67t-67 -45.5t-82.5 -21q0 -20 0.5 -43t1 -45
t1 -38.5t0.5 -22.5l-5 -4h-30l-5 4q0 4 0.5 20t0.5 37.5t0.5 45.5t0.5 44q-51 1 -95.5 8t-86.5 24zM245 657q-21 -2 -41 -10.5t-35.5 -24t-25 -40t-9.5 -57.5q0 -31 8 -53t23 -37t35.5 -25t44.5 -17v264zM280 32q63 0 101.5 41t38.5 116q0 51 -32.5 85t-107.5 46v-288z" />
    <glyph glyph-name="percent" unicode="%" horiz-adv-x="843" 
d="M163 528q0 -23 2.5 -49t11.5 -47.5t26 -36t46 -14.5q23 0 39 11.5t25.5 31t13.5 46.5t4 57q0 155 -84 155q-25 0 -41 -13.5t-25.5 -35.5t-13.5 -49.5t-4 -55.5zM108 520q0 34 7.5 67t24.5 59.5t44.5 43t66.5 16.5q28 0 53 -9t43 -28.5t28.5 -50.5t10.5 -75
q0 -94 -39 -140t-105 -46q-36 0 -61.5 13t-41.5 35t-23.5 52t-7.5 63zM517 156q0 -23 2.5 -49t11.5 -47.5t26 -36t46 -14.5q23 0 39 11.5t25.5 31t13.5 46.5t4 57q0 155 -84 155q-25 0 -41 -13.5t-25.5 -35.5t-13.5 -49.5t-4 -55.5zM462 148q0 34 7.5 67t24.5 59.5t44.5 43
t66.5 16.5q28 0 53 -9t43 -28.5t28.5 -50.5t10.5 -75q0 -94 -39 -140t-105 -46q-36 0 -61.5 13t-41.5 35t-23.5 52t-7.5 63zM645 747l-425 -828l-6 -3h-25l-3 5l426 828l5 3h25z" />
    <glyph glyph-name="ampersand" unicode="&#x26;" horiz-adv-x="863" 
d="M585 457h9q42 -10 68.5 -46t26.5 -79q0 -75 -35 -132t-86 -102q48 -47 85.5 -70.5t81.5 -23.5q32 0 58.5 9t55.5 29l4 -2l4 -11l-3 -6q-13 -12 -34 -25.5t-45 -24.5t-50 -18.5t-48 -7.5q-23 0 -46 9.5t-45 24.5t-42.5 33.5t-38.5 36.5q-51 -35 -97 -48.5t-102 -13.5
q-46 0 -85 13.5t-68 38.5t-45.5 60t-16.5 78q0 33 9.5 60.5t29.5 52.5t51.5 48.5t75.5 49.5q-35 72 -35 129q0 36 12 60t41 49q34 28 65.5 43.5t63.5 15.5q45 0 71 -22t26 -73t-44 -96t-129 -96q15 -28 41 -66t57 -78t63.5 -77.5t61.5 -64.5q38 32 58.5 76t20.5 98
q0 19 -6 38.5t-17.5 36t-28 28t-36.5 15.5l-5 8zM318 421q24 14 46.5 30.5t40 35t27.5 39t10 43.5q0 13 -3 27.5t-11 27t-23.5 20.5t-39.5 8q-34 0 -57 -27.5t-23 -72.5q0 -23 8 -60t24 -69zM490 69q-30 31 -61 68t-60.5 76t-55.5 79t-46 76q-49 -31 -75 -69.5t-26 -86.5
q0 -40 13 -74t37 -58.5t58.5 -38.5t76.5 -14q37 0 69.5 8.5t64.5 30.5z" />
    <glyph glyph-name="quotesingle" unicode="'" horiz-adv-x="213" 
d="M98 445l-21 201q-2 13 -2.5 22t-0.5 11q0 15 7 19t27 4t25.5 -4t5.5 -18q0 -2 -0.5 -11.5t-2.5 -22.5l-18 -201h-20z" />
    <glyph glyph-name="parenleft" unicode="(" horiz-adv-x="392" 
d="M268 -139q-103 94 -149 209.5t-46 253.5t48 253t151 208l6 -1l11 -7v-5q-75 -81 -112.5 -192.5t-37.5 -244.5q0 -72 7.5 -132.5t24.5 -115t46 -107t72 -108.5l-1 -6l-14 -6z" />
    <glyph glyph-name="parenright" unicode=")" horiz-adv-x="392" 
d="M118 -140l-14 6l-1 6q43 56 72 108.5t46 107t24.5 115t7.5 132.5q0 133 -37.5 244.5t-112.5 192.5v5l11 7l6 1q103 -93 151 -208t48 -253t-46 -253.5t-149 -209.5z" />
    <glyph glyph-name="asterisk" unicode="*" horiz-adv-x="579" 
d="M261 325q4 17 7 41.5t5 51t3.5 53t2.5 47.5q-17 -11 -37 -24.5t-40 -28t-39.5 -29.5t-35.5 -29l-10 1l-22 37l1 9q41 15 89 38t86 43q-51 28 -93 47t-81 34l-1 7l21 39h10q14 -12 33 -26t39 -28.5t41 -28.5t39 -25q-1 21 -2.5 47t-4 52t-5 49.5t-6.5 41.5l4 5h47l6 -5
q-4 -18 -7 -41.5t-5.5 -49.5t-4 -52t-1.5 -47q18 11 38.5 24.5t41 28t39.5 29t33 26.5h9l22 -39l-1 -7q-38 -15 -81 -34t-94 -47q39 -19 87 -42.5t88 -38.5l3 -9l-24 -37l-9 -1q-16 14 -35 28.5t-39 29t-40 28t-38 25.5q0 -21 1.5 -47.5t4 -53t5.5 -51t6 -41.5l-8 -5h-39z
" />
    <glyph glyph-name="plus" unicode="+" horiz-adv-x="572" 
d="M258 -5q2 19 3 46t2 55t1 54v44v11h-12q-20 0 -46 -0.5t-53.5 -1t-53.5 -1.5t-45 -2q1 6 1.5 13t0.5 15t-0.5 15t-1.5 13q18 -2 44.5 -3t54.5 -2t54 -1h44h12v10q0 18 -0.5 44.5t-1 54.5t-1.5 55t-2 46q7 -1 15.5 -1h16.5h12.5t11.5 1q-1 -19 -2 -46t-1.5 -55t-1 -54.5
t-0.5 -44.5v-10h10q19 0 45.5 0.5t54.5 1t54.5 1.5t45.5 2q-1 -6 -1.5 -12t-0.5 -13q0 -8 0.5 -15.5t1.5 -14.5q-19 1 -45.5 2t-54.5 1.5t-54 1t-44 0.5h-12v-10q0 -18 0.5 -44.5t1 -54.5t1.5 -55t2 -46q-5 1 -11.5 1h-14.5h-15t-15 -1z" />
    <glyph glyph-name="comma" unicode="," horiz-adv-x="240" 
d="M16 -124q32 57 56 118t34 118q19 5 37.5 11.5t35.5 16.5l12 -13q-29 -72 -64.5 -133.5t-70.5 -106.5l-32 -19z" />
    <glyph glyph-name="hyphen" unicode="-" horiz-adv-x="344" 
d="M34 261v7l18 44h258v-7l-18 -44h-258z" />
    <glyph glyph-name="period" unicode="." horiz-adv-x="240" 
d="M70 44q0 22 14.5 37t36.5 15q23 0 37.5 -15t14.5 -37q0 -23 -16 -37t-36 -14t-35.5 14t-15.5 37z" />
    <glyph glyph-name="slash" unicode="/" horiz-adv-x="477" 
d="M466 797l-425 -908l-6 -3h-30l-3 5l426 908l5 3h30z" />
    <glyph glyph-name="zero" unicode="0" horiz-adv-x="550" 
d="M67 310q0 69 9.5 136.5t34 121.5t66 87t105.5 33q42 0 79 -18t64 -57t42.5 -101.5t15.5 -151.5q0 -94 -15.5 -165t-43.5 -118t-67.5 -71t-88.5 -24q-56 0 -94 26t-62 70.5t-34.5 104t-10.5 127.5zM140 327q0 -48 4.5 -103.5t18.5 -102t41.5 -77.5t74.5 -31q37 0 62 24.5
t40.5 66.5t22 99t6.5 122q0 332 -135 332q-40 0 -66 -29t-41.5 -76t-21.5 -106t-6 -119z" />
    <glyph glyph-name="one" unicode="1" horiz-adv-x="550" 
d="M279 450q0 72 -0.5 111t-1.5 45q0 13 -8 13q-9 0 -27 -5l-129 -35h-8l-16 17l4 5q26 9 60.5 22.5t70 27.5t67 27.5t51.5 22.5l13 -5q-3 -51 -4.5 -90.5t-2.5 -70.5t-1 -55v-44v-183q0 -97 1.5 -151t9.5 -62q4 -4 14 -6.5t24.5 -4t31 -2.5t32.5 -2l4 -3v-22l-4 -3
q-38 2 -79 2.5t-80 0.5q-31 0 -65.5 -0.5t-72.5 -2.5l-4 3v22l4 3q16 0 33 1.5t31 3.5t24 4.5t12 5.5q16 22 16 215v195z" />
    <glyph glyph-name="two" unicode="2" horiz-adv-x="550" 
d="M43 1v17l116 120q49 51 90.5 96t71.5 87t46.5 82.5t16.5 82.5q0 28 -8 54t-25.5 45.5t-45.5 31t-67 11.5q-26 0 -51 -7t-40 -21q-3 -3 -8.5 -11.5t-11 -19.5t-11 -24.5t-9.5 -26.5l-5 -4h-20l-4 4q12 29 22.5 59.5t21.5 63.5q20 23 59.5 38t85.5 15q39 0 75 -11.5
t63 -34.5t43.5 -57t16.5 -79q0 -35 -11 -67.5t-32.5 -65.5t-53 -68.5t-71.5 -75.5l-166 -168h212q90 0 150 6l3 -3q-2 -9 -2.5 -18t-0.5 -22q0 -15 3 -30l-3 -5q-23 1 -51.5 2t-58.5 1.5t-59 1t-52 0.5h-48t-65 -0.5t-64.5 -1.5t-46.5 -2z" />
    <glyph glyph-name="three" unicode="3" horiz-adv-x="550" 
d="M233 633q-26 0 -50 -7.5t-39 -21.5q-7 -6 -20.5 -27.5t-21.5 -47.5l-5 -4h-20l-4 4q12 29 22.5 54.5t21.5 58.5q19 23 59 38t86 15q34 0 65 -8.5t54.5 -26.5t37.5 -46t14 -66q0 -49 -29 -94.5t-80 -72.5q87 -12 127 -52.5t40 -97.5q0 -56 -25 -102t-65 -78t-91 -49.5
t-103 -17.5q-110 0 -165 39q-3 3 -3 5q0 1 2 9q9 28 17.5 65t13.5 66l5 2l17 -3l2 -4q-2 -12 -2.5 -24.5t-0.5 -19.5q0 -27 12 -46t31.5 -30.5t44.5 -17t51 -5.5q46 0 79.5 15.5t54.5 41.5t31 60t10 70q0 66 -39.5 99.5t-99.5 33.5q-11 0 -19.5 -1t-18 -3t-21 -6.5
t-28.5 -11.5l-6 5l10 54q11 -1 23.5 -1.5t30.5 -0.5q28 0 50.5 11.5t37.5 31t23 46t8 56.5q0 48 -31 80.5t-94 32.5z" />
    <glyph glyph-name="four" unicode="4" horiz-adv-x="550" 
d="M217 1v19l3 5q38 0 64 4t34 14q8 9 10.5 37.5t2.5 63.5v36h-110q-95 0 -159 -3l-8 22q43 81 114 199t173 272l52 28l13 -5q-2 -21 -3.5 -48t-2 -68t-1 -99.5t-0.5 -141.5v-102q29 0 58 0.5t48 2.5l4 -5q-2 -8 -2 -13.5v-10.5q0 -6 0.5 -12t1.5 -14l-5 -5q-48 3 -80 3h-25
v-32q0 -56 3 -79t10 -30q3 -3 7 -5.5t12.5 -4.5t23.5 -3t39 -1l5 -5v-19l-4 -4q-44 2 -74.5 2.5t-59.5 0.5h-42.5t-34.5 -0.5t-31 -1t-33 -1.5zM331 234l4 371q-11 -15 -29 -43.5t-39 -64t-43.5 -75t-43 -75.5t-37 -66t-25.5 -47h213z" />
    <glyph glyph-name="five" unicode="5" horiz-adv-x="550" 
d="M206 -17q-54 0 -90.5 9.5t-63.5 28.5q-4 3 -4 6l2 8q4 13 8.5 29.5t9 34.5t8 35.5t5.5 32.5l5 2l15 -2l4 -5q-3 -24 -3 -44q0 -49 35 -72t87 -23q43 0 79.5 14t63 39.5t41 60t14.5 76.5q0 39 -13 71.5t-35.5 55.5t-53 35.5t-64.5 12.5q-48 0 -75.5 -15.5t-49.5 -38.5
l-20 6q5 43 6 78t1 51v57.5t-0.5 57.5t-1 52.5t-1.5 42.5l6 6q38 -3 81 -4t91 -1q37 0 80 1t95 4l4 -5q-2 -12 -3 -20t-1 -18v-14.5t2 -19.5l-5 -3q-29 2 -66.5 3t-85.5 1h-53h-37t-29.5 -0.5t-29.5 -1.5q-2 -14 -3.5 -37t-3 -51.5t-2.5 -59.5t-2 -61q19 15 36.5 24t34 14
t33 7t35.5 2q43 0 79 -14.5t62 -41t41 -62.5t15 -79q0 -100 -83 -183q-38 -38 -90.5 -60t-109.5 -22z" />
    <glyph glyph-name="six" unicode="6" horiz-adv-x="550" 
d="M455 689v-7q-59 -14 -112.5 -43t-95.5 -72.5t-68.5 -101t-30.5 -128.5q13 11 35 27t37 26q16 11 39.5 17t51.5 6q79 0 126.5 -49.5t47.5 -140.5q0 -83 -40 -138q-40 -56 -82.5 -79.5t-99.5 -23.5q-59 0 -97.5 23.5t-61 62.5t-31.5 89t-9 103q0 89 28 163t76 130
t112.5 93.5t138.5 53.5zM138 221q0 -30 6 -66.5t22 -68t43.5 -53t69.5 -21.5q34 0 60 13.5t42.5 37.5t25 56.5t8.5 70.5q0 31 -7.5 62t-25 56t-45 41t-66.5 16q-69 0 -101 -40t-32 -104z" />
    <glyph glyph-name="seven" unicode="7" horiz-adv-x="550" 
d="M88 3q105 175 193.5 324t166.5 284l-5 5h-154q-58 0 -98 -1.5t-48 -6.5t-11.5 -14t-6.5 -33l-9 -70l-5 -4h-18l-4 4l3 128q0 11 -0.5 27.5t-2.5 36.5l10 5q9 -2 32 -3.5t52.5 -2.5t62.5 -1.5t62 -0.5h59t47.5 0.5t44 1.5t48.5 3l3 -4v-17q-54 -95 -107 -192.5t-98.5 -186
t-80.5 -163t-54 -125.5l-4 -4q-18 3 -33 3q-20 0 -35 -3z" />
    <glyph glyph-name="eight" unicode="8" horiz-adv-x="550" 
d="M206 346q-65 31 -93.5 67.5t-28.5 95.5q0 42 16.5 76t45 58t66.5 37t80 13q38 0 70.5 -10.5t56.5 -29t37.5 -45t13.5 -59.5q0 -55 -33.5 -95.5t-102.5 -75.5v-5q34 -14 63 -28.5t49.5 -34.5t32 -48t11.5 -68q0 -44 -17.5 -83t-47.5 -67.5t-70 -45t-85 -16.5
q-47 0 -86 12.5t-66.5 35.5t-42.5 56t-15 74q0 66 38.5 108t107.5 74v4zM301 387q33 16 53 34.5t31.5 38t15.5 39.5t4 39q0 57 -31.5 90t-88.5 33q-28 0 -52.5 -9.5t-43 -26t-29.5 -39t-11 -49.5q0 -35 14 -59.5t36.5 -41.5t49 -28.5t52.5 -20.5zM238 333
q-54 -27 -82.5 -70.5t-28.5 -94.5q0 -72 41 -111.5t110 -39.5q35 0 63.5 11.5t48.5 32t31 47.5t11 58q0 35 -15 59.5t-41 43t-61.5 33.5t-76.5 31z" />
    <glyph glyph-name="nine" unicode="9" horiz-adv-x="550" 
d="M94 -7v9q139 33 216 122.5t87 219.5q-35 -35 -75.5 -56t-85.5 -21q-44 0 -77 15t-55.5 41.5t-34 62t-11.5 77.5q0 50 13.5 92.5t41 73t69 48t97.5 17.5q57 0 95 -19t61 -54t32.5 -85.5t9.5 -113.5q0 -81 -24.5 -153.5t-70.5 -131t-112 -98.5t-148 -55zM126 493
q0 -34 8.5 -66t26 -57t44 -40t61.5 -15q40 0 76 19t50 55q10 26 10 82q0 42 -8 77t-25 61t-42.5 40.5t-59.5 14.5q-63 0 -102 -43t-39 -128z" />
    <glyph glyph-name="colon" unicode=":" horiz-adv-x="250" 
d="M95 44q0 22 14.5 37t36.5 15q23 0 37.5 -15t14.5 -37q0 -23 -16 -37t-36 -14t-35.5 14t-15.5 37zM95 404q0 22 14.5 37t36.5 15q23 0 37.5 -15t14.5 -37q0 -23 -16 -37t-36 -14t-35.5 14t-15.5 37z" />
    <glyph glyph-name="semicolon" unicode=";" horiz-adv-x="250" 
d="M98 404q0 22 14.5 37t36.5 15q23 0 37.5 -15t14.5 -37q0 -23 -16 -37t-36 -14t-35.5 14t-15.5 37zM24 -124q32 57 56 118t34 118q19 5 37.5 11.5t35.5 16.5l12 -13q-29 -72 -64.5 -133.5t-70.5 -106.5l-32 -19z" />
    <glyph glyph-name="less" unicode="&#x3c;" horiz-adv-x="572" 
d="M481 47q-8 -10 -14.5 -21.5t-11.5 -24.5q-39 25 -87 54t-99 58.5t-102.5 58t-96.5 52.5v5q45 25 96.5 54t102.5 58t99 58t87 54q5 -12 11.5 -24t14.5 -22q-36 -18 -83.5 -42.5t-95.5 -50t-90 -49t-66 -38.5q24 -15 66 -38.5t90 -49.5t95.5 -50.5t83.5 -41.5z" />
    <glyph glyph-name="equal" unicode="=" horiz-adv-x="572" 
d="M507 282q-18 1 -43.5 2t-52 1.5t-51.5 1t-42 0.5h-66q-17 0 -42 -0.5t-51 -1.5t-51 -2t-43 -2v9q0 4 0.5 8.5t0.5 9.5q0 4 -0.5 8.5t-0.5 8.5v9q18 -1 43 -2t51 -1.5t50.5 -0.5h42.5h66q18 0 43 0.5t51.5 1t51.5 1.5t43 2q-1 -3 -1 -9v-18v-17q0 -6 1 -9zM507 128
q-18 1 -43.5 2t-52 1.5t-51.5 1t-42 0.5h-66q-17 0 -42 -0.5t-51 -1.5t-51 -2t-43 -2v9q0 4 0.5 8.5t0.5 9.5q0 4 -0.5 8.5t-0.5 8.5v9q18 -1 43 -2t51 -1.5t50.5 -0.5h42.5h66q18 0 43 0.5t51.5 1t51.5 1.5t43 2q-1 -3 -1 -9v-18v-17q0 -6 1 -9z" />
    <glyph glyph-name="greater" unicode="&#x3e;" horiz-adv-x="572" 
d="M90 407q8 10 14.5 21.5t11.5 24.5q39 -25 87 -54t99 -58.5t102.5 -58t96.5 -52.5v-5q-45 -25 -96.5 -54t-102.5 -58t-99 -58t-87 -54q-5 12 -11.5 24t-14.5 22q36 18 83.5 42.5t95.5 50t90 49t66 38.5q-24 15 -66 38.5t-90 49.5t-95.5 50.5t-83.5 41.5z" />
    <glyph glyph-name="question" unicode="?" horiz-adv-x="467" 
d="M189 183q-13 9 -20.5 23.5t-7.5 36.5q0 15 4.5 28.5t16.5 29t31.5 35t49.5 45.5q35 31 49 67t14 70q0 57 -35 88.5t-86 31.5q-14 0 -28.5 -2.5t-29.5 -10.5q-20 -11 -33 -35l-20 -39l-6 -3l-12 4v5l37 99q29 19 55.5 28t59.5 9q34 0 64 -9t52 -27.5t34.5 -46t12.5 -63.5
q0 -59 -30.5 -101.5t-87.5 -89.5q-36 -30 -48.5 -51t-12.5 -45q0 -13 8 -29.5t25 -30.5l-1 -7l-46 -13zM164 44q0 22 14.5 37t36.5 15q23 0 37.5 -15t14.5 -37q0 -23 -16 -37t-36 -14t-35.5 14t-15.5 37z" />
    <glyph glyph-name="at" unicode="@" horiz-adv-x="1010" 
d="M844 -63q-19 -30 -50 -56.5t-72.5 -46t-94 -30.5t-114.5 -11q-90 0 -163.5 26.5t-125 76.5t-79.5 120.5t-28 159.5q0 96 34 175.5t93.5 137.5t140 90t173.5 32q70 0 133 -20t110.5 -60t75 -98.5t27.5 -134.5q0 -49 -14.5 -103.5t-42.5 -101t-69.5 -77t-95.5 -30.5
q-42 0 -66.5 21t-24.5 57v19h-5q-56 -98 -152 -98q-32 0 -54 13t-35.5 35t-19 52t-5.5 63q0 27 6 59.5t17.5 66t30 65.5t43 56.5t56 39.5t70.5 15q34 0 58.5 -14.5t36.5 -43.5l9 44l56 15l8 -7q-14 -49 -26 -104.5t-21 -105.5t-14 -90.5t-5 -59.5q0 -31 14 -49t40 -18
q34 0 64 21t52 58.5t34.5 88.5t12.5 112q0 70 -23.5 124t-64.5 90.5t-95.5 55t-116.5 18.5q-89 0 -161 -30.5t-123 -85t-78.5 -129.5t-27.5 -164q0 -74 23.5 -138t68.5 -111t110.5 -74t148.5 -27q110 0 186.5 34.5t126.5 84.5zM383 150q0 -69 22 -101t56 -32q28 0 51 17
t41 44.5t31 61.5t22 69t13 67.5t4 55.5q0 38 -18 65t-56 27q-44 0 -75 -29t-51.5 -71t-30 -89.5t-9.5 -84.5z" />
    <glyph glyph-name="A" unicode="A" horiz-adv-x="700" 
d="M-1 1v21l4 3q29 3 55 29q22 24 41 66l181 392q23 51 43.5 95t38.5 89h14l183 -491q18 -49 30.5 -79.5t21 -48.5t13.5 -26t9 -12q7 -7 22 -10.5t31 -3.5l4 -4v-20l-4 -4q-26 2 -58.5 2.5t-53.5 0.5q-27 0 -55 -1t-48 -2l-4 4v20l4 4q28 1 35.5 2t14.5 3q13 4 13 22
q0 12 -8 38.5t-16 48.5l-63 170h-218l-71 -163q-18 -42 -26.5 -62.5t-8.5 -29.5q0 -14 11 -21.5t47 -7.5l4 -4v-20l-4 -4q-31 2 -49 2.5t-41 0.5q-17 0 -42.5 -0.5t-45.5 -2.5zM243 345h192l-90 232z" />
    <glyph glyph-name="B" unicode="B" horiz-adv-x="586" 
d="M82 0v14l4 5q11 5 20.5 9.5t10.5 7.5q5 19 6.5 69.5t1.5 122.5v225v89.5t-1 54t-3.5 28.5t-6.5 14q-5 5 -17 9t-44 6l-4 3v23l4 3q38 -2 67 -2.5t39 -0.5q43 0 76.5 1.5t71.5 1.5q36 0 71.5 -5t63 -19.5t44.5 -41t17 -69.5q0 -35 -14 -62.5t-37 -48t-53 -33.5t-62 -17v-2
q35 -2 70 -10.5t63 -27.5t45.5 -50t17.5 -78q0 -39 -13.5 -72t-37.5 -60t-57 -46.5t-72 -30.5q-18 -5 -40 -9t-57 -4q-48 0 -70 1.5t-35 1.5q-17 0 -29.5 -0.5t-35.5 -2.5zM193 150q0 -14 0.5 -31t1 -32.5t1 -28t0.5 -18.5q12 -4 28 -7t39 -3q49 0 85 13.5t60 37t35.5 56
t11.5 71.5q0 48 -16.5 78.5t-44.5 48t-65 23.5t-79 6q-35 0 -57 -3v-211zM193 397h61q42 0 67 4.5t46 17.5q22 14 41.5 40t19.5 68q0 38 -14 62t-36.5 37.5t-49.5 18.5t-52 5q-24 0 -43 -1t-36 -4q-2 -19 -3 -42t-1 -62v-144z" />
    <glyph glyph-name="C" unicode="C" horiz-adv-x="684" 
d="M630 36q-29 -17 -79 -34t-132 -17q-86 0 -154 26t-115 72.5t-72 109.5t-25 138q0 76 24.5 142t71.5 115.5t114.5 78t153.5 28.5q92 0 149.5 -14t86.5 -24l3 -5q-11 -32 -16.5 -64t-8.5 -74l-3 -3h-21l-3 3q0 44 -0.5 61.5t-3.5 25.5q-4 10 -20 20.5t-40.5 18.5
t-56.5 13.5t-68 5.5q-52 0 -102 -17.5t-89 -54.5t-63 -95t-24 -139q0 -55 16.5 -112.5t52.5 -105t92.5 -78t136.5 -30.5q41 0 74 6.5t58.5 16t44.5 21t32 21.5l9 -8z" />
    <glyph glyph-name="D" unicode="D" horiz-adv-x="764" 
d="M198 147v-56t2 -52q19 -3 51.5 -4.5t66.5 -1.5q69 0 125.5 22.5t97 64t63 100.5t22.5 133q0 67 -16 115t-42.5 81t-60.5 53t-70 30.5t-70.5 14t-62.5 3.5q-30 0 -57.5 -2t-43.5 -4q-4 -27 -4.5 -59.5t-0.5 -80.5v-357zM82 0v14l4 5q11 5 20.5 9.5t10.5 7.5q5 19 6.5 69.5
t1.5 122.5v225v89.5t-1 54t-3.5 28.5t-6.5 14q-5 5 -17 9t-44 6l-4 3v23l4 3q38 -2 67 -2.5t39 -0.5q27 0 54.5 0.5t53 1t47.5 1t38 0.5q58 0 121 -13t116 -47.5t87.5 -96t34.5 -157.5q0 -62 -22.5 -127.5t-70.5 -120t-122.5 -89.5t-177.5 -35q-38 0 -73.5 1.5t-80.5 1.5
q-17 0 -36 -0.5t-42 -2.5z" />
    <glyph glyph-name="E" unicode="E" horiz-adv-x="576" 
d="M426 242h-22l-4 4l-3 29q-2 20 -5 30.5t-11 16.5q-12 9 -53.5 11t-111.5 2h-19v-105q0 -51 0.5 -98.5t2.5 -98.5h65q88 0 145 4t78 14q9 11 18 39t15 63l3 3h22l4 -3q-3 -19 -5.5 -41t-4.5 -43t-3 -39.5t-1 -29.5l-3 -4q-23 1 -65 2t-92.5 1.5t-105 0.5h-103.5
q-17 0 -37.5 -0.5t-43.5 -2.5l-4 3v14l4 5q11 5 20.5 9.5t10.5 7.5q5 19 6.5 69.5t1.5 122.5v225v89.5t-1 54t-3.5 28.5t-6.5 14q-5 5 -17 9t-44 6l-4 3v23l4 3q38 -2 67 -2.5t39 -0.5h80t90 0.5t86.5 1.5t69.5 2l2 -3q-2 -23 -3 -57t-1 -85l-3 -4h-24l-4 4v7q0 67 -6 78
q-11 17 -62 21q-12 1 -32 1.5t-43.5 1t-48.5 0.5h-49h-14v-281h24q60 0 105.5 1t59.5 9q6 3 8 12t4 32l2 30l4 4h22l4 -4q-2 -26 -2.5 -51t-0.5 -52q0 -21 0.5 -44t2.5 -58z" />
    <glyph glyph-name="F" unicode="F" horiz-adv-x="523" 
d="M197 230v-90.5t1 -54.5t3.5 -29.5t6.5 -15.5q5 -5 20 -9t47 -6l4 -3v-22l-4 -3q-38 2 -71 2.5t-43 0.5q-9 0 -39.5 -0.5t-68.5 -2.5l-4 3v22l4 3q32 2 44 6t17 9q4 6 6.5 15t3.5 28.5t1 53.5v91v225v89.5t-1 54t-3.5 28.5t-6.5 14q-5 5 -17 9t-44 6l-4 3v23l4 3
q38 -2 67 -2.5t39 -0.5h80t90 0.5t86.5 1.5t69.5 2l2 -3q-2 -23 -3 -57t-1 -85l-3 -4h-24l-4 4v7q0 67 -6 78q-11 17 -62 21q-12 1 -32 1.5t-43.5 1t-48.5 0.5h-49h-14v-281h24q60 0 105.5 1t59.5 9q6 3 8 12t4 32l2 30l4 4h22l4 -4q-2 -26 -2.5 -51t-0.5 -52q0 -21 0.5 -44
t2.5 -58l-4 -4h-22l-4 4l-3 29q-2 20 -5 30.5t-11 16.5q-12 9 -52.5 11t-112.5 2h-19v-105z" />
    <glyph glyph-name="G" unicode="G" horiz-adv-x="764" 
d="M440 659q-73 0 -129.5 -21.5t-95.5 -61t-59 -95.5t-20 -125q0 -74 22.5 -135t63 -105.5t96.5 -69t123 -24.5q58 0 100 10.5t70 27.5q3 6 4 30t1 73v39q0 23 -15 30.5t-55 9.5l-44 2l-3 3v22l3 3q26 -1 62.5 -2t70.5 -1q22 0 48 1t41 2l2 -3v-16l-2 -3l-27 -9
q-5 -6 -7.5 -30t-2.5 -83q0 -32 0.5 -53t3.5 -35l-3 -3q-31 -17 -95.5 -34.5t-160.5 -17.5q-78 0 -147.5 23.5t-122 68.5t-83 111.5t-30.5 153.5q0 90 33 156.5t87.5 110t125.5 65t147 21.5q92 0 149.5 -14t86.5 -24l3 -4q-11 -32 -16.5 -64.5t-8.5 -74.5l-3 -3h-21l-3 3
q0 29 -0.5 54t-3.5 33q-4 10 -20 20.5t-40.5 18.5t-56.5 13.5t-68 5.5z" />
    <glyph glyph-name="H" unicode="H" horiz-adv-x="797" 
d="M197 379q99 -3 202 -3q99 0 200 3v74q0 55 -0.5 89t-1.5 54t-3 29t-6 14q-5 5 -17 9t-44 6l-4 3v23l4 3q38 -2 68.5 -2.5t40.5 -0.5q9 0 39.5 0.5t68.5 2.5l4 -3v-23l-4 -3q-32 -2 -44.5 -6t-17.5 -9q-4 -5 -6 -13t-3 -27.5t-1.5 -54t-0.5 -91.5v-226q0 -59 0.5 -94
t1.5 -54t3 -26.5t6 -12.5q5 -5 17.5 -9t44.5 -6l4 -3v-22l-4 -3q-38 2 -68.5 2.5t-40.5 0.5q-9 0 -39.5 -0.5t-68.5 -2.5l-4 3v22l4 3q32 2 44 6t17 9q4 5 6 14t3 28.5t1.5 53.5t0.5 90v112q-101 3 -200 3q-103 0 -202 -3v-111q0 -59 0.5 -93.5t1.5 -53.5t3 -27t6 -13
q5 -5 17.5 -9t44.5 -6l4 -3v-22l-4 -3q-38 2 -68.5 2.5t-40.5 0.5q-9 0 -39.5 -0.5t-68.5 -2.5l-4 3v22l4 3q32 2 44 6t17 9q4 5 6 14t3 28.5t1.5 53.5t0.5 90v227q0 57 -0.5 91.5t-1.5 54t-3 27.5t-6 13q-5 5 -17 9t-44 6l-4 3v23l4 3q38 -2 68.5 -2.5t40.5 -0.5
q9 0 39.5 0.5t68.5 2.5l4 -3v-23l-4 -3q-32 -2 -44.5 -6t-17.5 -9q-4 -5 -6 -13t-3 -27t-1.5 -53.5t-0.5 -92.5v-74z" />
    <glyph glyph-name="I" unicode="I" horiz-adv-x="323" 
d="M197 226v-90.5t1 -53t3.5 -28t6.5 -14.5q5 -5 17.5 -9t44.5 -6l4 -3v-22l-4 -3q-38 2 -68.5 2.5t-40.5 0.5q-9 0 -39.5 -0.5t-68.5 -2.5l-4 3v22l4 3q32 2 44 6t17 9q4 6 6.5 15t3.5 28.5t1 53v89.5v227v89.5t-1 54t-3.5 28.5t-6.5 14q-5 5 -17 9t-44 6l-4 3v23l4 3
q38 -2 68.5 -2.5t40.5 -0.5q9 0 39.5 0.5t68.5 2.5l4 -3v-23l-4 -3q-32 -2 -44.5 -6t-17.5 -9q-4 -5 -6.5 -14t-3.5 -28.5t-1 -54v-89.5v-227z" />
    <glyph glyph-name="J" unicode="J" horiz-adv-x="321" 
d="M136 453v89.5t-1 54t-3.5 28.5t-6.5 14q-5 5 -19.5 9t-46.5 6l-4 3v23l4 3q38 -2 68.5 -2.5t40.5 -0.5q9 0 40 0.5t69 2.5l4 -3v-23l-4 -3q-32 -2 -42.5 -6t-14.5 -9t-6.5 -14t-3.5 -28.5t-1 -54v-89.5v-349q0 -66 -16 -123t-51 -99t-72.5 -65t-80.5 -23q-8 0 -17.5 2
t-10.5 5q3 13 6 31t5 33l8 6q12 -9 27.5 -13.5t25.5 -4.5q24 0 46.5 11t35.5 35t17 68.5t4 98.5v387z" />
    <glyph glyph-name="K" unicode="K" horiz-adv-x="690" 
d="M484 678l4 4q11 -1 26.5 -1.5t33.5 -0.5q16 0 34.5 0.5t36.5 1.5l3 -4v-20l-3 -4q-36 -2 -60 -9q-16 -5 -41 -28.5t-73 -69.5l-174 -171l275 -278q38 -38 65 -54.5t65 -18.5l3 -4v-19l-3 -4q-24 1 -44 1.5t-35 0.5h-21.5t-37.5 -2q-7 8 -14.5 17t-21 23.5t-35.5 37
t-57.5 58.5t-87.5 88t-125 124v-119v-90t1 -53.5t3.5 -28.5t6.5 -15q5 -5 17.5 -9t44.5 -6l4 -3v-22l-4 -3q-38 2 -68.5 2.5t-40.5 0.5q-9 0 -39.5 -0.5t-68.5 -2.5l-4 3v22l4 3q32 2 44 6t17 9q4 6 6.5 15t3.5 28.5t1 53v89.5v227v89.5t-1 54t-3.5 28.5t-6.5 14q-5 5 -17 9
t-44 6l-4 3v23l4 3q38 -2 68.5 -2.5t40.5 -0.5q9 0 39.5 0.5t68.5 2.5l4 -3v-23l-4 -3q-32 -2 -44.5 -6t-17.5 -9q-4 -5 -6.5 -14t-3.5 -28.5t-1 -54v-89.5v-102q94 85 164 160t124 147z" />
    <glyph glyph-name="L" unicode="L" horiz-adv-x="595" 
d="M82 0v14l4 5q11 5 20.5 9.5t10.5 7.5q5 19 6.5 69.5t1.5 122.5v225v89.5t-1 54t-3.5 28.5t-6.5 14q-5 5 -17 9t-44 6l-4 3v23l4 3q38 -2 68.5 -2.5t40.5 -0.5q9 0 39.5 0.5t68.5 2.5l4 -3v-23l-4 -3q-32 -2 -44.5 -6t-17.5 -9q-4 -5 -6.5 -14t-3.5 -28.5t-1 -54v-89.5
v-226q0 -21 0.5 -50t1 -57.5t1.5 -51.5t2 -32h98q38 0 72.5 1.5t61.5 4.5t45 6.5t23 7.5q4 4 9.5 18t10 31.5t8 35t5.5 28.5l3 3h23l3 -3q-3 -19 -6.5 -42t-7 -46.5t-5.5 -44.5t-2 -36l-3 -3q-38 0 -87 0.5t-99.5 1t-99.5 1t-87 0.5q-17 0 -37.5 -0.5t-43.5 -2.5z" />
    <glyph glyph-name="M" unicode="M" horiz-adv-x="939" 
d="M201 682q20 -48 40 -89.5t38 -79.5l190 -397l176 365q33 69 55 119.5t32 81.5q14 -2 25 -2h21q9 0 39.5 0.5t68.5 2.5l4 -3v-23l-4 -3q-32 -2 -44 -6t-17 -9q-4 -5 -6.5 -14t-3.5 -28.5t-1 -54v-89.5v-225v-90t1 -53.5t3.5 -28.5t6.5 -15q5 -5 17 -9t44 -6l4 -3v-23
l-4 -3q-38 2 -68.5 2.5t-40.5 0.5q-9 0 -39.5 -0.5t-68.5 -2.5l-4 3v23l4 3q32 2 44.5 6t17.5 9q4 6 6.5 15t3.5 28.5t1 53v89.5v371l-177 -365q-32 -66 -60.5 -123.5t-51.5 -115.5h-11q-13 32 -23.5 52.5t-19.5 39.5l-240 508v-366q0 -56 1 -90t3 -53.5t5 -28.5t7 -15
q5 -5 17 -9t44 -6l4 -3v-23l-4 -3q-21 2 -50 2.5t-49 0.5q-9 0 -33 -0.5t-62 -2.5l-4 3v23l4 3q32 2 44 6t17 9q4 6 6.5 16t3.5 30.5t2 54t2 86.5l3 322q0 30 -2 55.5t-13 35.5q-6 5 -18.5 8t-44.5 5l-4 3v23l4 3q38 -2 68.5 -2.5t40.5 -0.5q6 0 23 1t27 1z" />
    <glyph glyph-name="N" unicode="N" horiz-adv-x="793" 
d="M622 0q-9 14 -23 33t-30.5 41.5t-35 46t-36.5 46.5l-332 416l3 -355q0 -56 1 -90t3 -53.5t5 -28.5t7 -15q9 -10 71 -15l4 -3v-23l-4 -3q-11 1 -25.5 1.5t-30 1t-29.5 0.5h-24q-9 0 -33.5 -0.5t-62.5 -2.5l-4 3v23l4 3q32 2 44 6t17 9q4 6 7 16t4.5 30.5t2 54t0.5 86.5
v322q0 30 -2 55.5t-13 35.5q-6 5 -18.5 8t-44.5 5l-4 3v23l4 3q21 -2 45 -2.5t35 -0.5q17 0 29 0.5t29 1.5l383 -484q20 -26 39 -51t35 -48l-3 353q0 55 -1 89.5t-3 54.5t-5 29t-7 14q-9 10 -72 15l-4 3v23l4 3q10 -1 25 -1.5l30 -1t29 -0.5h23t35 0.5t64 2.5l3 -3v-23
l-3 -3q-32 -2 -44.5 -6t-17.5 -9q-4 -5 -7 -15t-4.5 -30.5t-2 -54.5t-0.5 -87v-321q0 -33 1.5 -70t3.5 -59q-1 0 -2 -1q-2 -2 -4 -3q-13 1 -24.5 1.5t-33.5 0.5z" />
    <glyph glyph-name="O" unicode="O" horiz-adv-x="822" 
d="M134 378q0 -69 16.5 -133.5t51 -115t87 -81t124.5 -30.5q45 0 92.5 16t87 53t65 97t25.5 149q0 169 -71 250.5t-211 81.5q-51 0 -99.5 -17.5t-85.5 -53t-59.5 -89.5t-22.5 -127zM53 331q0 96 30 164.5t80 113t113.5 65.5t131.5 21q186 0 273.5 -90t87.5 -252
q0 -68 -22 -133.5t-68 -118t-116.5 -84.5t-167.5 -32q-99 0 -165 34.5t-105 86.5t-55.5 112.5t-16.5 112.5z" />
    <glyph glyph-name="P" unicode="P" horiz-adv-x="583" 
d="M152 680q22 0 40 0.5t47 1.5q12 0 27 0.5t28.5 0.5t24 0.5t13.5 0.5q43 0 79.5 -8.5t63.5 -28.5t42 -53.5t15 -84.5q0 -49 -18 -87.5t-49 -65t-71.5 -40.5t-86.5 -14q-15 0 -30.5 0.5t-24.5 1.5l-9 25l5 4q11 -2 20.5 -2h20.5q39 0 70 11.5t53 32.5t33.5 49t11.5 61
q0 82 -41.5 125t-129.5 43q-23 0 -45.5 -1.5t-38.5 -3.5q-2 -24 -3.5 -74t-1.5 -122v-225v-90t1 -53.5t3.5 -28.5t6.5 -15q5 -5 21 -9t48 -6l4 -3v-22l-4 -3q-39 2 -72.5 2.5t-43.5 0.5q-9 0 -39.5 -0.5t-68.5 -2.5l-4 3v22l4 3q32 2 44 6t17 9q4 6 6.5 15t3.5 28.5t1 53
v89.5v227v89.5t-1 54t-3.5 28.5t-6.5 14q-5 5 -17 9t-44 6l-4 3v23l4 3q38 -2 63.5 -2.5t35.5 -0.5z" />
    <glyph glyph-name="Q" unicode="Q" horiz-adv-x="822" 
d="M49 331q0 96 30 164.5t80 113t113.5 65.5t131.5 21q186 0 273.5 -90t87.5 -252q0 -66 -21 -130.5t-65 -116t-111 -84.5t-159 -36q19 -6 50 -16.5t57 -20.5q99 -36 178.5 -55.5t124.5 -19.5q9 0 25.5 2.5t30.5 7.5l5 -3v-11l-2 -5q-26 -11 -50 -24.5t-32 -22.5
q-38 0 -99 13t-134 36q-84 28 -130 42t-63 14q-13 0 -34 -9t-59 -35l-4 3v18l3 6q32 26 63.5 47t50.5 32q-66 0 -117 16t-89 43t-63.5 62.5t-41.5 74t-23 77.5t-7 73zM130 378q0 -69 16.5 -133.5t51 -115t87 -81t124.5 -30.5q45 0 92.5 16t87 53t65 97t25.5 149
q0 169 -71 250.5t-211 81.5q-51 0 -99.5 -17.5t-85.5 -53t-59.5 -89.5t-22.5 -127z" />
    <glyph glyph-name="R" unicode="R" horiz-adv-x="635" 
d="M162 680q32 0 66.5 2t71.5 2q46 0 85 -7.5t66.5 -24.5t43 -46t15.5 -72q0 -34 -8.5 -62t-28.5 -51.5t-54.5 -41.5t-85.5 -31q9 -13 25.5 -34t33.5 -40l70 -84q33 -40 54.5 -65.5t36.5 -42t27 -27t26 -19.5q9 -6 20.5 -8.5t26.5 -3.5l4 -4l-2 -19l-5 -4q-18 2 -34.5 2.5
t-34.5 0.5q-27 0 -60 -3q-14 23 -40.5 57.5t-65.5 83.5q-51 66 -95.5 117t-82.5 93l2 10q20 2 42 5t46 10q48 13 76.5 49.5t28.5 99.5q0 69 -43 99.5t-115 30.5q-16 0 -34 -1t-38 -4q-2 -16 -3.5 -66t-1.5 -129v-225v-90t1 -53.5t3.5 -28.5t6.5 -15q5 -5 17.5 -9t44.5 -6
l4 -3v-22l-4 -3q-38 2 -68.5 2.5t-40.5 0.5q-9 0 -39.5 -0.5t-68.5 -2.5l-4 3v22l4 3q32 2 44 6t17 9q4 6 6.5 15t3.5 28.5t1 53v89.5v227v89.5t-1 54t-3.5 28.5t-6.5 14q-5 5 -17 9t-44 6l-4 3v23l4 3q38 -2 68.5 -2.5t40.5 -0.5z" />
    <glyph glyph-name="S" unicode="S" horiz-adv-x="538" 
d="M62 164h21l4 -4q1 -31 2.5 -46t3.5 -22q6 -17 20.5 -30t34.5 -21.5t44 -13t49 -4.5q31 0 61 9t54 28t38.5 48t14.5 70q0 34 -9.5 58.5t-27.5 41.5t-43.5 28t-58.5 19q-40 10 -76.5 22t-64.5 32t-44.5 51.5t-16.5 80.5q0 46 18 80.5t48.5 57.5t70 34.5t83.5 11.5
q42 0 80.5 -5.5t76.5 -20.5l3 -6q-5 -29 -8 -59.5t-4 -72.5l-5 -4h-21l-4 4q-1 29 -2.5 43t-3.5 24q-3 9 -12.5 20t-25.5 20t-38 15t-49 6q-31 0 -57 -7.5t-45.5 -22.5t-30.5 -37.5t-11 -53.5q0 -35 13 -58.5t34.5 -39t50 -25t60.5 -16.5q40 -9 75.5 -20.5t61.5 -31
t41 -50.5t15 -80q0 -48 -22 -91t-60 -76q-40 -34 -85.5 -49.5t-99.5 -15.5q-46 0 -86 6t-75 20l-3 6q2 20 4 53t3 90z" />
    <glyph glyph-name="T" unicode="T" horiz-adv-x="588" 
d="M330 227v-90t1 -53.5t3.5 -28.5t6.5 -15q5 -5 17.5 -9t44.5 -6l4 -3v-22l-4 -3q-38 2 -68.5 2.5t-40.5 0.5q-9 0 -39.5 -0.5t-68.5 -2.5l-4 3v22l4 3q32 2 44 6t17 9q4 6 6.5 15t3.5 28.5t1 53.5v90v277q0 45 -1 82.5t-2 58.5h-33q-29 0 -58 -1t-46 -3q-19 -2 -29.5 -4
t-16 -6t-7 -11.5t-2.5 -19.5l-6 -68l-2 -3h-23l-3 3q0 48 -2 85.5t-5 65.5l3 3q66 -3 134 -4.5t134 -1.5q69 0 136 1t134 5l3 -3q-3 -28 -5 -65.5t-2 -85.5l-3 -3h-23l-3 3l-8 76q-1 11 -3.5 17.5t-8.5 10t-17.5 5t-30.5 2.5q-18 1 -42.5 1.5t-54.5 0.5h-32
q-2 -21 -2.5 -58.5t-0.5 -82.5v-277z" />
    <glyph glyph-name="U" unicode="U" horiz-adv-x="761" 
d="M191 235q0 -48 9.5 -86t32.5 -64.5t60.5 -40.5t93.5 -14q85 0 131.5 26t65.5 74q11 26 14.5 63t3.5 98v161q0 55 -1 89.5t-3 54.5t-5 29t-7 14q-9 10 -72 15l-4 3v23l4 3q10 -1 25 -1.5l30 -1t29 -0.5h23t35 0.5t64 2.5l3 -3v-23l-3 -3q-32 -2 -44.5 -6t-17.5 -9
q-4 -5 -7 -15t-4.5 -30.5t-2 -54.5t-0.5 -87v-154q0 -42 -1 -70t-4 -48.5t-7 -35.5t-10 -30q-12 -28 -32 -51.5t-50 -41t-70.5 -27t-94.5 -9.5q-80 0 -130 17.5t-78 46t-38 66t-10 78.5v260v89.5t-1 54t-3.5 28.5t-6.5 14q-5 5 -17 9t-44 6l-4 3v23l4 3q38 -2 68.5 -2.5
t40.5 -0.5q9 0 39.5 0.5t68.5 2.5l4 -3v-23l-4 -3q-32 -2 -44.5 -6t-17.5 -9q-4 -5 -6.5 -14t-3.5 -28.5t-1 -54v-89.5v-218z" />
    <glyph glyph-name="V" unicode="V" horiz-adv-x="682" 
d="M51 642q-6 4 -21.5 7.5t-28.5 4.5l-4 3v23l4 3q38 -2 71 -2.5t43 -0.5q9 0 39.5 0.5t68.5 2.5l4 -3v-23l-4 -3q-41 -2 -53 -6t-12 -11q0 -10 5 -27.5t13 -37.5l175 -478l129 320q40 99 55.5 151.5t15.5 68.5q0 11 -20 14.5t-52 5.5l-4 3v23l4 3q10 -1 25 -1.5l30 -1
t29 -0.5h23t35 0.5t64 2.5l3 -3v-23l-3 -3q-32 -2 -44.5 -6t-17.5 -9q-8 -9 -18 -30t-23 -50.5t-27 -65t-29 -72.5l-151 -366q-7 -16 -13.5 -33.5t-10.5 -30.5h-39q-5 16 -10.5 33t-11.5 32l-174 459q-14 36 -24.5 59.5t-18 37.5t-13 21t-9.5 9z" />
    <glyph glyph-name="W" unicode="W" horiz-adv-x="980" 
d="M268 107l129 336q23 60 45.5 118t45.5 124h21q20 -60 40 -116.5t41 -113.5l127 -350l105 390q11 42 18.5 80.5t7.5 53.5q0 21 -76 25l-4 3v23l4 3q10 -1 25 -1.5l30 -1t29 -0.5h23t35 0.5t64 2.5l3 -3v-23l-3 -3q-32 -2 -44.5 -6t-17.5 -9q-8 -9 -15 -25.5t-13.5 -36
t-12 -40.5t-10.5 -39l-67 -229q-11 -37 -20 -69t-18 -64.5t-19 -67.5l-22 -77h-39l-83 240l-118 328l-157 -404q-9 -22 -16.5 -41.5t-14.5 -38.5t-14 -39.5t-15 -44.5h-42q-4 21 -10 49.5t-12.5 57.5t-12 54.5t-8.5 39.5l-94 399q-5 20 -8.5 33t-11.5 18q-6 4 -21.5 7.5
t-28.5 4.5l-4 3v23l4 3q38 -2 71 -2.5t43 -0.5q9 0 33 0.5t62 2.5l4 -3v-23l-4 -3q-41 -2 -53 -6t-12 -15q0 -12 6 -51.5t20 -100.5z" />
    <glyph glyph-name="X" unicode="X" horiz-adv-x="669" 
d="M303 341l-83 144q-36 63 -65.5 103.5t-51.5 50.5q-5 3 -24.5 7t-36.5 6l-5 4v18l5 4l125 12q17 -11 42 -45t54 -88l84 -155q57 82 89.5 143t46.5 93q2 6 2 10q0 7 -5 10v20l4 4q11 -1 26.5 -1.5t33.5 -0.5q16 0 43 0.5t45 2.5l4 -3v-22l-3 -3q-18 -2 -34.5 -5t-25.5 -8
q-11 -6 -20 -12.5t-19 -17t-21.5 -26.5t-27.5 -40l-116 -174l149 -247q20 -33 34 -52.5t29 -30.5q14 -10 32.5 -13.5t46.5 -3.5l4 -4v-19l-4 -4q-12 0 -27 0.5t-29 0.5t-25.5 0.5t-16.5 0.5q-13 0 -27.5 -0.5t-32.5 -1.5q-11 22 -25 49t-26 47l-127 215l-24 -36
q-57 -85 -90.5 -142t-47.5 -89q-2 -6 -2 -10q0 -7 5 -10v-20l-4 -4q-11 1 -28.5 1.5t-35.5 0.5q-16 0 -43 -0.5t-45 -2.5l-4 3v22l3 3q18 2 34.5 5t25.5 8q12 6 22.5 14t22.5 21t25.5 31t30.5 42z" />
    <glyph glyph-name="Y" unicode="Y" horiz-adv-x="618" 
d="M280 281q-5 13 -32 59t-85 142q-11 18 -28 43.5t-34 49t-32.5 41.5t-23.5 22q-2 1 -9 3t-16 3.5t-18.5 3t-16.5 1.5l-4 5v17l4 5l120 14q14 -10 28 -27t39 -56q16 -26 36 -59.5t41.5 -70.5t43 -75.5t39.5 -73.5l207 354q5 -1 13 -1.5t17 -0.5q6 0 16 0.5t18 1.5l3 -4v-9
q-29 -33 -57.5 -71t-55.5 -77.5t-52 -79t-47 -75.5q-19 -30 -28 -48t-11 -25q-3 -12 -3 -27v-40v-90.5t1 -53t3.5 -28t6.5 -14.5q5 -5 17.5 -9t44.5 -6l4 -3v-22l-4 -3q-38 2 -68.5 2.5t-40.5 0.5q-9 0 -39.5 -0.5t-68.5 -2.5l-4 3v22l4 3q32 2 44 6t17 9q4 6 6.5 15
t3.5 28.5t1 53v89.5v55z" />
    <glyph glyph-name="Z" unicode="Z" horiz-adv-x="632" 
d="M12 20q121 154 233 309t224 316h-106h-33.5t-54.5 -1t-61 -2t-54 -3q-16 -2 -26 -5t-16 -11t-9 -22t-5 -37l-4 -39l-3 -3h-21l-3 3q1 23 1.5 44.5t0.5 35.5q0 28 -1 44.5t-3 30.5l3 3q93 -3 251 -3q84 0 151 0.5t102 2.5l3 -3v-22q-39 -51 -98 -129t-125 -169l-66 -90
t-64 -87t-58 -79.5t-48 -67.5h162q29 0 60.5 0.5t61 1.5t54.5 3t40 5q12 2 20 7.5t14 19t11 36.5t11 61l3 3h22l3 -3q-2 -21 -3.5 -39.5t-3 -38t-2 -42t-0.5 -50.5l-2 -3q-33 1 -73 1.5t-83 1t-87 0.5h-85q-98 0 -152 -1t-78 -2l-3 3v20z" />
    <glyph glyph-name="bracketleft" unicode="[" horiz-adv-x="392" 
d="M116 363q0 68 -0.5 131.5t-1.5 116.5t-2 93t-2 61l10 9q19 -2 35 -2h36q17 0 44 0.5t47 1.5l5 -5v-15l-5 -5q-35 -2 -60.5 -5.5t-32.5 -7.5t-11 -14.5t-6.5 -35t-3 -66.5t-0.5 -108v-368q0 -66 0.5 -107.5t3 -66t6.5 -35t11 -14.5t27.5 -6.5t65.5 -6.5l5 -5v-15l-5 -5
q-20 1 -47 1.5t-44 0.5h-37.5t-33.5 -2l-10 9q1 21 2 60.5t2 93t1.5 117t0.5 131.5v69z" />
    <glyph glyph-name="backslash" unicode="\" horiz-adv-x="477" 
d="M11 802h30l5 -3l426 -908l-3 -5h-30l-6 3l-425 908z" />
    <glyph glyph-name="bracketright" unicode="]" horiz-adv-x="392" 
d="M276 294v-131.5t1 -117t2 -93t3 -60.5l-10 -9q-16 2 -33.5 2h-37.5q-17 0 -44 -0.5t-47 -1.5l-5 5v15l5 5q45 4 65.5 6.5t27.5 6.5t11 14.5t6 35t3 66t1 107.5v368q0 66 -1 107.5t-3 66.5t-6 35.5t-11 14.5t-32.5 7.5t-60.5 5.5l-5 5v15l5 5q20 -1 47 -1.5t44 -0.5h36
t35 2l10 -9q-2 -21 -3 -61t-2 -93t-1 -116.5v-131.5v-69z" />
    <glyph glyph-name="asciicircum" unicode="^" horiz-adv-x="572" 
d="M290 696q24 -45 52.5 -96t58.5 -102.5t59 -99.5t54 -87q-13 -4 -26.5 -11t-23.5 -15q-17 36 -41 83.5t-49.5 94.5t-49 88.5t-38.5 65.5q-15 -24 -38 -65.5t-48 -88.5t-49.5 -94.5t-42.5 -83.5q-10 8 -24 15t-26 11q25 39 54 87.5t59 99.5t58.5 102t53.5 96h7z" />
    <glyph glyph-name="underscore" unicode="_" horiz-adv-x="494" 
d="M0 -123v49h494v-49h-494z" />
    <glyph glyph-name="grave" unicode="`" 
d="M247 540l-1 -6l-10 -7l-6 2l-149 151q-8 8 -8 15q0 12 13.5 21.5t24.5 9.5q6 0 12.5 -3t13.5 -14z" />
    <glyph glyph-name="a" unicode="a" horiz-adv-x="485" 
d="M330 256q-30 -7 -70 -17.5t-71 -21.5q-32 -12 -51.5 -30.5t-19.5 -56.5q0 -16 4 -32t13.5 -29.5t25.5 -22t41 -8.5q24 0 45.5 9.5t38 22t28 26t16.5 22.5v138zM393 86q0 -32 10 -47t36 -17l22 -2l3 -3v-17l-3 -3q-16 1 -31 2t-33 1t-36.5 -1t-27.5 -2l-6 6q3 37 3 75
q-14 -14 -37 -33t-46 -36q-17 -12 -32.5 -16.5t-35.5 -4.5q-35 0 -60 11t-41 29.5t-23.5 42.5t-7.5 51t8 46t21.5 32.5t32.5 22.5t41 15q43 13 92 23.5t88 18.5v19q0 64 -27 90.5t-85 26.5q-30 0 -53.5 -9t-32.5 -32l-18 -48l-3 -1l-19 5l-3 3l-2 63l3 4q12 10 29.5 20.5
t39 19t45.5 14t48 5.5q15 0 32.5 -3t35 -10t33 -20t25.5 -32q10 -21 13.5 -42.5t3.5 -56.5q0 -26 -1 -56t-1 -63v-91z" />
    <glyph glyph-name="b" unicode="b" horiz-adv-x="565" 
d="M166 161v-24.5t0.5 -27t1.5 -24.5t3 -16q19 -20 47.5 -28t63.5 -8q42 0 72.5 17t50.5 44t29.5 62t9.5 71q0 29 -7 61t-24 58.5t-44.5 43.5t-67.5 17q-31 0 -60.5 -14t-50.5 -36q-17 -17 -20.5 -32t-3.5 -47v-117zM102 590q0 22 -0.5 36t-5.5 19q-4 5 -9 7t-16 3l-41 2
l-3 3v17l3 3q10 1 26.5 5t34.5 9t36.5 11.5t32.5 12.5l11 -7q-2 -18 -3.5 -69t-1.5 -154v-120h2q12 15 31 34t34 31q14 11 41 19t56 8q46 0 80.5 -16.5t57 -44.5t33.5 -64t11 -75q0 -47 -10 -80.5t-26 -58t-35.5 -42t-37.5 -31.5q-24 -18 -42.5 -29.5t-35.5 -18.5t-35 -9.5
t-41 -2.5q-30 0 -53 6t-42 15l-46 -21l-15 9q3 13 5 43t2.5 67t1 77t0.5 74v332z" />
    <glyph glyph-name="c" unicode="c" horiz-adv-x="430" 
d="M379 25q-19 -13 -50.5 -25t-86.5 -12q-36 0 -71.5 12.5t-64 39.5t-46 70.5t-17.5 105.5q0 43 7.5 77t25.5 60q12 18 33.5 36.5t49 34.5t59.5 26t64 10q38 0 61.5 -7.5t46.5 -18.5l3 -5q-8 -32 -11 -63t-4 -55l-3 -3h-18l-3 3q0 3 -0.5 12t-1.5 19.5t-3 20t-5 14.5
q-2 4 -10 10.5t-21 13.5t-30 12t-36 5q-26 0 -50.5 -7t-43.5 -26.5t-30.5 -53.5t-11.5 -88q0 -36 9.5 -73.5t29.5 -67.5t52 -49.5t76 -19.5q42 0 68 9t45 20l6 -8z" />
    <glyph glyph-name="d" unicode="d" horiz-adv-x="560" 
d="M397 68q-27 -17 -51 -32.5t-54 -37.5q-5 -3 -19 -6.5t-28 -3.5q-53 0 -89.5 20t-59.5 53t-33 75.5t-10 86.5q0 42 10 71t22 46q10 16 30.5 37t48.5 39.5t61.5 31t69.5 12.5q25 0 55 -6t47 -17v153q0 22 -0.5 36t-5.5 19q-4 5 -9 7t-16 3l-41 2l-3 3v17l3 3q10 1 26.5 5
t34.5 9t36.5 11.5t32.5 12.5l11 -7q-2 -18 -3.5 -69t-1.5 -154v-372q0 -32 1 -50.5t7.5 -28t20 -13t38.5 -4.5l3 -3v-17l-3 -3q-16 1 -31 2t-33 1t-36.5 -1t-27.5 -2l-6 6q2 19 2.5 32.5t0.5 32.5zM397 311q0 6 -0.5 17t-1.5 22t-1.5 19.5t-1.5 10.5q-16 17 -49.5 30.5
t-68.5 13.5q-72 0 -112.5 -50.5t-40.5 -144.5q0 -32 8 -66t26 -62.5t46.5 -46.5t69.5 -18q22 0 43 7t37.5 18.5t28.5 25t17 27.5v197z" />
    <glyph glyph-name="e" unicode="e" horiz-adv-x="495" 
d="M259 424q-41 0 -66.5 -15.5t-40 -38.5t-20 -51t-7.5 -52h64t64 1t59 2t50 3q5 1 7 4.5t2 17.5q0 54 -28 91.5t-84 37.5zM254 -12q-40 0 -76.5 13.5t-64 42t-44 72.5t-16.5 104q0 16 2.5 37t7.5 42t13.5 40.5t19.5 31.5q7 9 24.5 24t41.5 29.5t54 25t63 10.5
q35 0 65.5 -10t53 -31.5t35 -55.5t12.5 -82v-14.5t-2 -11.5l-5 -5q-10 -2 -39 -4t-71 -4t-94 -3.5t-109 -1.5q0 -45 10.5 -82.5t31.5 -64.5t51.5 -42t71.5 -15q42 0 74 11t61 28l6 -8l-18 -29q-23 -18 -62.5 -32.5t-96.5 -14.5z" />
    <glyph glyph-name="f" unicode="f" horiz-adv-x="307" 
d="M167 441h54q23 0 43 0.5t38 1.5l5 -6l-15 -30l-4 -5h-121v-223q0 -72 2 -105t7 -39q5 -5 21 -8.5t51 -6.5l3 -3v-17l-3 -2q-25 2 -57 2h-60h-52.5t-46.5 -2l-3 2v17l3 3q21 2 33 4t18.5 4t8.5 5t4 8t3.5 14t2 25t1 40t0.5 59v223h-81l-3 3v16l3 3l81 17v8q0 60 14 101
t48 79q22 25 39.5 42.5t33.5 29t31 17t32 5.5q34 0 43 -10l5 -8l-19 -55l-10 -4q-14 10 -25.5 15t-29.5 5q-13 0 -28.5 -5t-24.5 -12q-23 -17 -34 -44.5t-11 -82.5v-81z" />
    <glyph glyph-name="g" unicode="g" horiz-adv-x="522" 
d="M148 -2q-29 6 -45.5 25.5t-16.5 42.5q0 12 5 26t12 22l69 41q-15 2 -34 10.5t-35.5 25t-27.5 41.5t-11 60q0 30 7.5 54t25.5 44q29 32 76.5 51t101.5 19q29 0 52.5 -6t46.5 -17h16q17 0 37 0.5t38.5 1.5t34 2.5t24.5 3.5l4 -7l-16 -36h-109q13 -17 18.5 -40.5t5.5 -50.5
q0 -31 -14.5 -60t-40.5 -51.5t-64 -36t-84 -13.5h-17q-9 -4 -19 -9t-18.5 -11t-14 -14t-5.5 -19q0 -30 21 -39.5t53 -9.5q33 0 66.5 1.5t56.5 1.5q20 0 45 -4t46.5 -16.5t36.5 -35.5t15 -61q0 -47 -21.5 -85t-57.5 -64.5t-83 -41t-99 -14.5q-35 0 -69 9t-61 27t-43.5 45
t-16.5 63q0 22 4.5 42.5t18.5 32.5zM104 -121q0 -33 13 -56t33.5 -37.5t46 -21t51.5 -6.5q36 0 68 9t56 26.5t38.5 43.5t14.5 59q0 36 -14 56.5t-38 30t-55.5 11.5t-65.5 2q-20 0 -41.5 -0.5t-31.5 -1.5q-75 -33 -75 -115zM133 303q0 -25 6.5 -47.5t20.5 -39t35.5 -26.5
t51.5 -10q20 0 39.5 7.5t34.5 22.5t24.5 38.5t9.5 56.5q0 67 -28.5 94.5t-80.5 27.5q-58 0 -85.5 -35t-27.5 -89z" />
    <glyph glyph-name="h" unicode="h" horiz-adv-x="589" 
d="M174 179q0 -72 2 -105t7 -39q5 -5 18 -8.5t48 -6.5l3 -3v-17l-3 -2q-25 2 -54 2h-57h-52.5t-46.5 -2l-3 2v17l3 3q21 2 33 4t18.5 4t8.5 5t4 8t3.5 14t2 25t1 40t0.5 59v411q0 22 -0.5 36t-5.5 19q-4 5 -9 7t-16 3l-41 2l-3 3v17l3 3q10 1 26 5t34.5 9t36.5 11.5t33 12.5
l11 -7q-2 -18 -3.5 -69t-1.5 -154v-113q8 6 20 15.5t24 20t22.5 20.5t15.5 16q14 6 30.5 9.5t46.5 3.5q46 0 75.5 -15t46.5 -39t23.5 -52.5t6.5 -55.5v-222q0 -32 9 -41.5t41 -12.5l22 -2l3 -3v-17l-3 -3q-8 1 -20.5 1.5t-26 1t-26.5 0.5h-22q-11 0 -25 -0.5t-28 -2.5
q-2 0 -4 4.5t-2 6.5q6 18 11 36q4 35 5.5 79t1.5 89v17q0 38 -3.5 71t-16.5 57t-37.5 38t-67.5 14q-24 0 -44.5 -8.5t-35.5 -20t-24.5 -22t-10.5 -13.5q-3 -6 -5 -29.5t-2 -75.5v-61z" />
    <glyph glyph-name="i" unicode="i" horiz-adv-x="282" 
d="M94 621q0 20 14 34t34 14t34.5 -14t14.5 -34t-14.5 -34.5t-34.5 -14.5t-34 14.5t-14 34.5zM175 179q0 -72 3 -105t8 -39q5 -5 17 -8.5t47 -6.5l3 -3v-17l-3 -2q-25 2 -54 2h-57h-52.5t-46.5 -2l-3 2v17l3 3q21 2 33 4t18.5 4t8.5 5t4 8t3.5 14t2 25t1 40t0.5 59v156
q0 22 -0.5 36t-5.5 19q-4 5 -9 7t-16 3l-41 2l-3 3v16l3 3q10 1 26 5t34.5 9t36.5 11.5t33 12.5l8 -6q-1 -9 -1.5 -26t-0.5 -35v-34.5v-25.5v-156z" />
    <glyph glyph-name="j" unicode="j" horiz-adv-x="280" 
d="M116 335q0 22 -0.5 36t-5.5 19q-4 5 -9 7t-16 3l-41 2l-3 3v16l3 3q10 1 26 5t34.5 9t36.5 11.5t33 12.5l8 -6q-1 -9 -1.5 -26t-0.5 -35v-34.5v-25.5v-301q0 -48 -5 -100.5t-24 -97t-57.5 -76t-105.5 -38.5l-10 -1l-9 18l4 6q51 5 79.5 37t43 77t17.5 94.5t3 89.5v292z
M99 621q0 20 14 34t34 14t34.5 -14t14.5 -34t-14.5 -34.5t-34.5 -14.5t-34 14.5t-14 34.5z" />
    <glyph glyph-name="k" unicode="k" horiz-adv-x="531" 
d="M174 266q20 14 47.5 35.5t53.5 44t46 42.5t26 31q2 7 2.5 12t0.5 7l3 3h64q3 0 11 0.5t18 0.5t20.5 0.5t18.5 0.5l4 -4v-15l-3 -5q-20 -1 -36.5 -3t-23.5 -4q-21 -6 -62.5 -34t-92.5 -73l-36 -31q48 -54 97 -104t87 -86q20 -19 32.5 -28.5t25.5 -11.5q8 -2 25 -2h23l3 -3
v-16q-14 -3 -30 -6.5t-31 -7.5t-27.5 -7.5t-21.5 -6.5h-10q-20 22 -46.5 51t-57.5 62t-64 68t-66 69v-66q0 -72 2 -105t7 -39q5 -5 18 -8.5t48 -6.5l3 -3v-17l-3 -2q-25 2 -54 2h-57h-52.5t-46.5 -2l-3 2v17l3 3q21 2 33 4t18.5 4t8.5 5t4 8t3.5 14t2 25t1 40t0.5 59v411
q0 22 -0.5 36t-5.5 19q-4 5 -9 7t-16 3l-41 2l-3 3v17l3 3q10 1 26 5t34.5 9t36.5 11.5t33 12.5l11 -7q-2 -18 -3.5 -69t-1.5 -154v-222z" />
    <glyph glyph-name="l" unicode="l" horiz-adv-x="281" 
d="M174 179q0 -72 2 -105t7 -39q5 -5 18 -8.5t48 -6.5l3 -3v-17l-3 -2q-25 2 -54 2h-57h-52.5t-46.5 -2l-3 2v17l3 3q21 2 33 4t18.5 4t8.5 5t4 8t3.5 14t2 25t1 40t0.5 59v411q0 22 -0.5 36t-5.5 19q-4 5 -9 7t-16 3l-41 2l-3 3v17l3 3q10 1 26 5t34.5 9t36.5 11.5t33 12.5
l11 -7q-2 -18 -3.5 -69t-1.5 -154v-309z" />
    <glyph glyph-name="m" unicode="m" horiz-adv-x="864" 
d="M403 249q0 37 -2.5 67t-13.5 50.5t-33 31.5t-61 11q-24 0 -44 -8.5t-34.5 -20t-23.5 -22t-10 -13.5q-3 -6 -5 -29.5t-2 -75.5v-61q0 -72 2 -105t7 -39q5 -5 18 -8.5t48 -6.5l3 -3v-17l-3 -2q-28 2 -55.5 2h-55.5h-52.5t-46.5 -2l-3 2v17l3 3q21 2 33 4t18.5 4t8.5 5t4 8
t3.5 14t2 25t1 40t0.5 59v156q0 22 -0.5 36t-5.5 19q-4 5 -9 7t-16 3l-41 2l-3 3v16l3 3q10 1 26 5t34.5 9t36.5 11.5t33 12.5l8 -6q-2 -18 -2 -33v-32v-16q8 6 20 15.5t24 20t22.5 20.5t15.5 16q14 6 29 9.5t45 3.5q57 0 85.5 -24t39.5 -66q8 6 19.5 16.5t23 22t21.5 22
t15 16.5q14 6 30.5 9.5t46.5 3.5q46 0 75 -15t45.5 -39t22.5 -52.5t6 -55.5v-222q0 -32 9 -41.5t41 -12.5l22 -2l3 -3v-17l-3 -3q-8 0 -20.5 0.5t-26 1t-26.5 1t-22 0.5q-11 0 -25 -0.5t-28 -2.5q-2 0 -4 4.5t-2 6.5q3 7 6 17t5 19q4 35 5.5 79t1.5 89v17q0 38 -3 71t-15 57
t-36.5 38t-67.5 14q-24 0 -42 -8.5t-30.5 -20t-19.5 -22t-8 -13.5q-3 -6 -5 -29.5t-2 -75.5v-61q0 -72 2 -105t7 -39q5 -5 18 -8.5t48 -6.5l3 -3v-17l-3 -2q-25 2 -54 2h-57h-52.5t-46.5 -2l-3 2v17l3 3q21 2 33 4t18.5 4t8.5 5t4 8t3.5 14t2 25t1 40t0.5 59v70z" />
    <glyph glyph-name="n" unicode="n" horiz-adv-x="589" 
d="M174 179q0 -72 2 -105t7 -39q5 -5 18 -8.5t48 -6.5l3 -3v-17l-3 -2q-25 2 -54 2h-57h-52.5t-46.5 -2l-3 2v17l3 3q21 2 33 4t18.5 4t8.5 5t4 8t3.5 14t2 25t1 40t0.5 59v156q0 22 -0.5 36t-5.5 19q-4 5 -9 7t-16 3l-41 2l-3 3v16l3 3q10 1 26 5t34.5 9t36.5 11.5t33 12.5
l8 -6q-2 -18 -2 -33v-32v-16q8 6 20 15.5t24 19.5t22.5 19.5t15.5 15.5q14 6 30.5 10.5t46.5 4.5q46 0 75.5 -15t46.5 -39t23.5 -52.5t6.5 -55.5v-222q0 -32 9 -41.5t41 -12.5l22 -2l3 -3v-17l-3 -3q-8 0 -20.5 0.5t-26 1t-26.5 1t-22 0.5q-11 0 -25 -0.5t-28 -2.5
q-2 0 -4 4.5t-2 6.5q3 7 6 17t5 19q4 35 5.5 79t1.5 89v17q0 38 -3.5 71t-16.5 57t-37.5 38t-67.5 14q-24 0 -44.5 -8.5t-35.5 -20t-24.5 -22t-10.5 -13.5q-3 -6 -5 -29.5t-2 -75.5v-61z" />
    <glyph glyph-name="o" unicode="o" horiz-adv-x="560" 
d="M53 216q0 52 15 97t44.5 77.5t72.5 51t100 18.5q63 0 105.5 -17t68.5 -48t37 -74t11 -94q0 -53 -19 -97t-50.5 -75.5t-72.5 -49t-86 -17.5q-68 0 -111.5 21.5t-69 54.5t-35.5 73.5t-10 78.5zM279 18q30 0 58 9t49.5 32t34 61.5t12.5 97.5q0 40 -7.5 78.5t-26 68t-49 47.5
t-76.5 18q-66 0 -106 -51.5t-40 -139.5q0 -105 39.5 -163t111.5 -58z" />
    <glyph glyph-name="p" unicode="p" horiz-adv-x="571" 
d="M172 161v-24.5t0.5 -27t1.5 -24.5t3 -16q19 -20 47.5 -28t63.5 -8q42 0 72.5 17t50.5 44t29.5 62t9.5 71q0 29 -7.5 61t-24.5 58.5t-45 44t-68 17.5q-22 0 -41 -7t-33 -16t-23 -17t-12 -11q-17 -17 -20.5 -32t-3.5 -47v-117zM108 335q0 21 -0.5 35.5t-5.5 19.5q-4 5 -9 7
t-16 3l-41 2l-3 3v16l3 3q10 1 26.5 5t34.5 9t36.5 11.5t32.5 12.5l6 -6v-89h3q14 15 32 34.5t33 31.5q14 11 40.5 19t55.5 8q46 0 80.5 -16.5t57 -44.5t33.5 -64t11 -75q0 -47 -10 -80.5t-26 -58t-35.5 -42t-37.5 -31.5q-24 -18 -42 -29.5t-35.5 -18t-35.5 -9.5t-40 -3
q-45 0 -84 19v-92q0 -72 1 -105t6 -39q4 -5 14.5 -8.5t45.5 -6.5l3 -3v-17l-3 -2q-25 1 -50 1.5t-53 0.5q-29 0 -52.5 -0.5t-46.5 -1.5l-3 2v17l3 3q21 2 33 4t18.5 4t8.5 5t4 8t3.5 14t2 25t1 40t0.5 59v420z" />
    <glyph glyph-name="q" unicode="q" horiz-adv-x="560" 
d="M399 331q0 14 -1 26.5t-4 22.5q-6 6 -18.5 13.5t-29 14t-35 11t-35.5 4.5q-72 0 -113.5 -50t-41.5 -144q0 -32 8.5 -66t27 -61.5t47 -45.5t69.5 -18q22 0 43 7.5t37.5 18.5t28.5 23t17 22v222zM399 67q-5 -3 -16.5 -10t-26 -16.5t-31 -20.5t-31.5 -22q-5 -3 -19 -6.5
t-28 -3.5q-53 0 -90 19.5t-60 51.5t-33.5 74t-10.5 86q0 22 4 42.5t9.5 37t11 27.5t9.5 16q10 16 30.5 36.5t48.5 38.5t61.5 30.5t69.5 12.5q16 0 30.5 -1t29.5 -4.5t32.5 -9.5t38.5 -16l35 40l10 -4q-5 -33 -7.5 -91t-2.5 -131v-328q0 -72 1 -105t6 -39q4 -5 14.5 -8.5
t45.5 -6.5l3 -3v-17l-3 -2q-25 1 -50 1.5t-53 0.5q-29 0 -52.5 -0.5t-46.5 -1.5l-3 2v17l3 3q21 2 33 4t18.5 4t8.5 5t4 8t3.5 14t2 25t1 40t0.5 59v152z" />
    <glyph glyph-name="r" unicode="r" horiz-adv-x="369" 
d="M243 430q16 17 35 23.5t43 6.5q11 0 20.5 -2.5t14.5 -5.5l3 -7q-4 -20 -6 -35t-2 -38l-3 -3h-14l-3 2q-2 17 -11 24t-35 7q-19 0 -35.5 -7.5t-30 -19t-23 -26t-14.5 -28.5q-2 -6 -5.5 -24.5t-3.5 -48.5v-69q1 -72 3 -105t7 -39q9 -9 81 -15l3 -3v-17l-3 -2q-25 2 -61.5 2
h-64.5h-52.5t-46.5 -2l-3 2v17l3 3q21 2 33 4t18.5 4t8.5 5t4 8t3.5 14t2 25t1 40t0.5 59v156q0 22 -0.5 36t-5.5 19q-4 5 -9 7t-16 3l-41 2l-3 3v16l3 3q10 1 26 5t34.5 9t36.5 11.5t33 12.5l8 -6q-2 -18 -2 -33v-32v-33q20 20 34.5 35t34.5 37z" />
    <glyph glyph-name="s" unicode="s" horiz-adv-x="420" 
d="M63 122h18l3 -4q1 -20 3 -32.5t4 -18.5q5 -14 15.5 -23.5t25 -15.5t31 -8.5t32.5 -2.5q54 0 81 25.5t27 67.5q0 37 -27 55t-90 33q-63 16 -92.5 43.5t-29.5 81.5q0 32 13.5 57.5t36 43t52.5 27t62 9.5q24 0 56 -3.5t53 -11.5l4 -6q-2 -10 -3 -28.5t-2 -60.5l-3 -3h-15
l-4 3q0 12 -4 26.5t-13 26.5q-8 11 -27.5 20t-47.5 9q-18 0 -35.5 -5t-31 -15t-21.5 -25.5t-8 -37.5q0 -23 7 -37.5t19 -24t28.5 -15t36.5 -9.5q36 -8 63 -18t46 -24t28.5 -34t9.5 -48q0 -34 -11.5 -58t-36.5 -47q-26 -23 -63 -34.5t-74 -11.5q-33 0 -66.5 4.5t-60.5 11.5
l-3 6q2 10 4 24.5t3.5 29.5t2.5 29.5t1 24.5z" />
    <glyph glyph-name="t" unicode="t" horiz-adv-x="321" 
d="M100 402h-78l-3 3v16l3 3l78 17q0 69 -0.5 108.5t-2.5 50.5q25 9 40.5 18.5t28.5 18.5l10 -10q-1 -7 -3 -29t-3.5 -50t-2.5 -57t-1 -50h54q23 0 43 0.5t38 1.5l5 -6l-15 -30l-4 -5h-121l-2 -215q0 -42 3.5 -71t13.5 -46.5t27 -25t43 -7.5q15 0 25 1.5t25 5.5l2 -2l2 -13
q-15 -6 -31 -15t-25 -15q-16 -5 -28 -6t-24 -1q-36 0 -55.5 9.5t-29 26.5t-11 40t-1.5 49v285z" />
    <glyph glyph-name="u" unicode="u" horiz-adv-x="577" 
d="M107 315q0 30 -2.5 50t-7.5 25q-9 9 -30 10l-37 2l-3 3v19l3 3q12 1 29 5t36 9t37.5 11.5t32.5 12.5l9 -6q-2 -14 -2.5 -45t-0.5 -76v-129q0 -38 4 -68t15 -51t30.5 -32.5t51.5 -11.5q35 0 64.5 15.5t52.5 41.5q7 8 13.5 24.5t6.5 58.5v149q0 21 -0.5 35.5t-5.5 19.5
q-4 5 -9 7t-16 3l-45 2l-3 3v19l3 3q12 1 29 5t35.5 9t37 11.5t32.5 12.5l9 -6q-2 -14 -2.5 -45t-0.5 -76v-253q0 -32 7 -46.5t33 -16.5l22 -2l3 -3v-17l-3 -3q-26 2 -42.5 2.5t-30.5 0.5h-29.5t-22.5 -1l-3 3q2 22 2 43v43l-85 -76q-14 -12 -35.5 -16.5t-49.5 -4.5
q-40 0 -65.5 13.5t-40.5 34.5t-20.5 46t-5.5 48v182z" />
    <glyph glyph-name="v" unicode="v" horiz-adv-x="501" 
d="M120 273q-22 54 -36 84t-25 44q-8 10 -14 13.5t-14 4.5l-29 2l-3 3v17l3 3q23 -1 44 -2t44 -1q59 0 119 3l3 -3v-17l-3 -3l-31 -2q-14 -1 -22 -4.5t-8 -12.5q0 -15 47 -133l76 -190l99 224q13 29 22 55.5t9 40.5q0 9 -6 13.5t-26 6.5l-27 2l-3 3v17l3 3q20 -1 38.5 -2
t38.5 -1q45 0 90 3l3 -3v-17l-3 -3l-18 -2q-9 -2 -16 -5t-16 -14q-8 -11 -18.5 -30t-26.5 -53l-80 -171l-24.5 -52.5t-18 -40.5t-13.5 -32.5t-12 -29.5h-34q-5 20 -21 60.5t-37 88.5z" />
    <glyph glyph-name="w" unicode="w" horiz-adv-x="769" 
d="M229 79l149 350l5 14h27q26 -90 60 -178t76 -188q14 37 28.5 76t28 75t24.5 68t18 56q8 32 8 41q0 16 -13.5 21t-29.5 6l-26 1l-3 3v17l3 3q23 -1 43 -2t42 -1q44 0 92 3l3 -3v-17l-3 -3l-15 -2q-16 -2 -25 -6.5t-17 -15.5q-7 -9 -13.5 -23.5t-14.5 -36.5
q-14 -35 -24 -61t-19 -49.5t-17.5 -46t-18.5 -49.5t-23 -61t-30 -79h-40q-14 40 -33 93.5t-38 105t-35 94t-24 60.5q-20 -45 -34.5 -78t-25.5 -59.5t-20 -48.5t-18.5 -46.5t-20.5 -53t-26 -67.5h-41q-8 29 -19.5 68.5t-24.5 82t-25.5 84.5t-23.5 77q-11 34 -18 53.5
t-15 35.5q-8 15 -17 20t-22 7l-21 2l-3 3v17l3 3q45 -3 90 -3q29 0 56.5 1t56.5 2l3 -3v-17l-3 -3l-17 -1q-28 -2 -37.5 -7t-9.5 -17q0 -11 5.5 -32.5t10.5 -36.5z" />
    <glyph glyph-name="x" unicode="x" horiz-adv-x="503" 
d="M69 0h-22t-38 -2l-4 4v14l4 4q9 1 24.5 3t23.5 5q21 11 39.5 30.5t47.5 57.5l75 100l-54 81q-5 7 -14.5 20.5t-20 28t-21 28t-17.5 21.5q-16 16 -29.5 19.5t-36.5 3.5l-4 4v15l4 4q25 1 49.5 1.5t63.5 5.5q12 -16 29 -42t49 -74l43 -64l30 39q26 34 43.5 64t24.5 47
q2 7 2 12v9l5 4q11 -2 21 -2h15q27 0 62 3l4 -4v-15l-4 -4q-35 0 -55 -17q-16 -12 -36 -37.5t-45 -57.5l-50 -65l57 -81q39 -57 63.5 -87t46.5 -39q8 -4 46 -4l4 -4v-14l-4 -4q-26 -2 -58 -7t-53 -10h-10q-19 30 -38 58.5t-36 53.5l-60 85q-11 -13 -26 -34t-31 -44.5
t-31 -47t-25 -41.5l3 -24l-5 -2q-14 1 -27 1.5t-24 0.5z" />
    <glyph glyph-name="y" unicode="y" horiz-adv-x="503" 
d="M227 -113q-17 -39 -35.5 -71.5t-40 -56t-46 -36.5t-53.5 -13q-9 0 -20 1t-22 4l-4 5q-4 11 -7.5 29t-5.5 32l10 4q11 -6 27 -8.5t32 -2.5q55 0 94.5 52t81.5 157q-7 22 -20 56t-29 72t-33 77.5t-31.5 72.5t-25 56.5t-13.5 30.5q-11 23 -18.5 36t-15.5 21t-15.5 10
t-16.5 4l-17 2l-3 3v17l3 3q22 -1 43.5 -2t43.5 -1q32 0 62 1t61 2l3 -3v-17l-3 -3l-25 -2q-17 -2 -29 -5.5t-12 -15.5q0 -6 5 -21t12.5 -35t17 -42.5t18.5 -42.5l77 -179l28 63q6 13 16 37t21.5 52.5t23 58t20.5 53.5q14 39 14 51q0 14 -7.5 19t-30.5 7l-21 2l-3 3v17l3 3
q20 -1 39.5 -2t39.5 -1q23 0 45 1t45 2l3 -3v-17l-3 -3l-15 -2q-10 -2 -18 -5t-17 -14q-7 -9 -15.5 -24.5t-20 -39.5t-27 -58.5t-36.5 -82.5z" />
    <glyph glyph-name="z" unicode="z" horiz-adv-x="472" 
d="M25 21q10 11 38.5 45t69.5 85.5t91 118t104 142.5h-71q-45 0 -71.5 -0.5t-41.5 -1.5t-21 -3.5t-9 -5.5q-11 -11 -17 -33t-9 -51l-3 -3h-21l-3 3q1 10 2 23t2 25.5t1.5 23.5t0.5 18v18t-1 14l7 5q45 -2 105.5 -2.5t133.5 -0.5q29 0 56.5 1t50.5 2l3 -3v-15
q-13 -14 -36.5 -42.5t-52 -65t-60 -77.5t-61 -80.5t-54.5 -73.5t-41 -57q31 0 64 0.5t64 1.5t56.5 2.5t41.5 3.5q13 2 22.5 5.5t17.5 12.5q8 10 14 27.5t11 48.5l3 3h18l3 -3q-2 -12 -3.5 -23t-3 -25.5t-2.5 -34.5t-2 -49l-3 -3q-75 2 -147 2.5t-147 0.5h-50.5t-44.5 -2
l-4 3v20z" />
    <glyph glyph-name="braceleft" unicode="{" horiz-adv-x="392" 
d="M65 338q24 0 39 9.5t23.5 25t11.5 35.5t3 42v178q0 21 2.5 42t9.5 39t19.5 32t32.5 22q28 12 88 12v-13q-42 0 -68.5 -27.5t-26.5 -90.5v-151q0 -52 -18.5 -95t-60.5 -67q42 -24 60.5 -67t18.5 -95v-156q0 -63 26.5 -90.5t68.5 -27.5v-13q-60 0 -88 12q-20 8 -32.5 22
t-19.5 32t-9.5 39t-2.5 42v183q0 22 -3 42t-11.5 35.5t-23.5 25t-39 9.5v14z" />
    <glyph glyph-name="bar" unicode="|" horiz-adv-x="500" 
d="M232 -84v836h37v-836h-37z" />
    <glyph glyph-name="braceright" unicode="}" horiz-adv-x="392" 
d="M327 324q-24 0 -39 -9.5t-23.5 -25t-11.5 -35.5t-3 -42v-183q0 -21 -2.5 -42t-9.5 -39t-19.5 -32t-32.5 -22q-29 -12 -88 -12v13q42 0 68.5 27.5t26.5 90.5v156q0 52 18.5 95t60.5 67q-42 24 -60.5 67t-18.5 95v151q0 63 -26.5 90.5t-68.5 27.5v13q59 0 88 -12
q20 -8 32.5 -22t19.5 -32t9.5 -39t2.5 -42v-178q0 -22 3 -42t11.5 -35.5t23.5 -25t39 -9.5v-14z" />
    <glyph glyph-name="asciitilde" unicode="~" horiz-adv-x="582" 
d="M527 280q-12 -45 -40 -77t-82 -32q-25 0 -55.5 9.5t-68.5 27.5q-39 19 -62 27.5t-46 8.5q-32 0 -50 -22t-30 -57l-38 13q6 23 15 43.5t24 35.5t36.5 24t51.5 9q25 0 53.5 -10t70.5 -29q32 -15 58.5 -24.5t49.5 -9.5q33 0 49 20t30 58z" />
    <glyph glyph-name="uni00A0" unicode="&#xa0;" horiz-adv-x="230" 
 />
    <glyph glyph-name="exclamdown" unicode="&#xa1;" horiz-adv-x="302" 
d="M112 -223v51q0 41 2 97t5 114.5t7 114.5t8 98l27 25l9 -5q0 -54 1.5 -112.5t4 -117t6 -115t8.5 -106.5l-3 -8q-17 -10 -31 -19t-27 -17h-17zM102 423q0 22 14.5 37t36.5 15q23 0 37.5 -15t14.5 -37q0 -23 -16 -37t-36 -14t-35.5 14t-15.5 37z" />
    <glyph glyph-name="cent" unicode="&#xa2;" horiz-adv-x="570" 
d="M480 52l-17 -27q-27 -15 -60 -23.5t-65 -10.5v-5q0 -11 0.5 -25t0.5 -29t0.5 -28.5t0.5 -21.5l-4 -4h-29l-5 4q2 23 2 47v45v17q-51 3 -90 21t-65 48t-39.5 70t-13.5 87q0 72 21.5 114.5t47.5 62.5q10 6 25 15.5t37 21.5q23 12 41.5 19t35.5 12v27q0 8 -0.5 19t-0.5 22.5
t-0.5 21.5t-0.5 16l5 4h27l5 -4v-14t-0.5 -20t-0.5 -22.5v-20.5v-23h14q38 0 74.5 -6.5t61.5 -20.5q-5 -26 -8.5 -50.5t-5.5 -58.5l-5 -4h-17l-4 4q-1 20 -2 37t-4 25q-6 15 -36 27t-68 13v-408h13q35 0 64 9.5t59 24.5zM169 259q0 -38 5.5 -74.5t20.5 -67t41.5 -54
t67.5 -34.5v403q-58 -5 -96 -50t-39 -123z" />
    <glyph glyph-name="sterling" unicode="&#xa3;" horiz-adv-x="618" 
d="M171 322q-34 0 -58.5 -1t-38.5 -3l-5 6l7 28l4 4q16 -1 39.5 -1.5t52.5 -0.5v76q0 52 13 92.5t35 61.5q22 22 47 42t51.5 35t53 24t52.5 9q63 0 98 -24l3 -9q-4 -20 -7 -50.5t-4 -68.5l-4 -4h-16l-5 4v7t-1 15q-3 52 -29.5 70.5t-66.5 18.5q-55 0 -91 -36t-46 -90
q-5 -29 -8.5 -72t-8.5 -101h59q36 0 67 0.5t57 1.5l3 -2l-8 -30l-5 -4q-36 1 -67.5 1.5t-58.5 0.5h-49q-2 -38 -8.5 -75.5t-19 -72t-32.5 -64.5t-49 -53q28 3 71 3q38 0 77.5 -2t68.5 -5q18 -2 39.5 -3t41.5 -1q24 0 43.5 2.5t26.5 8.5q11 8 20.5 27t15.5 40l5 3l21 -3l2 -5
q-9 -26 -20 -61t-16 -68q-5 -3 -15.5 -4.5t-24 -3t-28 -2t-27.5 -0.5q-12 0 -31 1.5t-41 4.5t-46.5 7t-48.5 8q-54 9 -100 9q-38 0 -69.5 -6.5t-56.5 -21.5l-8 3l6 29q44 19 71 46.5t42 61.5t20 74.5t5 86.5v36z" />
    <glyph glyph-name="currency" unicode="&#xa4;" horiz-adv-x="542" 
d="M64 256q0 40 15 77t43 66l-87 100l37 23l76 -96q55 40 127 40q66 0 120 -37l75 94l37 -24l-82 -95q28 -30 44.5 -69t16.5 -79q0 -42 -17.5 -81.5t-47.5 -69.5l87 -97l-36 -22l-81 94q-26 -17 -55.5 -26.5t-60.5 -9.5q-70 0 -124 39l-81 -97l-36 21l90 102
q-29 29 -44.5 67t-15.5 80zM105 256q0 -35 13.5 -66.5t36.5 -54.5t54 -36.5t66 -13.5t66 13.5t54 36.5t36.5 54.5t13.5 66.5q0 34 -13.5 65t-36.5 54t-54 36.5t-66 13.5t-66 -13.5t-54 -36.5t-36.5 -54t-13.5 -65z" />
    <glyph glyph-name="yen" unicode="&#xa5;" horiz-adv-x="610" 
d="M326 372q45 76 92.5 158t93.5 157q8 -1 18 -1.5t18 -0.5q5 0 9.5 0.5t12.5 1.5l3 -4v-9q-59 -79 -116 -163t-104 -159h146l4 -4v-22l-4 -4h-156v-75h159l4 -4v-22l-4 -4h-159q0 -46 0.5 -77.5t1.5 -51.5t3.5 -31.5t6.5 -16.5q5 -5 20 -9t47 -6l4 -3v-23l-4 -3
q-38 2 -66.5 3t-37.5 1h-18t-30 -0.5t-37 -1.5t-39 -2l-4 3v23l4 3q32 2 46.5 6t19.5 9q4 5 6 16t3.5 31.5t2 52t0.5 77.5h-142l-4 4v22l4 4h142v75h-142l-4 4v22l4 4h132q-9 23 -23.5 52.5t-31.5 61t-35.5 62.5t-35 56t-30 42t-20.5 21q-3 2 -16 4t-30 4l-4 5v14l4 5
l115 14q12 -11 32.5 -45t44.5 -79.5t48.5 -97.5t45.5 -99z" />
    <glyph glyph-name="brokenbar" unicode="&#xa6;" horiz-adv-x="500" 
d="M232 409v343h36v-343h-36zM232 -84v351h36v-351h-36z" />
    <glyph glyph-name="section" unicode="&#xa7;" horiz-adv-x="504" 
d="M60 -42q5 25 7 56.5t3 69.5l4 4h17l5 -4q1 -16 2.5 -39t4.5 -44q13 -16 29.5 -25.5t34 -14.5t34.5 -6.5t31 -1.5q28 0 54.5 5.5t47.5 19t33.5 37t12.5 58.5q0 31 -16 50t-47 33q-35 17 -106 39q-35 12 -56.5 20t-39.5 19q-35 20 -46 48.5t-11 54.5q0 20 7 37t18.5 31.5
t25.5 27t28 23.5q-51 37 -51 92q0 33 14 57.5t42 57.5q57 66 150 66q62 0 112 -29l2 -7q-5 -32 -6.5 -59t-3.5 -57l-3 -4h-21l-4 4q-2 30 -2.5 48t-1.5 24q-41 42 -104 42q-29 0 -51.5 -9.5t-38.5 -25t-24.5 -35.5t-8.5 -42q0 -48 44 -74q13 -8 39 -18t68 -23q29 -10 59 -19
t47 -20q26 -14 41.5 -40t15.5 -57q0 -38 -18.5 -71.5t-50.5 -61.5q30 -20 41 -44t11 -53q0 -36 -16.5 -64.5t-45.5 -56.5q-33 -31 -81 -47.5t-96 -16.5q-79 0 -134 39zM370 212q16 20 23.5 41.5t7.5 40.5q0 17 -6 35t-20 30t-35 22.5t-55 21.5t-69 21t-58 21
q-26 -22 -34.5 -42t-8.5 -42q0 -38 21.5 -59.5t59.5 -34.5l92 -31q35 -11 54 -19t24 -10z" />
    <glyph glyph-name="dieresis" unicode="&#xa8;" 
d="M14 621q0 20 14 34t34 14t34.5 -14t14.5 -34t-14.5 -34.5t-34.5 -14.5t-34 14.5t-14 34.5zM218 621q0 20 14 34t34 14t34.5 -14t14.5 -34t-14.5 -34.5t-34.5 -14.5t-34 14.5t-14 34.5z" />
    <glyph glyph-name="copyright" unicode="&#xa9;" horiz-adv-x="865" 
d="M613 227q-17 -33 -36.5 -54.5t-41.5 -34t-46 -17t-50 -4.5q-48 0 -86 17t-64 47t-40 71t-14 88q0 49 14.5 90.5t42 71.5t67 46.5t90.5 16.5q81 0 152 -28v-117h-27q-3 34 -12.5 57t-24.5 36t-34.5 18.5t-43.5 5.5q-36 0 -65.5 -13.5t-50.5 -38t-32.5 -58t-11.5 -73.5
q0 -36 10 -72.5t30 -65t50 -46.5t71 -18q26 0 45 5t34 15.5t27.5 26.5t25.5 37zM97 342q0 -70 26 -131t71.5 -106.5t106.5 -72t131 -26.5t131 26.5t107 72t72.5 106.5t26.5 131q0 69 -26.5 130.5t-72.5 107t-107 72t-131 26.5t-131 -26.5t-106.5 -72t-71.5 -107t-26 -130.5z
M60 342q0 77 29 145t79.5 118.5t118.5 80t145 29.5t145 -29.5t118.5 -80t80 -118.5t29.5 -145t-29.5 -145t-80 -118.5t-118.5 -79.5t-145 -29t-145 29t-118.5 79.5t-79.5 118.5t-29 145z" />
    <glyph glyph-name="ordfeminine" unicode="&#xaa;" horiz-adv-x="363" 
d="M239 516q-21 -5 -49 -12t-50 -15q-23 -8 -36 -21t-13 -40q0 -11 2.5 -22.5t9 -20.5t18 -15t28.5 -6t32 6.5t27 15.5t20 18.5t11 15.5v96zM283 397q0 -23 7.5 -33t24.5 -12l16 -1l2 -2v-12l-2 -2q-11 1 -21.5 1.5t-23.5 0.5t-26 -0.5t-19 -1.5l-4 4q2 14 2 26.5v26.5
q-10 -11 -25.5 -24t-32.5 -25q-11 -8 -22.5 -11t-25.5 -3q-49 0 -70.5 28t-21.5 65q0 38 20.5 55.5t51.5 26.5q30 9 64.5 16.5t61.5 12.5v13q0 45 -18 64.5t-60 19.5q-21 0 -38 -6.5t-23 -22.5l-12 -34h-2l-14 3l-2 2l-1 44l2 3q17 14 48 27.5t65 13.5q10 0 22.5 -2.5
t25 -7.5t23.5 -14t18 -22q7 -15 9.5 -30t2.5 -40q0 -18 -1 -39t-1 -44v-64z" />
    <glyph glyph-name="guillemotleft" unicode="&#xab;" horiz-adv-x="414" 
d="M112 224q24 -38 52 -76.5t63 -83.5v-3l-14 -7h-3q-18 19 -39 40.5t-42.5 43t-43 41.5t-40.5 37v16q19 17 40.5 37.5t43.5 41.5t42.5 42.5t38.5 41.5h3l14 -7v-3q-35 -45 -63 -83.5t-52 -76.5v-1zM254 224q24 -38 52 -76.5t63 -83.5v-3l-14 -7h-3q-18 19 -39 40.5
t-42.5 43t-43 41.5t-40.5 37v16q19 17 40.5 37.5t43.5 41.5t42.5 42.5t38.5 41.5h3l14 -7v-3q-35 -45 -63 -83.5t-52 -76.5v-1z" />
    <glyph glyph-name="logicalnot" unicode="&#xac;" horiz-adv-x="572" 
d="M472 60q-4 0 -8.5 0.5t-7.5 0.5t-7.5 -0.5t-8.5 -0.5h-9q1 19 2 44.5t1.5 52t0.5 51.5v43v36h-173h-42.5t-51 -1t-51 -2t-42.5 -3v8q0 4 0.5 8.5t0.5 9.5q0 4 -0.5 8.5t-0.5 8.5v9q18 -1 42.5 -2t51 -1.5t51 -0.5h42.5q51 0 107.5 1t107.5 3l5 -4q-1 -12 -2 -27.5
t-1.5 -31.5t-1 -29.5t-0.5 -21.5q0 -38 1 -79.5t4 -79.5h-10z" />
    <glyph glyph-name="uni00AD" unicode="&#xad;" horiz-adv-x="344" 
d="M34 261v7l18 44h258v-7l-18 -44h-258z" />
    <glyph glyph-name="registered" unicode="&#xae;" horiz-adv-x="653" 
d="M201 326v11q26 0 30.5 4.5t4.5 27.5v210q0 21 -5 26.5t-30 5.5v11h122q22 0 42 -2.5t35 -10t24 -22t9 -38.5q0 -29 -20 -50.5t-65 -28.5q12 -1 21 -4.5t16.5 -12.5t15.5 -24.5t19 -39.5q13 -29 24.5 -39.5t37.5 -12.5v-11h-41q-17 0 -28 5.5t-19.5 16t-15 26t-14.5 35.5
q-8 18 -15.5 29t-15 16.5t-16 7t-19.5 1.5h-20v-94q0 -11 1 -17.5t4.5 -9.5t10.5 -4t20 -1v-11h-113zM278 477h20q92 0 92 66q0 65 -70 65h-22q-14 0 -17 -5t-3 -22v-104zM92 464q0 -49 18.5 -91.5t50 -74.5t74 -50.5t91.5 -18.5t92 18.5t75 50.5t50.5 74.5t18.5 91.5
t-18.5 91.5t-50.5 74.5t-75 50.5t-92 18.5t-91.5 -18.5t-74 -50.5t-50 -74.5t-18.5 -91.5zM66 464q0 54 20.5 101.5t55.5 83t82.5 56t101.5 20.5t101.5 -20.5t83 -56t56 -83t20.5 -101.5t-20.5 -101.5t-56 -82.5t-83 -55.5t-101.5 -20.5t-101.5 20.5t-82.5 55.5t-55.5 82.5
t-20.5 101.5z" />
    <glyph glyph-name="macron" unicode="&#xaf;" 
d="M297 591h-264v43h264v-43z" />
    <glyph glyph-name="degree" unicode="&#xb0;" horiz-adv-x="397" 
d="M198 743q30 0 57 -11.5t48 -32t33 -47.5t12 -58t-12 -58t-32 -47.5t-47.5 -32t-58.5 -11.5q-30 0 -56.5 12t-47 32t-32.5 47.5t-12 57.5t12.5 57.5t33.5 47.5t47.5 32t54.5 12zM308 597q0 22 -9 41t-24 33.5t-35 23t-42 8.5q-23 0 -43 -9t-35 -24t-23.5 -34.5t-8.5 -41.5
t8.5 -42t23.5 -35t35 -24t43 -9q24 0 44 9t35 24.5t23 36t8 43.5z" />
    <glyph glyph-name="plusminus" unicode="&#xb1;" horiz-adv-x="572" 
d="M497 -47q-18 1 -42 2t-48.5 1.5t-48 0.5h-40.5h-66h-40t-47.5 -0.5t-48 -1.5t-41.5 -2v8q0 4 0.5 8t0.5 9q0 4 -0.5 8.5t-0.5 8.5v9q18 -1 41.5 -2t48 -1.5t47.5 -0.5h40h66h41.5t48 0.5t48 1.5t41.5 2q-1 -3 -1 -9v-17v-17q0 -5 1 -8zM497 286q-18 1 -41.5 2t-48.5 1.5
t-48 0.5h-39h-10v-12v-43.5t1 -50.5t2 -51t3 -44h-10q-5 0 -10 0.5t-9 0.5q-5 0 -9.5 -0.5t-9.5 -0.5h-10q1 19 2 44.5t1.5 51.5t1 50.5t0.5 42.5v12h-12h-41t-47 -0.5t-47 -1.5t-41 -2v8q0 4 0.5 7.5t0.5 8.5t-0.5 9.5t-0.5 8.5v9q18 -2 41 -3t47 -2t47 -1h41h12v16v41.5
t-1 48t-2 48.5t-3 43q3 -1 10 -1h19h18q7 0 10 1q-1 -19 -2 -43t-1.5 -48.5t-0.5 -48v-41.5v-16h10h41t47 1t47.5 2t41.5 3q-1 -3 -1 -9v-17v-17q0 -5 1 -8z" />
    <glyph glyph-name="uni00B2" unicode="&#xb2;" 
d="M37 411v9l70 72q57 58 92 104.5t35 95.5q0 32 -18.5 56t-63.5 24q-15 0 -29.5 -3.5t-22.5 -11.5q-4 -4 -11 -18t-11 -31l-5 -2l-17 2q7 17 13.5 36t12.5 39q12 14 35.5 23t50.5 9q23 0 44.5 -7t37.5 -20.5t25.5 -34t9.5 -46.5q0 -41 -23.5 -77t-71.5 -84
q-24 -24 -47 -47.5t-49 -47.5h110h55t48 2l2 -2q-4 -8 -4 -24v-7.5t2 -9.5l-2 -5q-13 1 -30 1.5t-35 1t-35 0.5h-30h-28.5h-39t-39.5 -0.5t-28 -1.5z" />
    <glyph glyph-name="uni00B3" unicode="&#xb3;" 
d="M151 775q-15 0 -29 -4t-22 -12q-3 -3 -10.5 -15.5t-12.5 -29.5l-17 3l-2 5q8 16 12 27.5t10 31.5q13 14 37 24t50 10q42 0 71.5 -21.5t29.5 -66.5q0 -28 -15 -54t-44 -42q48 -8 70.5 -32t22.5 -56q0 -33 -14.5 -60t-38 -45.5t-53.5 -29t-61 -10.5q-32 0 -58 7.5t-43 20.5
q-2 2 -2 4l2 6q6 15 11.5 35.5t9.5 37.5l6 1l13 -4q-3 -14 -3 -28q0 -17 7 -27.5t18 -16.5t25 -8.5t29 -2.5q27 0 45.5 9t30.5 23.5t17.5 33.5t5.5 40q0 38 -22 57t-56 19q-12 0 -21.5 -2.5t-29.5 -10.5l-5 5l6 33q12 -1 20.5 -1h12.5q33 0 50 23.5t17 58.5q0 27 -17.5 45.5
t-52.5 18.5z" />
    <glyph glyph-name="acute" unicode="&#xb4;" 
d="M178 709q7 11 13.5 14t12.5 3q11 0 24.5 -9.5t13.5 -21.5q0 -7 -8 -15l-149 -151l-6 -2l-10 7l-1 6z" />
    <glyph glyph-name="uni00B5" unicode="&#xb5;" horiz-adv-x="641" 
d="M364 12q-27 -24 -81 -24q-34 0 -63 15t-46 38l-10 -2q2 -97 13.5 -164.5t34.5 -113.5l-7 -11q-11 -8 -29 -15.5t-29 -9.5l-9 7q-4 49 -6 118t-2 144q0 18 1 40.5t1.5 59t1.5 92.5t1 141q0 25 -1.5 40t-8.5 22.5t-20 9.5t-35 2h-11v23q38 5 71 15t67 27l10 -6l-8 -167
v-125q0 -65 34.5 -95t84.5 -30q24 0 45.5 9.5t38 25t26.5 37t10 45.5v177l-5 83v23q17 4 34.5 9.5t28.5 13.5l12 -6q-4 -72 -5.5 -122t-1.5 -78v-86q0 -49 2.5 -78.5t6.5 -39.5q6 -15 36 -15h15t23 2v-28q-35 -5 -67.5 -10.5t-71.5 -19.5l-11 3l1 86z" />
    <glyph glyph-name="paragraph" unicode="&#xb6;" horiz-adv-x="680" 
d="M381 664q-68 -6 -114 -24t-74.5 -46t-41 -65.5t-12.5 -82.5q0 -39 12.5 -76.5t41 -67.5t74.5 -49t114 -20v431zM221 -283q-30 0 -57.5 8.5t-48.5 24.5t-33 40t-12 54q0 51 21.5 74.5t52.5 23.5q22 0 38 -12t16 -36q0 -26 -15 -36.5t-35 -10.5t-31 -3t-11 -17
q0 -21 11 -36t27.5 -25t35.5 -15t34 -5q60 0 93.5 30.5t50 78.5t20 107.5t3.5 118.5v125q-59 0 -118 8.5t-106.5 34t-77.5 72.5t-30 125q0 73 26 121t77.5 76.5t128.5 39.5t178 11q15 0 34 -0.5t39 -1.5t39.5 -1.5t36.5 -0.5l6 -18l-104 -5l-7 -8v-463q0 -53 -2.5 -109
t-11.5 -109t-27 -100.5t-49.5 -83t-78.5 -56.5t-113 -21zM413 665v-509q0 -72 -2.5 -136t-14 -117t-36 -93t-67.5 -64v-3q91 24 134.5 127.5t43.5 268.5v529z" />
    <glyph glyph-name="periodcentered" unicode="&#xb7;" horiz-adv-x="240" 
d="M69 235q0 20 15.5 36.5t35.5 16.5q22 0 37 -16.5t15 -36.5q0 -21 -16 -35.5t-36 -14.5q-19 0 -35 14.5t-16 35.5z" />
    <glyph glyph-name="cedilla" unicode="&#xb8;" 
d="M150 -9l29 -1l-24 -47l17 -5q11 -3 23 -9t22 -15.5t16.5 -22.5t6.5 -31q0 -27 -13.5 -46.5t-36 -31.5t-51.5 -17.5t-60 -5.5l-3 3v21l3 2q17 0 36 2.5t35.5 10t27 20t10.5 32.5q0 29 -22.5 43.5t-53.5 20.5l-1 7z" />
    <glyph glyph-name="uni00B9" unicode="&#xb9;" 
d="M164 671v60.5t-1 29.5q-2 5 -4 5q-3 0 -6 -0.5t-7 -1.5l-76 -20h-5l-11 14l4 3q12 4 30.5 10.5t39 14.5t40 16.5t34.5 16.5l10 -4q-3 -59 -4 -94t-1 -58v-106q0 -57 1 -87.5t5 -35.5q3 -4 21 -5.5t41 -3.5v-19q-12 1 -37 1.5t-54 0.5q-26 0 -49.5 -0.5t-40.5 -1.5v20
q20 1 39 3.5t21 4.5q10 13 10 124v113z" />
    <glyph glyph-name="ordmasculine" unicode="&#xba;" horiz-adv-x="415" 
d="M49 490q0 37 10.5 68t31 53.5t50.5 35.5t70 13q43 0 73 -12t48 -33t26 -51t8 -66q0 -37 -13 -68t-35 -53.5t-51 -35t-60 -12.5q-47 0 -77.5 15t-48.5 38.5t-25 52t-7 55.5zM207 350q21 0 40.5 6.5t34.5 23t24 44t9 68.5q0 28 -5.5 54.5t-18.5 47t-34.5 33t-53.5 12.5
q-46 0 -74 -35t-28 -98q0 -72 27.5 -114t78.5 -42z" />
    <glyph glyph-name="guillemotright" unicode="&#xbb;" horiz-adv-x="414" 
d="M302 225q-24 38 -52 76.5t-63 83.5v3l14 7h3q18 -20 38.5 -41.5t42.5 -42.5t43.5 -41.5t40.5 -37.5v-16q-19 -17 -40.5 -37t-43 -41.5t-42.5 -43t-39 -40.5h-3l-14 7v3q35 45 63 83.5t52 76.5v1zM160 225q-24 38 -52 76.5t-63 83.5v3l14 7h3q18 -20 38.5 -41.5
t42.5 -42.5t43.5 -41.5t40.5 -37.5v-16q-19 -17 -40.5 -37t-43 -41.5t-42.5 -43t-39 -40.5h-3l-14 7v3q35 45 63 83.5t52 76.5v1z" />
    <glyph glyph-name="onequarter" unicode="&#xbc;" horiz-adv-x="820" 
d="M511 0v12l2 3q22 0 39.5 2t22.5 8q5 5 6.5 22t1.5 37v20h-64h-50t-42 -1l-5 15q25 48 66.5 115t100.5 156l34 16l7 -3q-1 -12 -2 -27.5t-1.5 -39t-0.5 -57v-81.5v-59q17 0 34 0.5t28 1.5l2 -3q-1 -5 -1 -9.5v-6.5q0 -12 1 -15l-3 -3q-14 1 -25.5 1h-20.5h-15v-18
q0 -33 1.5 -46t6.5 -17q3 -4 14 -6t39 -2l3 -3v-12l-2 -2q-26 1 -44 1.5t-35 0.5q-28 0 -52 -0.5t-44 -1.5zM583 138l2 207q-10 -13 -28 -41.5t-37 -60.5t-36 -61.5t-25 -43.5h124zM164 615q0 7 -5 7q-2 0 -5 -0.5t-8 -1.5l-78 -21h-5l-9 17l2 3q15 4 36 12t42 16.5t40 16.5
t31 13l8 -3q-3 -59 -4 -93.5t-1 -57.5v-106q0 -65 1 -92t5 -31q5 -4 23 -5.5t37 -2.5l2 -2v-15l-2 -1q-22 1 -44 1.5t-45 0.5q-18 0 -42 -0.5t-46 -1.5l-2 1v15l2 2q19 0 37 2.5t21 5.5q2 3 4 11t3 22t1.5 36.5t0.5 54.5v197zM626 747l-425 -828l-6 -3h-25l-3 5l426 828l5 3
h25z" />
    <glyph glyph-name="onehalf" unicode="&#xbd;" horiz-adv-x="820" 
d="M469 2v13l96 101q21 22 38.5 41t29.5 38t18.5 39.5t6.5 44.5q0 33 -20 59t-62 26q-15 0 -28.5 -4t-21.5 -12q-4 -4 -12 -16t-13 -28l-3 -2h-11l-2 2q7 17 13 33.5t12 36.5q14 17 36 24t48 7q22 0 42.5 -7t36.5 -20.5t25 -33.5t9 -45q0 -41 -20.5 -76.5t-66.5 -82.5
l-94 -97h118q26 0 46 0.5t37 2.5l2 -1q-1 -5 -1.5 -9.5t-0.5 -12.5v-12t2 -9l-2 -3q-26 2 -62 2.5t-62 0.5h-28t-38 -0.5t-38 -1t-27 -1.5zM626 747l-425 -828l-6 -3h-25l-3 5l426 828l5 3h25zM164 615q0 7 -5 7q-2 0 -5 -0.5t-8 -1.5l-78 -21h-5l-9 17l2 3q15 4 36 12
t42 16.5t40 16.5t31 13l8 -3q-3 -59 -4 -93.5t-1 -57.5v-106q0 -65 1 -92t5 -31q5 -4 23 -5.5t37 -2.5l2 -2v-15l-2 -1q-22 1 -44 1.5t-45 0.5q-18 0 -42 -0.5t-46 -1.5l-2 1v15l2 2q19 0 37 2.5t21 5.5q2 3 4 11t3 22t1.5 36.5t0.5 54.5v197z" />
    <glyph glyph-name="threequarters" unicode="&#xbe;" horiz-adv-x="820" 
d="M196 634q-15 0 -28.5 -4.5t-21.5 -12.5q-5 -4 -12.5 -16t-12.5 -28l-3 -2h-11l-3 2q8 17 14 34.5t12 37.5q14 17 36 22.5t48 5.5q21 0 39.5 -5t32.5 -15.5t22.5 -27t8.5 -38.5q0 -57 -60 -97q50 -7 68 -30.5t18 -56.5t-14 -59t-36.5 -45t-51.5 -29t-59 -10q-32 0 -58.5 6
t-42.5 17q-2 2 -2 3q0 3 1 4q6 16 13 39t11 40l3 1l10 -2l1 -2q-1 -8 -1.5 -15t-0.5 -11q0 -31 24 -42.5t54 -11.5q54 0 76 28.5t22 70.5q0 38 -19.5 60t-54.5 22q-13 0 -22 -2.5t-29 -10.5l-3 3l5 31q13 -1 20.5 -1h11.5q33 0 51.5 22.5t18.5 57.5q0 31 -21.5 49t-53.5 18z
M666 747l-425 -828l-6 -3h-25l-3 5l426 828l5 3h25zM545 0v12l2 3q22 0 39.5 2t22.5 8q5 5 6.5 22t1.5 37v20h-64h-50t-42 -1l-5 15q25 48 66.5 115t100.5 156l34 16l7 -3q-1 -12 -2 -27.5t-1.5 -39t-0.5 -57v-81.5v-59q17 0 34 0.5t28 1.5l2 -3q-1 -5 -1 -9.5v-6.5
q0 -12 1 -15l-3 -3q-14 1 -25.5 1h-20.5h-15v-18q0 -33 1.5 -46t6.5 -17q3 -4 14 -6t39 -2l3 -3v-12l-2 -2q-26 1 -44 1.5t-35 0.5q-28 0 -52 -0.5t-44 -1.5zM617 138l2 207q-10 -13 -28 -41.5t-37 -60.5t-36 -61.5t-25 -43.5h124z" />
    <glyph glyph-name="questiondown" unicode="&#xbf;" horiz-adv-x="467" 
d="M201 423q0 22 14.5 37t36.5 15q23 0 37.5 -15t14.5 -37q0 -23 -16 -37t-36 -14t-35.5 14t-15.5 37zM279 285q13 -9 20.5 -23.5t7.5 -36.5q0 -15 -4.5 -28.5t-16.5 -29.5t-31.5 -35t-49.5 -45q-35 -31 -49 -67t-14 -70q0 -57 35 -88.5t86 -31.5q14 0 28.5 2.5t29.5 10.5
q20 11 33 35l20 39l6 3l12 -4v-5l-37 -99q-29 -19 -55.5 -28t-59.5 -9q-35 0 -64.5 9t-51.5 27.5t-34.5 46t-12.5 63.5q0 59 30.5 101.5t87.5 89.5q36 30 48.5 51t12.5 45q0 13 -8 29.5t-25 30.5l1 7l46 13z" />
    <glyph glyph-name="Agrave" unicode="&#xc0;" horiz-adv-x="700" 
d="M-1 1v21l4 3q29 3 55 29q22 24 41 66l181 392q23 51 43.5 95t38.5 89h14l183 -491q18 -49 30.5 -79.5t21 -48.5t13.5 -26t9 -12q7 -7 22 -10.5t31 -3.5l4 -4v-20l-4 -4q-26 2 -58.5 2.5t-53.5 0.5q-27 0 -55 -1t-48 -2l-4 4v20l4 4q28 1 35.5 2t14.5 3q13 4 13 22
q0 12 -8 38.5t-16 48.5l-63 170h-218l-71 -163q-18 -42 -26.5 -62.5t-8.5 -29.5q0 -14 11 -21.5t47 -7.5l4 -4v-20l-4 -4q-31 2 -49 2.5t-41 0.5q-17 0 -42.5 -0.5t-45.5 -2.5zM243 345h192l-90 232zM402 740l-1 -6l-10 -7l-6 2l-149 151q-8 8 -8 15q0 12 13.5 21.5
t24.5 9.5q6 0 12.5 -3t13.5 -14z" />
    <glyph glyph-name="Aacute" unicode="&#xc1;" horiz-adv-x="700" 
d="M-1 1v21l4 3q29 3 55 29q22 24 41 66l181 392q23 51 43.5 95t38.5 89h14l183 -491q18 -49 30.5 -79.5t21 -48.5t13.5 -26t9 -12q7 -7 22 -10.5t31 -3.5l4 -4v-20l-4 -4q-26 2 -58.5 2.5t-53.5 0.5q-27 0 -55 -1t-48 -2l-4 4v20l4 4q28 1 35.5 2t14.5 3q13 4 13 22
q0 12 -8 38.5t-16 48.5l-63 170h-218l-71 -163q-18 -42 -26.5 -62.5t-8.5 -29.5q0 -14 11 -21.5t47 -7.5l4 -4v-20l-4 -4q-31 2 -49 2.5t-41 0.5q-17 0 -42.5 -0.5t-45.5 -2.5zM243 345h192l-90 232zM441 909q7 11 13.5 14t12.5 3q11 0 24.5 -9.5t13.5 -21.5q0 -7 -8 -15
l-149 -151l-6 -2l-10 7l-1 6z" />
    <glyph glyph-name="Acircumflex" unicode="&#xc2;" horiz-adv-x="700" 
d="M-1 1v21l4 3q29 3 55 29q22 24 41 66l181 392q23 51 43.5 95t38.5 89h14l183 -491q18 -49 30.5 -79.5t21 -48.5t13.5 -26t9 -12q7 -7 22 -10.5t31 -3.5l4 -4v-20l-4 -4q-26 2 -58.5 2.5t-53.5 0.5q-27 0 -55 -1t-48 -2l-4 4v20l4 4q28 1 35.5 2t14.5 3q13 4 13 22
q0 12 -8 38.5t-16 48.5l-63 170h-218l-71 -163q-18 -42 -26.5 -62.5t-8.5 -29.5q0 -14 11 -21.5t47 -7.5l4 -4v-20l-4 -4q-31 2 -49 2.5t-41 0.5q-17 0 -42.5 -0.5t-45.5 -2.5zM243 345h192l-90 232zM516 742l-4 -5h-23l-122 123l-124 -123h-23l-4 5l127 176h46z" />
    <glyph glyph-name="Atilde" unicode="&#xc3;" horiz-adv-x="700" 
d="M-1 1v21l4 3q29 3 55 29q22 24 41 66l181 392q23 51 43.5 95t38.5 89h14l183 -491q18 -49 30.5 -79.5t21 -48.5t13.5 -26t9 -12q7 -7 22 -10.5t31 -3.5l4 -4v-20l-4 -4q-26 2 -58.5 2.5t-53.5 0.5q-27 0 -55 -1t-48 -2l-4 4v20l4 4q28 1 35.5 2t14.5 3q13 4 13 22
q0 12 -8 38.5t-16 48.5l-63 170h-218l-71 -163q-18 -42 -26.5 -62.5t-8.5 -29.5q0 -14 11 -21.5t47 -7.5l4 -4v-20l-4 -4q-31 2 -49 2.5t-41 0.5q-17 0 -42.5 -0.5t-45.5 -2.5zM243 345h192l-90 232zM543 861q-10 -42 -37.5 -63.5t-65.5 -21.5q-16 0 -35 5.5t-44 19.5
q-24 13 -41 17.5t-27 4.5q-19 0 -38.5 -12t-29.5 -37l-15 4l-3 3q9 38 37.5 63.5t64.5 25.5q34 0 80 -25q25 -13 42 -17t27 -4q19 0 38.5 9t29.5 35l14 -4z" />
    <glyph glyph-name="Adieresis" unicode="&#xc4;" horiz-adv-x="700" 
d="M-1 1v21l4 3q29 3 55 29q22 24 41 66l181 392q23 51 43.5 95t38.5 89h14l183 -491q18 -49 30.5 -79.5t21 -48.5t13.5 -26t9 -12q7 -7 22 -10.5t31 -3.5l4 -4v-20l-4 -4q-26 2 -58.5 2.5t-53.5 0.5q-27 0 -55 -1t-48 -2l-4 4v20l4 4q28 1 35.5 2t14.5 3q13 4 13 22
q0 12 -8 38.5t-16 48.5l-63 170h-218l-71 -163q-18 -42 -26.5 -62.5t-8.5 -29.5q0 -14 11 -21.5t47 -7.5l4 -4v-20l-4 -4q-31 2 -49 2.5t-41 0.5q-17 0 -42.5 -0.5t-45.5 -2.5zM243 345h192l-90 232zM208 808q0 20 14 34t34 14t34.5 -14t14.5 -34t-14.5 -34.5t-34.5 -14.5
t-34 14.5t-14 34.5zM432 808q0 20 14 34t34 14t34.5 -14t14.5 -34t-14.5 -34.5t-34.5 -14.5t-34 14.5t-14 34.5z" />
    <glyph glyph-name="Aring" unicode="&#xc5;" horiz-adv-x="700" 
d="M-1 1v21l4 3q29 3 55 29q22 24 41 66l181 392q23 51 43.5 95t38.5 89h14l183 -491q18 -49 30.5 -79.5t21 -48.5t13.5 -26t9 -12q7 -7 22 -10.5t31 -3.5l4 -4v-20l-4 -4q-26 2 -58.5 2.5t-53.5 0.5q-27 0 -55 -1t-48 -2l-4 4v20l4 4q28 1 35.5 2t14.5 3q13 4 13 22
q0 12 -8 38.5t-16 48.5l-63 170h-218l-71 -163q-18 -42 -26.5 -62.5t-8.5 -29.5q0 -14 11 -21.5t47 -7.5l4 -4v-20l-4 -4q-31 2 -49 2.5t-41 0.5q-17 0 -42.5 -0.5t-45.5 -2.5zM243 345h192l-90 232zM460 821q0 -38 -26 -63.5t-66 -25.5q-42 0 -67.5 25.5t-25.5 63.5
t25.5 63t67.5 25q48 0 70 -25t22 -63zM425 821q0 29 -14 50t-43 21q-30 0 -44.5 -21t-14.5 -50q0 -13 3 -26t10 -23t18.5 -16.5t27.5 -6.5q29 0 43 21.5t14 50.5z" />
    <glyph glyph-name="AE" unicode="&#xc6;" horiz-adv-x="928" 
d="M476 434q0 103 -3 211h-18l-216 -367h237v156zM530 0q-16 0 -42.5 -0.5t-52.5 -2.5l-2 3v16l2 3l28 15q4 3 6 8q4 42 5.5 89.5t1.5 93.5v17h-258l-53 -92q-15 -26 -24.5 -43.5t-15 -29t-7.5 -18.5t-2 -11q0 -8 5.5 -13.5t24.5 -6.5l39 -2l3 -3v-23l-3 -3q-27 1 -51 2
t-53 1q-23 0 -51.5 -1t-50.5 -2l-3 3v23l3 3l20 2q9 1 19.5 5.5t23.5 16.5t30.5 35t41.5 62l180 290q17 27 37 59t37 61t28.5 51t11.5 29q0 15 -25 15l-73 2l-3 3v23l3 3q45 -1 99 -2t102 -1h80t90 0.5t86.5 1.5t69.5 2l2 -3q-2 -23 -3 -57t-1 -85l-3 -4h-24l-4 4v7
q0 67 -6 78q-11 17 -62 21q-12 1 -32 1.5t-43.5 1t-48.5 0.5h-49h-14v-281h24q60 0 105.5 1t59.5 9q6 3 8 12t4 32l2 30l4 4h22l4 -4q-2 -26 -2.5 -51t-0.5 -52q0 -21 0.5 -44t2.5 -58l-4 -4h-22l-4 4l-3 29q-2 20 -5 30.5t-11 16.5q-12 9 -54 11t-111 2h-19v-105
q0 -51 0.5 -98.5t2.5 -98.5h65q88 0 145 4t78 14q9 11 18 39t15 63l3 3h22l4 -3q-3 -19 -5.5 -41t-4.5 -43t-3 -39.5t-1 -29.5l-3 -4q-23 1 -65.5 2t-93 1.5t-102.5 0.5h-94z" />
    <glyph glyph-name="Ccedilla" unicode="&#xc7;" horiz-adv-x="684" 
d="M137 353q0 -55 16.5 -112.5t52.5 -105t92.5 -78t136.5 -30.5q41 0 74 6.5t58.5 16t44.5 21t32 21.5l9 -8l-23 -48q-38 -22 -85.5 -36.5t-115.5 -14.5h-23l-22 -42l17 -5q11 -3 23 -9t22 -15.5t16.5 -22.5t6.5 -31q0 -27 -13.5 -46.5t-36 -31.5t-51.5 -17.5t-60 -5.5l-3 3
v21l3 2q17 0 36 2.5t35.5 10t27 20t10.5 32.5q0 29 -22.5 43.5t-53.5 20.5l-1 7l36 66q-77 6 -137 34.5t-101.5 74t-63 105.5t-21.5 130q0 76 24.5 142t71.5 115.5t114.5 78t153.5 28.5q92 0 149.5 -14t86.5 -24l3 -5q-11 -32 -16.5 -64t-8.5 -74l-3 -3h-21l-3 3
q0 44 -0.5 61.5t-3.5 25.5q-4 10 -20 20.5t-40.5 18.5t-56.5 13.5t-68 5.5q-52 0 -102 -17.5t-89 -54.5t-63 -95t-24 -139z" />
    <glyph glyph-name="Egrave" unicode="&#xc8;" horiz-adv-x="576" 
d="M426 242h-22l-4 4l-3 29q-2 20 -5 30.5t-11 16.5q-12 9 -53.5 11t-111.5 2h-19v-105q0 -51 0.5 -98.5t2.5 -98.5h65q88 0 145 4t78 14q9 11 18 39t15 63l3 3h22l4 -3q-3 -19 -5.5 -41t-4.5 -43t-3 -39.5t-1 -29.5l-3 -4q-23 1 -65 2t-92.5 1.5t-105 0.5h-103.5
q-17 0 -37.5 -0.5t-43.5 -2.5l-4 3v14l4 5q11 5 20.5 9.5t10.5 7.5q5 19 6.5 69.5t1.5 122.5v225v89.5t-1 54t-3.5 28.5t-6.5 14q-5 5 -17 9t-44 6l-4 3v23l4 3q38 -2 67 -2.5t39 -0.5h80t90 0.5t86.5 1.5t69.5 2l2 -3q-2 -23 -3 -57t-1 -85l-3 -4h-24l-4 4v7q0 67 -6 78
q-11 17 -62 21q-12 1 -32 1.5t-43.5 1t-48.5 0.5h-49h-14v-281h24q60 0 105.5 1t59.5 9q6 3 8 12t4 32l2 30l4 4h22l4 -4q-2 -26 -2.5 -51t-0.5 -52q0 -21 0.5 -44t2.5 -58zM324 740l-1 -6l-10 -7l-6 2l-149 151q-8 8 -8 15q0 12 13.5 21.5t24.5 9.5q6 0 12.5 -3t13.5 -14z
" />
    <glyph glyph-name="Eacute" unicode="&#xc9;" horiz-adv-x="576" 
d="M426 242h-22l-4 4l-3 29q-2 20 -5 30.5t-11 16.5q-12 9 -53.5 11t-111.5 2h-19v-105q0 -51 0.5 -98.5t2.5 -98.5h65q88 0 145 4t78 14q9 11 18 39t15 63l3 3h22l4 -3q-3 -19 -5.5 -41t-4.5 -43t-3 -39.5t-1 -29.5l-3 -4q-23 1 -65 2t-92.5 1.5t-105 0.5h-103.5
q-17 0 -37.5 -0.5t-43.5 -2.5l-4 3v14l4 5q11 5 20.5 9.5t10.5 7.5q5 19 6.5 69.5t1.5 122.5v225v89.5t-1 54t-3.5 28.5t-6.5 14q-5 5 -17 9t-44 6l-4 3v23l4 3q38 -2 67 -2.5t39 -0.5h80t90 0.5t86.5 1.5t69.5 2l2 -3q-2 -23 -3 -57t-1 -85l-3 -4h-24l-4 4v7q0 67 -6 78
q-11 17 -62 21q-12 1 -32 1.5t-43.5 1t-48.5 0.5h-49h-14v-281h24q60 0 105.5 1t59.5 9q6 3 8 12t4 32l2 30l4 4h22l4 -4q-2 -26 -2.5 -51t-0.5 -52q0 -21 0.5 -44t2.5 -58zM355 909q7 11 13.5 14t12.5 3q11 0 24.5 -9.5t13.5 -21.5q0 -7 -8 -15l-149 -151l-6 -2l-10 7l-1 6
z" />
    <glyph glyph-name="Ecircumflex" unicode="&#xca;" horiz-adv-x="576" 
d="M426 242h-22l-4 4l-3 29q-2 20 -5 30.5t-11 16.5q-12 9 -53.5 11t-111.5 2h-19v-105q0 -51 0.5 -98.5t2.5 -98.5h65q88 0 145 4t78 14q9 11 18 39t15 63l3 3h22l4 -3q-3 -19 -5.5 -41t-4.5 -43t-3 -39.5t-1 -29.5l-3 -4q-23 1 -65 2t-92.5 1.5t-105 0.5h-103.5
q-17 0 -37.5 -0.5t-43.5 -2.5l-4 3v14l4 5q11 5 20.5 9.5t10.5 7.5q5 19 6.5 69.5t1.5 122.5v225v89.5t-1 54t-3.5 28.5t-6.5 14q-5 5 -17 9t-44 6l-4 3v23l4 3q38 -2 67 -2.5t39 -0.5h80t90 0.5t86.5 1.5t69.5 2l2 -3q-2 -23 -3 -57t-1 -85l-3 -4h-24l-4 4v7q0 67 -6 78
q-11 17 -62 21q-12 1 -32 1.5t-43.5 1t-48.5 0.5h-49h-14v-281h24q60 0 105.5 1t59.5 9q6 3 8 12t4 32l2 30l4 4h22l4 -4q-2 -26 -2.5 -51t-0.5 -52q0 -21 0.5 -44t2.5 -58zM437 742l-4 -5h-23l-122 123l-124 -123h-23l-4 5l127 176h46z" />
    <glyph glyph-name="Edieresis" unicode="&#xcb;" horiz-adv-x="576" 
d="M426 242h-22l-4 4l-3 29q-2 20 -5 30.5t-11 16.5q-12 9 -53.5 11t-111.5 2h-19v-105q0 -51 0.5 -98.5t2.5 -98.5h65q88 0 145 4t78 14q9 11 18 39t15 63l3 3h22l4 -3q-3 -19 -5.5 -41t-4.5 -43t-3 -39.5t-1 -29.5l-3 -4q-23 1 -65 2t-92.5 1.5t-105 0.5h-103.5
q-17 0 -37.5 -0.5t-43.5 -2.5l-4 3v14l4 5q11 5 20.5 9.5t10.5 7.5q5 19 6.5 69.5t1.5 122.5v225v89.5t-1 54t-3.5 28.5t-6.5 14q-5 5 -17 9t-44 6l-4 3v23l4 3q38 -2 67 -2.5t39 -0.5h80t90 0.5t86.5 1.5t69.5 2l2 -3q-2 -23 -3 -57t-1 -85l-3 -4h-24l-4 4v7q0 67 -6 78
q-11 17 -62 21q-12 1 -32 1.5t-43.5 1t-48.5 0.5h-49h-14v-281h24q60 0 105.5 1t59.5 9q6 3 8 12t4 32l2 30l4 4h22l4 -4q-2 -26 -2.5 -51t-0.5 -52q0 -21 0.5 -44t2.5 -58zM129 808q0 20 14 34t34 14t34.5 -14t14.5 -34t-14.5 -34.5t-34.5 -14.5t-34 14.5t-14 34.5z
M353 808q0 20 14 34t34 14t34.5 -14t14.5 -34t-14.5 -34.5t-34.5 -14.5t-34 14.5t-14 34.5z" />
    <glyph glyph-name="Igrave" unicode="&#xcc;" horiz-adv-x="323" 
d="M197 226v-90.5t1 -53t3.5 -28t6.5 -14.5q5 -5 17.5 -9t44.5 -6l4 -3v-22l-4 -3q-38 2 -68.5 2.5t-40.5 0.5q-9 0 -39.5 -0.5t-68.5 -2.5l-4 3v22l4 3q32 2 44 6t17 9q4 6 6.5 15t3.5 28.5t1 53v89.5v227v89.5t-1 54t-3.5 28.5t-6.5 14q-5 5 -17 9t-44 6l-4 3v23l4 3
q38 -2 68.5 -2.5t40.5 -0.5q9 0 39.5 0.5t68.5 2.5l4 -3v-23l-4 -3q-32 -2 -44.5 -6t-17.5 -9q-4 -5 -6.5 -14t-3.5 -28.5t-1 -54v-89.5v-227zM193 740l-1 -6l-10 -7l-6 2l-149 151q-8 8 -8 15q0 12 13.5 21.5t24.5 9.5q6 0 12.5 -3t13.5 -14z" />
    <glyph glyph-name="Iacute" unicode="&#xcd;" horiz-adv-x="323" 
d="M197 226v-90.5t1 -53t3.5 -28t6.5 -14.5q5 -5 17.5 -9t44.5 -6l4 -3v-22l-4 -3q-38 2 -68.5 2.5t-40.5 0.5q-9 0 -39.5 -0.5t-68.5 -2.5l-4 3v22l4 3q32 2 44 6t17 9q4 6 6.5 15t3.5 28.5t1 53v89.5v227v89.5t-1 54t-3.5 28.5t-6.5 14q-5 5 -17 9t-44 6l-4 3v23l4 3
q38 -2 68.5 -2.5t40.5 -0.5q9 0 39.5 0.5t68.5 2.5l4 -3v-23l-4 -3q-32 -2 -44.5 -6t-17.5 -9q-4 -5 -6.5 -14t-3.5 -28.5t-1 -54v-89.5v-227zM239 909q7 11 13.5 14t12.5 3q11 0 24.5 -9.5t13.5 -21.5q0 -7 -8 -15l-149 -151l-6 -2l-10 7l-1 6z" />
    <glyph glyph-name="Icircumflex" unicode="&#xce;" horiz-adv-x="323" 
d="M197 226v-90.5t1 -53t3.5 -28t6.5 -14.5q5 -5 17.5 -9t44.5 -6l4 -3v-22l-4 -3q-38 2 -68.5 2.5t-40.5 0.5q-9 0 -39.5 -0.5t-68.5 -2.5l-4 3v22l4 3q32 2 44 6t17 9q4 6 6.5 15t3.5 28.5t1 53v89.5v227v89.5t-1 54t-3.5 28.5t-6.5 14q-5 5 -17 9t-44 6l-4 3v23l4 3
q38 -2 68.5 -2.5t40.5 -0.5q9 0 39.5 0.5t68.5 2.5l4 -3v-23l-4 -3q-32 -2 -44.5 -6t-17.5 -9q-4 -5 -6.5 -14t-3.5 -28.5t-1 -54v-89.5v-227zM310 742l-4 -5h-23l-122 123l-124 -123h-23l-4 5l127 176h46z" />
    <glyph glyph-name="Idieresis" unicode="&#xcf;" horiz-adv-x="323" 
d="M197 226v-90.5t1 -53t3.5 -28t6.5 -14.5q5 -5 17.5 -9t44.5 -6l4 -3v-22l-4 -3q-38 2 -68.5 2.5t-40.5 0.5q-9 0 -39.5 -0.5t-68.5 -2.5l-4 3v22l4 3q32 2 44 6t17 9q4 6 6.5 15t3.5 28.5t1 53v89.5v227v89.5t-1 54t-3.5 28.5t-6.5 14q-5 5 -17 9t-44 6l-4 3v23l4 3
q38 -2 68.5 -2.5t40.5 -0.5q9 0 39.5 0.5t68.5 2.5l4 -3v-23l-4 -3q-32 -2 -44.5 -6t-17.5 -9q-4 -5 -6.5 -14t-3.5 -28.5t-1 -54v-89.5v-227zM1 808q0 20 14 34t34 14t34.5 -14t14.5 -34t-14.5 -34.5t-34.5 -14.5t-34 14.5t-14 34.5zM225 808q0 20 14 34t34 14t34.5 -14
t14.5 -34t-14.5 -34.5t-34.5 -14.5t-34 14.5t-14 34.5z" />
    <glyph glyph-name="Eth" unicode="&#xd0;" horiz-adv-x="764" 
d="M82 0v14l4 5q11 5 20.5 9.5t10.5 7.5q5 19 6.5 69.5t1.5 122.5v105h-83l-5 5v23l5 6h83v86v89.5t-1 54t-3.5 28.5t-6.5 14q-5 5 -17 9t-44 6l-4 3v23l4 3q38 -2 67 -2.5t39 -0.5q27 0 54.5 0.5t53 1t47.5 1t38 0.5q58 0 121 -13t116 -47.5t87.5 -96t34.5 -157.5
q0 -62 -22.5 -127.5t-70.5 -120t-122.5 -89.5t-177.5 -35q-38 0 -73.5 1.5t-80.5 1.5q-17 0 -36 -0.5t-42 -2.5zM198 367h176l5 -5v-24l-5 -5h-176v-186v-56t2 -52q19 -3 51.5 -4.5t66.5 -1.5q69 0 125.5 22.5t97 64t63 100.5t22.5 133q0 67 -16 115t-42.5 81t-60.5 53
t-70 30.5t-70.5 14t-62.5 3.5q-30 0 -57.5 -2t-43.5 -4q-4 -27 -4.5 -59.5t-0.5 -80.5v-137z" />
    <glyph glyph-name="Ntilde" unicode="&#xd1;" horiz-adv-x="793" 
d="M622 0q-9 14 -23 33t-30.5 41.5t-35 46t-36.5 46.5l-332 416l3 -355q0 -56 1 -90t3 -53.5t5 -28.5t7 -15q9 -10 71 -15l4 -3v-23l-4 -3q-11 1 -25.5 1.5t-30 1t-29.5 0.5h-24q-9 0 -33.5 -0.5t-62.5 -2.5l-4 3v23l4 3q32 2 44 6t17 9q4 6 7 16t4.5 30.5t2 54t0.5 86.5
v322q0 30 -2 55.5t-13 35.5q-6 5 -18.5 8t-44.5 5l-4 3v23l4 3q21 -2 45 -2.5t35 -0.5q17 0 29 0.5t29 1.5l383 -484q20 -26 39 -51t35 -48l-3 353q0 55 -1 89.5t-3 54.5t-5 29t-7 14q-9 10 -72 15l-4 3v23l4 3q10 -1 25 -1.5l30 -1t29 -0.5h23t35 0.5t64 2.5l3 -3v-23
l-3 -3q-32 -2 -44.5 -6t-17.5 -9q-4 -5 -7 -15t-4.5 -30.5t-2 -54.5t-0.5 -87v-321q0 -33 1.5 -70t3.5 -59q-1 0 -2 -1q-2 -2 -4 -3q-13 1 -24.5 1.5t-33.5 0.5zM574 861q-10 -42 -37.5 -63.5t-65.5 -21.5q-16 0 -35 5.5t-44 19.5q-24 13 -41 17.5t-27 4.5q-19 0 -38.5 -12
t-29.5 -37l-15 4l-3 3q9 38 37.5 63.5t64.5 25.5q34 0 80 -25q25 -13 42 -17t27 -4q19 0 38.5 9t29.5 35l14 -4z" />
    <glyph glyph-name="Ograve" unicode="&#xd2;" horiz-adv-x="822" 
d="M134 378q0 -69 16.5 -133.5t51 -115t87 -81t124.5 -30.5q45 0 92.5 16t87 53t65 97t25.5 149q0 169 -71 250.5t-211 81.5q-51 0 -99.5 -17.5t-85.5 -53t-59.5 -89.5t-22.5 -127zM53 331q0 96 30 164.5t80 113t113.5 65.5t131.5 21q186 0 273.5 -90t87.5 -252
q0 -68 -22 -133.5t-68 -118t-116.5 -84.5t-167.5 -32q-99 0 -165 34.5t-105 86.5t-55.5 112.5t-16.5 112.5zM446 740l-1 -6l-10 -7l-6 2l-149 151q-8 8 -8 15q0 12 13.5 21.5t24.5 9.5q6 0 12.5 -3t13.5 -14z" />
    <glyph glyph-name="Oacute" unicode="&#xd3;" horiz-adv-x="822" 
d="M134 378q0 -69 16.5 -133.5t51 -115t87 -81t124.5 -30.5q45 0 92.5 16t87 53t65 97t25.5 149q0 169 -71 250.5t-211 81.5q-51 0 -99.5 -17.5t-85.5 -53t-59.5 -89.5t-22.5 -127zM53 331q0 96 30 164.5t80 113t113.5 65.5t131.5 21q186 0 273.5 -90t87.5 -252
q0 -68 -22 -133.5t-68 -118t-116.5 -84.5t-167.5 -32q-99 0 -165 34.5t-105 86.5t-55.5 112.5t-16.5 112.5zM485 909q7 11 13.5 14t12.5 3q11 0 24.5 -9.5t13.5 -21.5q0 -7 -8 -15l-149 -151l-6 -2l-10 7l-1 6z" />
    <glyph glyph-name="Ocircumflex" unicode="&#xd4;" horiz-adv-x="822" 
d="M134 378q0 -69 16.5 -133.5t51 -115t87 -81t124.5 -30.5q45 0 92.5 16t87 53t65 97t25.5 149q0 169 -71 250.5t-211 81.5q-51 0 -99.5 -17.5t-85.5 -53t-59.5 -89.5t-22.5 -127zM53 331q0 96 30 164.5t80 113t113.5 65.5t131.5 21q186 0 273.5 -90t87.5 -252
q0 -68 -22 -133.5t-68 -118t-116.5 -84.5t-167.5 -32q-99 0 -165 34.5t-105 86.5t-55.5 112.5t-16.5 112.5zM560 742l-4 -5h-23l-122 123l-124 -123h-23l-4 5l127 176h46z" />
    <glyph glyph-name="Otilde" unicode="&#xd5;" horiz-adv-x="822" 
d="M134 378q0 -69 16.5 -133.5t51 -115t87 -81t124.5 -30.5q45 0 92.5 16t87 53t65 97t25.5 149q0 169 -71 250.5t-211 81.5q-51 0 -99.5 -17.5t-85.5 -53t-59.5 -89.5t-22.5 -127zM53 331q0 96 30 164.5t80 113t113.5 65.5t131.5 21q186 0 273.5 -90t87.5 -252
q0 -68 -22 -133.5t-68 -118t-116.5 -84.5t-167.5 -32q-99 0 -165 34.5t-105 86.5t-55.5 112.5t-16.5 112.5zM578 861q-10 -42 -37.5 -63.5t-65.5 -21.5q-16 0 -35 5.5t-44 19.5q-24 13 -41 17.5t-27 4.5q-19 0 -38.5 -12t-29.5 -37l-15 4l-3 3q9 38 37.5 63.5t64.5 25.5
q34 0 80 -25q25 -13 42 -17t27 -4q19 0 38.5 9t29.5 35l14 -4z" />
    <glyph glyph-name="Odieresis" unicode="&#xd6;" horiz-adv-x="822" 
d="M134 378q0 -69 16.5 -133.5t51 -115t87 -81t124.5 -30.5q45 0 92.5 16t87 53t65 97t25.5 149q0 169 -71 250.5t-211 81.5q-51 0 -99.5 -17.5t-85.5 -53t-59.5 -89.5t-22.5 -127zM53 331q0 96 30 164.5t80 113t113.5 65.5t131.5 21q186 0 273.5 -90t87.5 -252
q0 -68 -22 -133.5t-68 -118t-116.5 -84.5t-167.5 -32q-99 0 -165 34.5t-105 86.5t-55.5 112.5t-16.5 112.5zM252 808q0 20 14 34t34 14t34.5 -14t14.5 -34t-14.5 -34.5t-34.5 -14.5t-34 14.5t-14 34.5zM476 808q0 20 14 34t34 14t34.5 -14t14.5 -34t-14.5 -34.5t-34.5 -14.5
t-34 14.5t-14 34.5z" />
    <glyph glyph-name="multiply" unicode="&#xd7;" horiz-adv-x="572" 
d="M467 6q-13 15 -36 40.5t-49.5 52.5t-51.5 53t-43 43q-22 -22 -47.5 -48t-50.5 -52.5t-46.5 -49.5t-35.5 -39q-8 9 -19 20.5t-21 19.5q13 10 35.5 30.5t49 46t53.5 52.5t50 51q-18 19 -44.5 44.5t-53.5 51t-51.5 48.5t-39.5 37q10 8 20 18t20 21q14 -16 37.5 -41t50 -52
t51.5 -52.5t42 -42.5q17 17 42 42.5t51 52.5t49.5 52t37.5 41q8 -9 18.5 -20t20.5 -19q-15 -13 -39.5 -36t-51.5 -49t-52.5 -51.5t-43.5 -44.5q17 -17 42.5 -42t52.5 -51t51.5 -49.5t40.5 -37.5q-10 -8 -20.5 -18.5t-18.5 -21.5z" />
    <glyph glyph-name="Oslash" unicode="&#xd8;" horiz-adv-x="822" 
d="M53 331q0 96 30 164.5t80 113t113.5 65.5t131.5 21q88 0 153 -21t110 -60l86 81h6l14 -18v-6l-84 -79q76 -88 76 -239q0 -68 -22 -133.5t-68 -118t-116.5 -84.5t-167.5 -32q-87 0 -146.5 25.5t-99.5 67.5l-97 -92h-5l-15 21v6l95 89q-42 54 -58 114.5t-16 114.5zM683 333
q0 128 -44 208l-437 -413q35 -51 87 -80.5t124 -29.5q45 0 92.5 16t87 53t65 97t25.5 149zM134 378q0 -60 12.5 -117t38.5 -105l437 412q-70 97 -221 97q-51 0 -99.5 -17.5t-85.5 -53t-59.5 -89.5t-22.5 -127z" />
    <glyph glyph-name="Ugrave" unicode="&#xd9;" horiz-adv-x="761" 
d="M191 235q0 -48 9.5 -86t32.5 -64.5t60.5 -40.5t93.5 -14q85 0 131.5 26t65.5 74q11 26 14.5 63t3.5 98v161q0 55 -1 89.5t-3 54.5t-5 29t-7 14q-9 10 -72 15l-4 3v23l4 3q10 -1 25 -1.5l30 -1t29 -0.5h23t35 0.5t64 2.5l3 -3v-23l-3 -3q-32 -2 -44.5 -6t-17.5 -9
q-4 -5 -7 -15t-4.5 -30.5t-2 -54.5t-0.5 -87v-154q0 -42 -1 -70t-4 -48.5t-7 -35.5t-10 -30q-12 -28 -32 -51.5t-50 -41t-70.5 -27t-94.5 -9.5q-80 0 -130 17.5t-78 46t-38 66t-10 78.5v260v89.5t-1 54t-3.5 28.5t-6.5 14q-5 5 -17 9t-44 6l-4 3v23l4 3q38 -2 68.5 -2.5
t40.5 -0.5q9 0 39.5 0.5t68.5 2.5l4 -3v-23l-4 -3q-32 -2 -44.5 -6t-17.5 -9q-4 -5 -6.5 -14t-3.5 -28.5t-1 -54v-89.5v-218zM412 740l-1 -6l-10 -7l-6 2l-149 151q-8 8 -8 15q0 12 13.5 21.5t24.5 9.5q6 0 12.5 -3t13.5 -14z" />
    <glyph glyph-name="Uacute" unicode="&#xda;" horiz-adv-x="761" 
d="M191 235q0 -48 9.5 -86t32.5 -64.5t60.5 -40.5t93.5 -14q85 0 131.5 26t65.5 74q11 26 14.5 63t3.5 98v161q0 55 -1 89.5t-3 54.5t-5 29t-7 14q-9 10 -72 15l-4 3v23l4 3q10 -1 25 -1.5l30 -1t29 -0.5h23t35 0.5t64 2.5l3 -3v-23l-3 -3q-32 -2 -44.5 -6t-17.5 -9
q-4 -5 -7 -15t-4.5 -30.5t-2 -54.5t-0.5 -87v-154q0 -42 -1 -70t-4 -48.5t-7 -35.5t-10 -30q-12 -28 -32 -51.5t-50 -41t-70.5 -27t-94.5 -9.5q-80 0 -130 17.5t-78 46t-38 66t-10 78.5v260v89.5t-1 54t-3.5 28.5t-6.5 14q-5 5 -17 9t-44 6l-4 3v23l4 3q38 -2 68.5 -2.5
t40.5 -0.5q9 0 39.5 0.5t68.5 2.5l4 -3v-23l-4 -3q-32 -2 -44.5 -6t-17.5 -9q-4 -5 -6.5 -14t-3.5 -28.5t-1 -54v-89.5v-218zM490 909q7 11 13.5 14t12.5 3q11 0 24.5 -9.5t13.5 -21.5q0 -7 -8 -15l-149 -151l-6 -2l-10 7l-1 6z" />
    <glyph glyph-name="Ucircumflex" unicode="&#xdb;" horiz-adv-x="761" 
d="M191 235q0 -48 9.5 -86t32.5 -64.5t60.5 -40.5t93.5 -14q85 0 131.5 26t65.5 74q11 26 14.5 63t3.5 98v161q0 55 -1 89.5t-3 54.5t-5 29t-7 14q-9 10 -72 15l-4 3v23l4 3q10 -1 25 -1.5l30 -1t29 -0.5h23t35 0.5t64 2.5l3 -3v-23l-3 -3q-32 -2 -44.5 -6t-17.5 -9
q-4 -5 -7 -15t-4.5 -30.5t-2 -54.5t-0.5 -87v-154q0 -42 -1 -70t-4 -48.5t-7 -35.5t-10 -30q-12 -28 -32 -51.5t-50 -41t-70.5 -27t-94.5 -9.5q-80 0 -130 17.5t-78 46t-38 66t-10 78.5v260v89.5t-1 54t-3.5 28.5t-6.5 14q-5 5 -17 9t-44 6l-4 3v23l4 3q38 -2 68.5 -2.5
t40.5 -0.5q9 0 39.5 0.5t68.5 2.5l4 -3v-23l-4 -3q-32 -2 -44.5 -6t-17.5 -9q-4 -5 -6.5 -14t-3.5 -28.5t-1 -54v-89.5v-218zM541 742l-4 -5h-23l-122 123l-124 -123h-23l-4 5l127 176h46z" />
    <glyph glyph-name="Udieresis" unicode="&#xdc;" horiz-adv-x="761" 
d="M191 235q0 -48 9.5 -86t32.5 -64.5t60.5 -40.5t93.5 -14q85 0 131.5 26t65.5 74q11 26 14.5 63t3.5 98v161q0 55 -1 89.5t-3 54.5t-5 29t-7 14q-9 10 -72 15l-4 3v23l4 3q10 -1 25 -1.5l30 -1t29 -0.5h23t35 0.5t64 2.5l3 -3v-23l-3 -3q-32 -2 -44.5 -6t-17.5 -9
q-4 -5 -7 -15t-4.5 -30.5t-2 -54.5t-0.5 -87v-154q0 -42 -1 -70t-4 -48.5t-7 -35.5t-10 -30q-12 -28 -32 -51.5t-50 -41t-70.5 -27t-94.5 -9.5q-80 0 -130 17.5t-78 46t-38 66t-10 78.5v260v89.5t-1 54t-3.5 28.5t-6.5 14q-5 5 -17 9t-44 6l-4 3v23l4 3q38 -2 68.5 -2.5
t40.5 -0.5q9 0 39.5 0.5t68.5 2.5l4 -3v-23l-4 -3q-32 -2 -44.5 -6t-17.5 -9q-4 -5 -6.5 -14t-3.5 -28.5t-1 -54v-89.5v-218zM228 808q0 20 14 34t34 14t34.5 -14t14.5 -34t-14.5 -34.5t-34.5 -14.5t-34 14.5t-14 34.5zM452 808q0 20 14 34t34 14t34.5 -14t14.5 -34
t-14.5 -34.5t-34.5 -14.5t-34 14.5t-14 34.5z" />
    <glyph glyph-name="Yacute" unicode="&#xdd;" horiz-adv-x="618" 
d="M280 281q-5 13 -32 59t-85 142q-11 18 -28 43.5t-34 49t-32.5 41.5t-23.5 22q-2 1 -9 3t-16 3.5t-18.5 3t-16.5 1.5l-4 5v17l4 5l120 14q14 -10 28 -27t39 -56q16 -26 36 -59.5t41.5 -70.5t43 -75.5t39.5 -73.5l207 354q5 -1 13 -1.5t17 -0.5q6 0 16 0.5t18 1.5l3 -4v-9
q-29 -33 -57.5 -71t-55.5 -77.5t-52 -79t-47 -75.5q-19 -30 -28 -48t-11 -25q-3 -12 -3 -27v-40v-90.5t1 -53t3.5 -28t6.5 -14.5q5 -5 17.5 -9t44.5 -6l4 -3v-22l-4 -3q-38 2 -68.5 2.5t-40.5 0.5q-9 0 -39.5 -0.5t-68.5 -2.5l-4 3v22l4 3q32 2 44 6t17 9q4 6 6.5 15
t3.5 28.5t1 53v89.5v55zM396 909q7 11 13.5 14t12.5 3q11 0 24.5 -9.5t13.5 -21.5q0 -7 -8 -15l-149 -151l-6 -2l-10 7l-1 6z" />
    <glyph glyph-name="Thorn" unicode="&#xde;" horiz-adv-x="595" 
d="M194 569q25 2 62 3t72 1q40 0 76 -8t64 -28t44.5 -53t16.5 -83q0 -57 -24.5 -96t-64 -63t-89 -34.5t-98.5 -10.5h-59q0 -42 0.5 -70t2 -46t3.5 -27.5t6 -13.5q5 -5 18.5 -9t45.5 -6l4 -3v-22l-4 -3q-38 2 -68.5 2.5t-40.5 0.5q-9 0 -39.5 -0.5t-68.5 -2.5l-4 3v22l4 3
q32 2 44 6t17 9q4 6 6.5 15t3.5 28.5t1 53v89.5v227v89.5t-1 54t-3.5 28.5t-6.5 14q-5 5 -17 9t-44 6l-4 3v23l4 3q38 -2 68.5 -2.5t40.5 -0.5q9 0 39.5 0.5t68.5 2.5l4 -3v-23l-4 -3q-32 -2 -46 -5.5t-18 -9.5q-8 -11 -10 -27.5t-2 -42.5zM242 226q46 0 85 9t66.5 28.5
t43 50.5t15.5 76q0 33 -8.5 61t-28 48.5t-50 32t-74.5 11.5q-19 0 -46 -1t-51 -3v-313h48z" />
    <glyph glyph-name="germandbls" unicode="&#xdf;" horiz-adv-x="570" 
d="M131 0h-52.5t-46.5 -2l-3 2v17l3 3q21 2 33 4t18.5 4t8.5 5t4 8t3.5 14t2 25t1 40t0.5 59v223h-81l-3 3v16l3 3l81 17v8q0 47 9 82.5t37 70.5q18 22 37 43t40.5 37t46 26t54.5 10q66 0 101 -40t35 -106q0 -16 -3.5 -34.5t-11.5 -32.5l-7 -6q-16 -5 -31.5 -12.5
t-27.5 -19.5t-19.5 -28t-7.5 -38q0 -37 24.5 -60t55.5 -42q22 -14 40.5 -26t31.5 -27t20.5 -34.5t7.5 -48.5q0 -35 -14.5 -65.5t-37.5 -47.5q-41 -34 -71.5 -47.5t-70.5 -13.5q-19 0 -48 3t-53 8h-109zM288 91l4 -3v-22q1 -11 9.5 -19.5t20.5 -14.5t26.5 -9t27.5 -3
q18 0 36 7t32 20.5t22.5 34.5t8.5 50q0 21 -6.5 36.5t-19.5 29.5t-32.5 28.5t-45.5 32.5q-34 23 -54 49t-20 68q0 24 9.5 44t25 36.5t34.5 29.5t37 22q8 14 8 38q0 20 -6 43t-19.5 42t-34.5 31.5t-52 12.5q-45 0 -72 -18.5t-40.5 -48t-17.5 -66t-4 -73.5v-285q0 -47 1 -75.5
t2.5 -44t3 -21t3.5 -7.5q5 -8 25 -10t51 -4q7 14 12 28.5t10 37.5l4 3h11z" />
    <glyph glyph-name="agrave" unicode="&#xe0;" horiz-adv-x="485" 
d="M330 256q-30 -7 -70 -17.5t-71 -21.5q-32 -12 -51.5 -30.5t-19.5 -56.5q0 -16 4 -32t13.5 -29.5t25.5 -22t41 -8.5q24 0 45.5 9.5t38 22t28 26t16.5 22.5v138zM393 86q0 -32 10 -47t36 -17l22 -2l3 -3v-17l-3 -3q-16 1 -31 2t-33 1t-36.5 -1t-27.5 -2l-6 6q3 37 3 75
q-14 -14 -37 -33t-46 -36q-17 -12 -32.5 -16.5t-35.5 -4.5q-35 0 -60 11t-41 29.5t-23.5 42.5t-7.5 51t8 46t21.5 32.5t32.5 22.5t41 15q43 13 92 23.5t88 18.5v19q0 64 -27 90.5t-85 26.5q-30 0 -53.5 -9t-32.5 -32l-18 -48l-3 -1l-19 5l-3 3l-2 63l3 4q12 10 29.5 20.5
t39 19t45.5 14t48 5.5q15 0 32.5 -3t35 -10t33 -20t25.5 -32q10 -21 13.5 -42.5t3.5 -56.5q0 -26 -1 -56t-1 -63v-91zM278 540l-1 -6l-10 -7l-6 2l-149 151q-8 8 -8 15q0 12 13.5 21.5t24.5 9.5q6 0 12.5 -3t13.5 -14z" />
    <glyph glyph-name="aacute" unicode="&#xe1;" horiz-adv-x="485" 
d="M330 256q-30 -7 -70 -17.5t-71 -21.5q-32 -12 -51.5 -30.5t-19.5 -56.5q0 -16 4 -32t13.5 -29.5t25.5 -22t41 -8.5q24 0 45.5 9.5t38 22t28 26t16.5 22.5v138zM393 86q0 -32 10 -47t36 -17l22 -2l3 -3v-17l-3 -3q-16 1 -31 2t-33 1t-36.5 -1t-27.5 -2l-6 6q3 37 3 75
q-14 -14 -37 -33t-46 -36q-17 -12 -32.5 -16.5t-35.5 -4.5q-35 0 -60 11t-41 29.5t-23.5 42.5t-7.5 51t8 46t21.5 32.5t32.5 22.5t41 15q43 13 92 23.5t88 18.5v19q0 64 -27 90.5t-85 26.5q-30 0 -53.5 -9t-32.5 -32l-18 -48l-3 -1l-19 5l-3 3l-2 63l3 4q12 10 29.5 20.5
t39 19t45.5 14t48 5.5q15 0 32.5 -3t35 -10t33 -20t25.5 -32q10 -21 13.5 -42.5t3.5 -56.5q0 -26 -1 -56t-1 -63v-91zM323 709q7 11 13.5 14t12.5 3q11 0 24.5 -9.5t13.5 -21.5q0 -7 -8 -15l-149 -151l-6 -2l-10 7l-1 6z" />
    <glyph glyph-name="acircumflex" unicode="&#xe2;" horiz-adv-x="485" 
d="M330 256q-30 -7 -70 -17.5t-71 -21.5q-32 -12 -51.5 -30.5t-19.5 -56.5q0 -16 4 -32t13.5 -29.5t25.5 -22t41 -8.5q24 0 45.5 9.5t38 22t28 26t16.5 22.5v138zM393 86q0 -32 10 -47t36 -17l22 -2l3 -3v-17l-3 -3q-16 1 -31 2t-33 1t-36.5 -1t-27.5 -2l-6 6q3 37 3 75
q-14 -14 -37 -33t-46 -36q-17 -12 -32.5 -16.5t-35.5 -4.5q-35 0 -60 11t-41 29.5t-23.5 42.5t-7.5 51t8 46t21.5 32.5t32.5 22.5t41 15q43 13 92 23.5t88 18.5v19q0 64 -27 90.5t-85 26.5q-30 0 -53.5 -9t-32.5 -32l-18 -48l-3 -1l-19 5l-3 3l-2 63l3 4q12 10 29.5 20.5
t39 19t45.5 14t48 5.5q15 0 32.5 -3t35 -10t33 -20t25.5 -32q10 -21 13.5 -42.5t3.5 -56.5q0 -26 -1 -56t-1 -63v-91zM402 542l-4 -5h-23l-122 123l-124 -123h-23l-4 5l127 176h46z" />
    <glyph glyph-name="atilde" unicode="&#xe3;" horiz-adv-x="485" 
d="M330 256q-30 -7 -70 -17.5t-71 -21.5q-32 -12 -51.5 -30.5t-19.5 -56.5q0 -16 4 -32t13.5 -29.5t25.5 -22t41 -8.5q24 0 45.5 9.5t38 22t28 26t16.5 22.5v138zM393 86q0 -32 10 -47t36 -17l22 -2l3 -3v-17l-3 -3q-16 1 -31 2t-33 1t-36.5 -1t-27.5 -2l-6 6q3 37 3 75
q-14 -14 -37 -33t-46 -36q-17 -12 -32.5 -16.5t-35.5 -4.5q-35 0 -60 11t-41 29.5t-23.5 42.5t-7.5 51t8 46t21.5 32.5t32.5 22.5t41 15q43 13 92 23.5t88 18.5v19q0 64 -27 90.5t-85 26.5q-30 0 -53.5 -9t-32.5 -32l-18 -48l-3 -1l-19 5l-3 3l-2 63l3 4q12 10 29.5 20.5
t39 19t45.5 14t48 5.5q15 0 32.5 -3t35 -10t33 -20t25.5 -32q10 -21 13.5 -42.5t3.5 -56.5q0 -26 -1 -56t-1 -63v-91zM426 662q-10 -42 -37.5 -63.5t-65.5 -21.5q-16 0 -35 5.5t-44 19.5q-24 13 -41 17.5t-27 4.5q-19 0 -38.5 -12t-29.5 -37l-15 4l-3 3q9 38 37.5 63.5
t64.5 25.5q34 0 80 -25q25 -13 42 -17t27 -4q19 0 38.5 9t29.5 35l14 -4z" />
    <glyph glyph-name="adieresis" unicode="&#xe4;" horiz-adv-x="485" 
d="M330 256q-30 -7 -70 -17.5t-71 -21.5q-32 -12 -51.5 -30.5t-19.5 -56.5q0 -16 4 -32t13.5 -29.5t25.5 -22t41 -8.5q24 0 45.5 9.5t38 22t28 26t16.5 22.5v138zM393 86q0 -32 10 -47t36 -17l22 -2l3 -3v-17l-3 -3q-16 1 -31 2t-33 1t-36.5 -1t-27.5 -2l-6 6q3 37 3 75
q-14 -14 -37 -33t-46 -36q-17 -12 -32.5 -16.5t-35.5 -4.5q-35 0 -60 11t-41 29.5t-23.5 42.5t-7.5 51t8 46t21.5 32.5t32.5 22.5t41 15q43 13 92 23.5t88 18.5v19q0 64 -27 90.5t-85 26.5q-30 0 -53.5 -9t-32.5 -32l-18 -48l-3 -1l-19 5l-3 3l-2 63l3 4q12 10 29.5 20.5
t39 19t45.5 14t48 5.5q15 0 32.5 -3t35 -10t33 -20t25.5 -32q10 -21 13.5 -42.5t3.5 -56.5q0 -26 -1 -56t-1 -63v-91zM101 621q0 20 14 34t34 14t34.5 -14t14.5 -34t-14.5 -34.5t-34.5 -14.5t-34 14.5t-14 34.5zM305 621q0 20 14 34t34 14t34.5 -14t14.5 -34t-14.5 -34.5
t-34.5 -14.5t-34 14.5t-14 34.5z" />
    <glyph glyph-name="aring" unicode="&#xe5;" horiz-adv-x="485" 
d="M330 256q-30 -7 -70 -17.5t-71 -21.5q-32 -12 -51.5 -30.5t-19.5 -56.5q0 -16 4 -32t13.5 -29.5t25.5 -22t41 -8.5q24 0 45.5 9.5t38 22t28 26t16.5 22.5v138zM393 86q0 -32 10 -47t36 -17l22 -2l3 -3v-17l-3 -3q-16 1 -31 2t-33 1t-36.5 -1t-27.5 -2l-6 6q3 37 3 75
q-14 -14 -37 -33t-46 -36q-17 -12 -32.5 -16.5t-35.5 -4.5q-35 0 -60 11t-41 29.5t-23.5 42.5t-7.5 51t8 46t21.5 32.5t32.5 22.5t41 15q43 13 92 23.5t88 18.5v19q0 64 -27 90.5t-85 26.5q-30 0 -53.5 -9t-32.5 -32l-18 -48l-3 -1l-19 5l-3 3l-2 63l3 4q12 10 29.5 20.5
t39 19t45.5 14t48 5.5q15 0 32.5 -3t35 -10t33 -20t25.5 -32q10 -21 13.5 -42.5t3.5 -56.5q0 -26 -1 -56t-1 -63v-91zM340 621q0 -38 -26 -63.5t-66 -25.5q-42 0 -67.5 25.5t-25.5 63.5t25.5 63t67.5 25q48 0 70 -25t22 -63zM305 621q0 29 -14 50t-43 21q-30 0 -44.5 -21
t-14.5 -50q0 -13 3 -26t10 -23t18.5 -16.5t27.5 -6.5q29 0 43 21.5t14 50.5z" />
    <glyph glyph-name="ae" unicode="&#xe6;" horiz-adv-x="770" 
d="M118 129q0 -45 23 -69.5t71 -24.5q22 0 43.5 10t40.5 24t33 28.5t21 24.5q-9 23 -12 49.5t-3 55.5v9q-62 -5 -103.5 -11t-67 -17.5t-36 -30t-10.5 -48.5zM534 424q-41 0 -66.5 -15.5t-40 -38.5t-20 -51t-7.5 -52h64t64 1t59 2t50 3q5 1 7 4.5t2 17.5q0 54 -28 91.5
t-84 37.5zM381 387q11 10 28.5 22.5t40 24t49 19t55.5 7.5q35 0 65.5 -10t53 -31.5t35 -55.5t12.5 -82v-14t-2 -12l-5 -5q-10 -2 -39 -4t-71 -4t-94 -3.5t-109 -1.5q0 -45 10.5 -82.5t31.5 -64.5t51.5 -42t71.5 -15q42 0 74 11t61 28l6 -8l-18 -29q-23 -18 -62.5 -32.5
t-96.5 -14.5q-54 0 -99 28.5t-70 80.5q-8 -9 -20 -21.5t-25 -25.5t-25.5 -23.5t-19.5 -14.5q-19 -11 -41.5 -17.5t-50.5 -6.5q-65 0 -98 37.5t-33 92.5q0 41 17.5 67t53 42t89.5 24.5t128 14.5v33q0 58 -30 87.5t-87 29.5q-30 0 -53.5 -9t-32.5 -32l-18 -48l-3 -1l-19 5
l-3 3l-2 63l3 4q12 10 29.5 20.5t39 19t45.5 14t48 5.5q14 0 33 -3.5t38 -11.5t34.5 -22t23.5 -36z" />
    <glyph glyph-name="ccedilla" unicode="&#xe7;" horiz-adv-x="430" 
d="M230 -11q-34 2 -67.5 15t-60 40t-43 69.5t-16.5 102.5q0 43 7.5 77t25.5 60q12 18 33.5 36.5t49 34.5t59.5 26t64 10q38 0 61.5 -7.5t46.5 -18.5l3 -5q-8 -32 -10.5 -63t-4.5 -55l-3 -3h-18l-3 3q0 3 -0.5 12t-1.5 19.5t-3 20t-5 14.5q-2 4 -10 10.5t-21 13.5t-30 12
t-36 5q-26 0 -50.5 -7t-43.5 -26.5t-30.5 -53.5t-11.5 -88q0 -36 9.5 -73.5t29.5 -67.5t52 -49.5t76 -19.5q42 0 68 9t45 20l6 -8l-18 -29q-17 -12 -45 -23t-74 -13l-23 -46l17 -5q11 -3 23 -9t22 -15.5t16.5 -22.5t6.5 -31q0 -27 -13.5 -46.5t-36 -31.5t-51.5 -17.5
t-60 -5.5l-3 3v21l3 2q17 0 36 2.5t35.5 10t27 20t10.5 32.5q0 29 -22.5 43.5t-53.5 20.5l-1 7z" />
    <glyph glyph-name="egrave" unicode="&#xe8;" horiz-adv-x="495" 
d="M259 424q-41 0 -66.5 -15.5t-40 -38.5t-20 -51t-7.5 -52h64t64 1t59 2t50 3q5 1 7 4.5t2 17.5q0 54 -28 91.5t-84 37.5zM254 -12q-40 0 -76.5 13.5t-64 42t-44 72.5t-16.5 104q0 16 2.5 37t7.5 42t13.5 40.5t19.5 31.5q7 9 24.5 24t41.5 29.5t54 25t63 10.5
q35 0 65.5 -10t53 -31.5t35 -55.5t12.5 -82v-14.5t-2 -11.5l-5 -5q-10 -2 -39 -4t-71 -4t-94 -3.5t-109 -1.5q0 -45 10.5 -82.5t31.5 -64.5t51.5 -42t71.5 -15q42 0 74 11t61 28l6 -8l-18 -29q-23 -18 -62.5 -32.5t-96.5 -14.5zM298 540l-1 -6l-10 -7l-6 2l-149 151
q-8 8 -8 15q0 12 13.5 21.5t24.5 9.5q6 0 12.5 -3t13.5 -14z" />
    <glyph glyph-name="eacute" unicode="&#xe9;" horiz-adv-x="495" 
d="M259 424q-41 0 -66.5 -15.5t-40 -38.5t-20 -51t-7.5 -52h64t64 1t59 2t50 3q5 1 7 4.5t2 17.5q0 54 -28 91.5t-84 37.5zM254 -12q-40 0 -76.5 13.5t-64 42t-44 72.5t-16.5 104q0 16 2.5 37t7.5 42t13.5 40.5t19.5 31.5q7 9 24.5 24t41.5 29.5t54 25t63 10.5
q35 0 65.5 -10t53 -31.5t35 -55.5t12.5 -82v-14.5t-2 -11.5l-5 -5q-10 -2 -39 -4t-71 -4t-94 -3.5t-109 -1.5q0 -45 10.5 -82.5t31.5 -64.5t51.5 -42t71.5 -15q42 0 74 11t61 28l6 -8l-18 -29q-23 -18 -62.5 -32.5t-96.5 -14.5zM339 709q7 11 13.5 14t12.5 3q11 0 24.5 -9.5
t13.5 -21.5q0 -7 -8 -15l-149 -151l-6 -2l-10 7l-1 6z" />
    <glyph glyph-name="ecircumflex" unicode="&#xea;" horiz-adv-x="495" 
d="M259 424q-41 0 -66.5 -15.5t-40 -38.5t-20 -51t-7.5 -52h64t64 1t59 2t50 3q5 1 7 4.5t2 17.5q0 54 -28 91.5t-84 37.5zM254 -12q-40 0 -76.5 13.5t-64 42t-44 72.5t-16.5 104q0 16 2.5 37t7.5 42t13.5 40.5t19.5 31.5q7 9 24.5 24t41.5 29.5t54 25t63 10.5
q35 0 65.5 -10t53 -31.5t35 -55.5t12.5 -82v-14.5t-2 -11.5l-5 -5q-10 -2 -39 -4t-71 -4t-94 -3.5t-109 -1.5q0 -45 10.5 -82.5t31.5 -64.5t51.5 -42t71.5 -15q42 0 74 11t61 28l6 -8l-18 -29q-23 -18 -62.5 -32.5t-96.5 -14.5zM411 542l-4 -5h-23l-122 123l-124 -123h-23
l-4 5l127 176h46z" />
    <glyph glyph-name="edieresis" unicode="&#xeb;" horiz-adv-x="495" 
d="M259 424q-41 0 -66.5 -15.5t-40 -38.5t-20 -51t-7.5 -52h64t64 1t59 2t50 3q5 1 7 4.5t2 17.5q0 54 -28 91.5t-84 37.5zM254 -12q-40 0 -76.5 13.5t-64 42t-44 72.5t-16.5 104q0 16 2.5 37t7.5 42t13.5 40.5t19.5 31.5q7 9 24.5 24t41.5 29.5t54 25t63 10.5
q35 0 65.5 -10t53 -31.5t35 -55.5t12.5 -82v-14.5t-2 -11.5l-5 -5q-10 -2 -39 -4t-71 -4t-94 -3.5t-109 -1.5q0 -45 10.5 -82.5t31.5 -64.5t51.5 -42t71.5 -15q42 0 74 11t61 28l6 -8l-18 -29q-23 -18 -62.5 -32.5t-96.5 -14.5zM113 621q0 20 14 34t34 14t34.5 -14t14.5 -34
t-14.5 -34.5t-34.5 -14.5t-34 14.5t-14 34.5zM317 621q0 20 14 34t34 14t34.5 -14t14.5 -34t-14.5 -34.5t-34.5 -14.5t-34 14.5t-14 34.5z" />
    <glyph glyph-name="igrave" unicode="&#xec;" horiz-adv-x="282" 
d="M175 179q0 -72 3 -105t8 -39q5 -5 17 -8.5t47 -6.5l3 -3v-17l-3 -2q-25 1 -54 1.5t-57 0.5q-29 0 -52.5 -1t-46.5 -1l-3 2v17l3 3q21 2 33 4t18.5 4t8.5 5t4 8t3.5 14t2 25t1 40t0.5 59v156q0 22 -0.5 36t-5.5 19q-4 5 -9 7t-16 3l-41 2l-3 3v16l3 3q10 1 26 5t34.5 9
t36.5 11.5t33 12.5l8 -6q-1 -9 -1.5 -26t-0.5 -35v-34.5v-25.5v-156zM202 540l-1 -6l-10 -7l-6 2l-149 151q-8 8 -8 15q0 12 13.5 21.5t24.5 9.5q6 0 12.5 -3t13.5 -14z" />
    <glyph glyph-name="iacute" unicode="&#xed;" horiz-adv-x="282" 
d="M175 179q0 -72 3 -105t8 -39q5 -5 17 -8.5t47 -6.5l3 -3v-17l-3 -2q-25 1 -54 1.5t-57 0.5q-29 0 -52.5 -1t-46.5 -1l-3 2v17l3 3q21 2 33 4t18.5 4t8.5 5t4 8t3.5 14t2 25t1 40t0.5 59v156q0 22 -0.5 36t-5.5 19q-4 5 -9 7t-16 3l-41 2l-3 3v16l3 3q10 1 26 5t34.5 9
t36.5 11.5t33 12.5l8 -6q-1 -9 -1.5 -26t-0.5 -35v-34.5v-25.5v-156zM190 709q7 11 13.5 14t12.5 3q11 0 24.5 -9.5t13.5 -21.5q0 -7 -8 -15l-149 -151l-6 -2l-10 7l-1 6z" />
    <glyph glyph-name="icircumflex" unicode="&#xee;" horiz-adv-x="282" 
d="M175 179q0 -72 3 -105t8 -39q5 -5 17 -8.5t47 -6.5l3 -3v-17l-3 -2q-25 1 -54 1.5t-57 0.5q-29 0 -52.5 -1t-46.5 -1l-3 2v17l3 3q21 2 33 4t18.5 4t8.5 5t4 8t3.5 14t2 25t1 40t0.5 59v156q0 22 -0.5 36t-5.5 19q-4 5 -9 7t-16 3l-41 2l-3 3v16l3 3q10 1 26 5t34.5 9
t36.5 11.5t33 12.5l8 -6q-1 -9 -1.5 -26t-0.5 -35v-34.5v-25.5v-156zM288 542l-4 -5h-23l-122 123l-124 -123h-23l-4 5l127 176h46z" />
    <glyph glyph-name="idieresis" unicode="&#xef;" horiz-adv-x="282" 
d="M175 179q0 -72 3 -105t8 -39q5 -5 17 -8.5t47 -6.5l3 -3v-17l-3 -2q-25 1 -54 1.5t-57 0.5q-29 0 -52.5 -1t-46.5 -1l-3 2v17l3 3q21 2 33 4t18.5 4t8.5 5t4 8t3.5 14t2 25t1 40t0.5 59v156q0 22 -0.5 36t-5.5 19q-4 5 -9 7t-16 3l-41 2l-3 3v16l3 3q10 1 26 5t34.5 9
t36.5 11.5t33 12.5l8 -6q-1 -9 -1.5 -26t-0.5 -35v-34.5v-25.5v-156zM-8 621q0 20 14 34t34 14t34.5 -14t14.5 -34t-14.5 -34.5t-34.5 -14.5t-34 14.5t-14 34.5zM196 621q0 20 14 34t34 14t34.5 -14t14.5 -34t-14.5 -34.5t-34.5 -14.5t-34 14.5t-14 34.5z" />
    <glyph glyph-name="eth" unicode="&#xf0;" horiz-adv-x="560" 
d="M152 553l-6 1l-12 20l2 6l126 40q-26 25 -66 50t-78 45v7l18 15l8 1q49 -19 92 -48t75 -55l141 46l6 -1l10 -18l-2 -6l-130 -43q37 -35 68.5 -77t54 -88t35 -94t12.5 -94q0 -56 -14 -105.5t-43 -86.5t-72.5 -58.5t-103.5 -21.5q-53 0 -94 18.5t-69 50.5t-42 75t-14 93
q0 52 16 95.5t46 75t73.5 49t99.5 17.5q32 0 58.5 -5.5t50.5 -18.5q-19 39 -49.5 83.5t-64.5 74.5zM279 18q30 0 58 9.5t49.5 33t34 62.5t12.5 98q0 40 -7.5 78.5t-26 67.5t-49 47t-76.5 18q-66 0 -106 -51t-40 -139q0 -105 39.5 -164.5t111.5 -59.5z" />
    <glyph glyph-name="ntilde" unicode="&#xf1;" horiz-adv-x="589" 
d="M174 179q0 -72 2 -105t7 -39q5 -5 18 -8.5t48 -6.5l3 -3v-17l-3 -2q-25 2 -54 2h-57h-52.5t-46.5 -2l-3 2v17l3 3q21 2 33 4t18.5 4t8.5 5t4 8t3.5 14t2 25t1 40t0.5 59v156q0 22 -0.5 36t-5.5 19q-4 5 -9 7t-16 3l-41 2l-3 3v16l3 3q10 1 26 5t34.5 9t36.5 11.5t33 12.5
l8 -6q-2 -18 -2 -33v-32v-16q8 6 20 15.5t24 19.5t22.5 19.5t15.5 15.5q14 6 30.5 10.5t46.5 4.5q46 0 75.5 -15t46.5 -39t23.5 -52.5t6.5 -55.5v-222q0 -32 9 -41.5t41 -12.5l22 -2l3 -3v-17l-3 -3q-8 0 -20.5 0.5t-26 1t-26.5 1t-22 0.5q-11 0 -25 -0.5t-28 -2.5
q-2 0 -4 4.5t-2 6.5q3 7 6 17t5 19q4 35 5.5 79t1.5 89v17q0 38 -3.5 71t-16.5 57t-37.5 38t-67.5 14q-24 0 -44.5 -8.5t-35.5 -20t-24.5 -22t-10.5 -13.5q-3 -6 -5 -29.5t-2 -75.5v-61zM470 662q-10 -42 -37.5 -63.5t-65.5 -21.5q-16 0 -35 5.5t-44 19.5q-24 13 -41 17.5
t-27 4.5q-19 0 -38.5 -12t-29.5 -37l-15 4l-3 3q9 38 37.5 63.5t64.5 25.5q34 0 80 -25q25 -13 42 -17t27 -4q19 0 38.5 9t29.5 35l14 -4z" />
    <glyph glyph-name="ograve" unicode="&#xf2;" horiz-adv-x="560" 
d="M53 216q0 52 15 97t44.5 77.5t72.5 51t100 18.5q63 0 105.5 -17t68.5 -48t37 -74t11 -94q0 -53 -19 -97t-50.5 -75.5t-72.5 -49t-86 -17.5q-68 0 -111.5 21.5t-69 54.5t-35.5 73.5t-10 78.5zM279 18q30 0 58 9t49.5 32t34 61.5t12.5 97.5q0 40 -7.5 78.5t-26 68t-49 47.5
t-76.5 18q-66 0 -106 -51.5t-40 -139.5q0 -105 39.5 -163t111.5 -58zM317 540l-1 -6l-10 -7l-6 2l-149 151q-8 8 -8 15q0 12 13.5 21.5t24.5 9.5q6 0 12.5 -3t13.5 -14z" />
    <glyph glyph-name="oacute" unicode="&#xf3;" horiz-adv-x="560" 
d="M53 216q0 52 15 97t44.5 77.5t72.5 51t100 18.5q63 0 105.5 -17t68.5 -48t37 -74t11 -94q0 -53 -19 -97t-50.5 -75.5t-72.5 -49t-86 -17.5q-68 0 -111.5 21.5t-69 54.5t-35.5 73.5t-10 78.5zM279 18q30 0 58 9t49.5 32t34 61.5t12.5 97.5q0 40 -7.5 78.5t-26 68t-49 47.5
t-76.5 18q-66 0 -106 -51.5t-40 -139.5q0 -105 39.5 -163t111.5 -58zM355 709q7 11 13.5 14t12.5 3q11 0 24.5 -9.5t13.5 -21.5q0 -7 -8 -15l-149 -151l-6 -2l-10 7l-1 6z" />
    <glyph glyph-name="ocircumflex" unicode="&#xf4;" horiz-adv-x="560" 
d="M53 216q0 52 15 97t44.5 77.5t72.5 51t100 18.5q63 0 105.5 -17t68.5 -48t37 -74t11 -94q0 -53 -19 -97t-50.5 -75.5t-72.5 -49t-86 -17.5q-68 0 -111.5 21.5t-69 54.5t-35.5 73.5t-10 78.5zM279 18q30 0 58 9t49.5 32t34 61.5t12.5 97.5q0 40 -7.5 78.5t-26 68t-49 47.5
t-76.5 18q-66 0 -106 -51.5t-40 -139.5q0 -105 39.5 -163t111.5 -58zM434 542l-4 -5h-23l-122 123l-124 -123h-23l-4 5l127 176h46z" />
    <glyph glyph-name="otilde" unicode="&#xf5;" horiz-adv-x="560" 
d="M53 216q0 52 15 97t44.5 77.5t72.5 51t100 18.5q63 0 105.5 -17t68.5 -48t37 -74t11 -94q0 -53 -19 -97t-50.5 -75.5t-72.5 -49t-86 -17.5q-68 0 -111.5 21.5t-69 54.5t-35.5 73.5t-10 78.5zM279 18q30 0 58 9t49.5 32t34 61.5t12.5 97.5q0 40 -7.5 78.5t-26 68t-49 47.5
t-76.5 18q-66 0 -106 -51.5t-40 -139.5q0 -105 39.5 -163t111.5 -58zM453 662q-10 -42 -37.5 -63.5t-65.5 -21.5q-16 0 -35 5.5t-44 19.5q-24 13 -41 17.5t-27 4.5q-19 0 -38.5 -12t-29.5 -37l-15 4l-3 3q9 38 37.5 63.5t64.5 25.5q34 0 80 -25q25 -13 42 -17t27 -4
q19 0 38.5 9t29.5 35l14 -4z" />
    <glyph glyph-name="odieresis" unicode="&#xf6;" horiz-adv-x="560" 
d="M53 216q0 52 15 97t44.5 77.5t72.5 51t100 18.5q63 0 105.5 -17t68.5 -48t37 -74t11 -94q0 -53 -19 -97t-50.5 -75.5t-72.5 -49t-86 -17.5q-68 0 -111.5 21.5t-69 54.5t-35.5 73.5t-10 78.5zM279 18q30 0 58 9t49.5 32t34 61.5t12.5 97.5q0 40 -7.5 78.5t-26 68t-49 47.5
t-76.5 18q-66 0 -106 -51.5t-40 -139.5q0 -105 39.5 -163t111.5 -58zM138 621q0 20 14 34t34 14t34.5 -14t14.5 -34t-14.5 -34.5t-34.5 -14.5t-34 14.5t-14 34.5zM342 621q0 20 14 34t34 14t34.5 -14t14.5 -34t-14.5 -34.5t-34.5 -14.5t-34 14.5t-14 34.5z" />
    <glyph glyph-name="divide" unicode="&#xf7;" horiz-adv-x="572" 
d="M334 386q0 -20 -14.5 -34t-33.5 -14q-20 0 -34.5 14t-14.5 34t14.5 34t34.5 14q19 0 33.5 -14t14.5 -34zM334 79q0 -20 -14.5 -34.5t-33.5 -14.5q-20 0 -34.5 14.5t-14.5 34.5q0 19 14.5 33t34.5 14q19 0 33.5 -14t14.5 -33zM507 208q-18 1 -43.5 2t-52 1.5t-51.5 0.5
h-42h-66q-18 0 -42.5 -0.5t-50.5 -1.5t-51 -2t-43 -2v8q0 4 0.5 8.5t0.5 9.5q0 4 -0.5 8.5t-0.5 8.5v9q18 -1 43 -2t51 -1.5t50.5 -0.5h42.5h66q18 0 43 0.5t51.5 1t51.5 1.5t43 2q-1 -3 -1 -9v-18v-17q0 -5 1 -7z" />
    <glyph glyph-name="oslash" unicode="&#xf8;" horiz-adv-x="560" 
d="M394 370q-38 60 -120 60q-66 0 -106 -44t-40 -137q0 -86 24 -138zM166 84q20 -31 48.5 -48.5t64.5 -17.5q30 0 58 9.5t49.5 33t34 62.5t12.5 98q0 32 -6.5 64.5t-18.5 58.5zM108 63q-14 16 -24.5 36t-17.5 41.5t-10 42.5t-3 39q0 52 17 96t48 75.5t73.5 49t93.5 17.5
q89 0 148 -47l57 60h3l18 -14v-3l-58 -63q25 -29 39.5 -70.5t14.5 -92.5q0 -53 -19 -97.5t-50.5 -76.5t-72.5 -50t-86 -18q-51 0 -87 15t-65 40l-59 -63l-3 -1l-18 15v3z" />
    <glyph glyph-name="ugrave" unicode="&#xf9;" horiz-adv-x="577" 
d="M107 315q0 30 -2.5 50t-7.5 25q-9 9 -30 10l-37 2l-3 3v19l3 3q12 1 29 5t36 9t37.5 11.5t32.5 12.5l9 -6q-2 -14 -2.5 -45t-0.5 -76v-129q0 -38 4 -68t15 -51t30.5 -32.5t51.5 -11.5q35 0 64.5 15.5t52.5 41.5q7 8 13.5 24.5t6.5 58.5v149q0 21 -0.5 35.5t-5.5 19.5
q-4 5 -9 7t-16 3l-45 2l-3 3v19l3 3q12 1 29 5t35.5 9t37 11.5t32.5 12.5l9 -6q-2 -14 -2.5 -45t-0.5 -76v-253q0 -32 7 -46.5t33 -16.5l22 -2l3 -3v-17l-3 -3q-26 2 -42.5 2.5t-30.5 0.5h-29.5t-22.5 -1l-3 3q2 22 2 43v43l-85 -76q-14 -12 -35.5 -16.5t-49.5 -4.5
q-40 0 -65.5 13.5t-40.5 34.5t-20.5 46t-5.5 48v182zM315 540l-1 -6l-10 -7l-6 2l-149 151q-8 8 -8 15q0 12 13.5 21.5t24.5 9.5q6 0 12.5 -3t13.5 -14z" />
    <glyph glyph-name="uacute" unicode="&#xfa;" horiz-adv-x="577" 
d="M107 315q0 30 -2.5 50t-7.5 25q-9 9 -30 10l-37 2l-3 3v19l3 3q12 1 29 5t36 9t37.5 11.5t32.5 12.5l9 -6q-2 -14 -2.5 -45t-0.5 -76v-129q0 -38 4 -68t15 -51t30.5 -32.5t51.5 -11.5q35 0 64.5 15.5t52.5 41.5q7 8 13.5 24.5t6.5 58.5v149q0 21 -0.5 35.5t-5.5 19.5
q-4 5 -9 7t-16 3l-45 2l-3 3v19l3 3q12 1 29 5t35.5 9t37 11.5t32.5 12.5l9 -6q-2 -14 -2.5 -45t-0.5 -76v-253q0 -32 7 -46.5t33 -16.5l22 -2l3 -3v-17l-3 -3q-26 2 -42.5 2.5t-30.5 0.5h-29.5t-22.5 -1l-3 3q2 22 2 43v43l-85 -76q-14 -12 -35.5 -16.5t-49.5 -4.5
q-40 0 -65.5 13.5t-40.5 34.5t-20.5 46t-5.5 48v182zM365 709q7 11 13.5 14t12.5 3q11 0 24.5 -9.5t13.5 -21.5q0 -7 -8 -15l-149 -151l-6 -2l-10 7l-1 6z" />
    <glyph glyph-name="ucircumflex" unicode="&#xfb;" horiz-adv-x="577" 
d="M107 315q0 30 -2.5 50t-7.5 25q-9 9 -30 10l-37 2l-3 3v19l3 3q12 1 29 5t36 9t37.5 11.5t32.5 12.5l9 -6q-2 -14 -2.5 -45t-0.5 -76v-129q0 -38 4 -68t15 -51t30.5 -32.5t51.5 -11.5q35 0 64.5 15.5t52.5 41.5q7 8 13.5 24.5t6.5 58.5v149q0 21 -0.5 35.5t-5.5 19.5
q-4 5 -9 7t-16 3l-45 2l-3 3v19l3 3q12 1 29 5t35.5 9t37 11.5t32.5 12.5l9 -6q-2 -14 -2.5 -45t-0.5 -76v-253q0 -32 7 -46.5t33 -16.5l22 -2l3 -3v-17l-3 -3q-26 2 -42.5 2.5t-30.5 0.5h-29.5t-22.5 -1l-3 3q2 22 2 43v43l-85 -76q-14 -12 -35.5 -16.5t-49.5 -4.5
q-40 0 -65.5 13.5t-40.5 34.5t-20.5 46t-5.5 48v182zM435 542l-4 -5h-23l-122 123l-124 -123h-23l-4 5l127 176h46z" />
    <glyph glyph-name="udieresis" unicode="&#xfc;" horiz-adv-x="577" 
d="M107 315q0 30 -2.5 50t-7.5 25q-9 9 -30 10l-37 2l-3 3v19l3 3q12 1 29 5t36 9t37.5 11.5t32.5 12.5l9 -6q-2 -14 -2.5 -45t-0.5 -76v-129q0 -38 4 -68t15 -51t30.5 -32.5t51.5 -11.5q35 0 64.5 15.5t52.5 41.5q7 8 13.5 24.5t6.5 58.5v149q0 21 -0.5 35.5t-5.5 19.5
q-4 5 -9 7t-16 3l-45 2l-3 3v19l3 3q12 1 29 5t35.5 9t37 11.5t32.5 12.5l9 -6q-2 -14 -2.5 -45t-0.5 -76v-253q0 -32 7 -46.5t33 -16.5l22 -2l3 -3v-17l-3 -3q-26 2 -42.5 2.5t-30.5 0.5h-29.5t-22.5 -1l-3 3q2 22 2 43v43l-85 -76q-14 -12 -35.5 -16.5t-49.5 -4.5
q-40 0 -65.5 13.5t-40.5 34.5t-20.5 46t-5.5 48v182zM136 621q0 20 14 34t34 14t34.5 -14t14.5 -34t-14.5 -34.5t-34.5 -14.5t-34 14.5t-14 34.5zM340 621q0 20 14 34t34 14t34.5 -14t14.5 -34t-14.5 -34.5t-34.5 -14.5t-34 14.5t-14 34.5z" />
    <glyph glyph-name="yacute" unicode="&#xfd;" horiz-adv-x="503" 
d="M227 -113q-17 -39 -35.5 -71.5t-40 -56t-46 -36.5t-53.5 -13q-9 0 -20 1t-22 4l-4 5q-4 11 -7.5 29t-5.5 32l10 4q11 -6 27 -8.5t32 -2.5q55 0 94.5 52t81.5 157q-7 22 -20 56t-29 72t-33 77.5t-31.5 72.5t-25 56.5t-13.5 30.5q-11 23 -18.5 36t-15.5 21t-15.5 10
t-16.5 4l-17 2l-3 3v17l3 3q22 -1 43.5 -2t43.5 -1q32 0 62 1t61 2l3 -3v-17l-3 -3l-25 -2q-17 -2 -29 -5.5t-12 -15.5q0 -6 5 -21t12.5 -35t17 -42.5t18.5 -42.5l77 -179l28 63q6 13 16 37t21.5 52.5t23 58t20.5 53.5q14 39 14 51q0 14 -7.5 19t-30.5 7l-21 2l-3 3v17l3 3
q20 -1 39.5 -2t39.5 -1q23 0 45 1t45 2l3 -3v-17l-3 -3l-15 -2q-10 -2 -18 -5t-17 -14q-7 -9 -15.5 -24.5t-20 -39.5t-27 -58.5t-36.5 -82.5zM370 709q7 11 13.5 14t12.5 3q11 0 24.5 -9.5t13.5 -21.5q0 -7 -8 -15l-149 -151l-6 -2l-10 7l-1 6z" />
    <glyph glyph-name="thorn" unicode="&#xfe;" horiz-adv-x="571" 
d="M172 161v-24.5t0.5 -27t1.5 -24.5t3 -16q19 -20 47.5 -28t63.5 -8q42 0 72.5 17t50.5 44t29.5 62t9.5 71q0 29 -7.5 61t-24.5 58.5t-45 43.5t-68 17q-22 0 -41 -7t-33 -15.5t-23 -16.5t-12 -11q-17 -17 -20.5 -32t-3.5 -47v-117zM108 593q0 22 -0.5 34.5t-5.5 17.5
q-4 5 -9 7t-16 3l-41 2l-3 3v17l3 3q10 1 26.5 5t34.5 9t36.5 11.5t32.5 12.5l11 -7q-2 -18 -3.5 -69t-1.5 -154v-121l3 1q12 15 31 33.5t34 33.5q14 11 40.5 19t55.5 8q46 0 80.5 -17t57 -45t33.5 -64.5t11 -75.5q0 -47 -10.5 -80.5t-26 -58t-35 -42t-37.5 -31.5
q-24 -18 -42.5 -29.5t-35.5 -18t-35 -9.5t-40 -3q-45 0 -84 19v-92q0 -72 1 -105t6 -39q4 -5 14.5 -8.5t45.5 -6.5l3 -3v-17l-3 -2q-25 1 -50 1.5t-53 0.5q-29 0 -52.5 -1t-46.5 -1l-3 2v17l3 3q21 2 33 4t18.5 4t8.5 5t4 8t3.5 14t2 25t1 40t0.5 59v678z" />
    <glyph glyph-name="ydieresis" unicode="&#xff;" horiz-adv-x="503" 
d="M227 -113q-17 -39 -35.5 -71.5t-40 -56t-46 -36.5t-53.5 -13q-9 0 -20 1t-22 4l-4 5q-4 11 -7.5 29t-5.5 32l10 4q11 -6 27 -8.5t32 -2.5q55 0 94.5 52t81.5 157q-7 22 -20 56t-29 72t-33 77.5t-31.5 72.5t-25 56.5t-13.5 30.5q-11 23 -18.5 36t-15.5 21t-15.5 10
t-16.5 4l-17 2l-3 3v17l3 3q22 -1 43.5 -2t43.5 -1q32 0 62 1t61 2l3 -3v-17l-3 -3l-25 -2q-17 -2 -29 -5.5t-12 -15.5q0 -6 5 -21t12.5 -35t17 -42.5t18.5 -42.5l77 -179l28 63q6 13 16 37t21.5 52.5t23 58t20.5 53.5q14 39 14 51q0 14 -7.5 19t-30.5 7l-21 2l-3 3v17l3 3
q20 -1 39.5 -2t39.5 -1q23 0 45 1t45 2l3 -3v-17l-3 -3l-15 -2q-10 -2 -18 -5t-17 -14q-7 -9 -15.5 -24.5t-20 -39.5t-27 -58.5t-36.5 -82.5zM118 621q0 20 14 34t34 14t34.5 -14t14.5 -34t-14.5 -34.5t-34.5 -14.5t-34 14.5t-14 34.5zM322 621q0 20 14 34t34 14t34.5 -14
t14.5 -34t-14.5 -34.5t-34.5 -14.5t-34 14.5t-14 34.5z" />
    <glyph glyph-name="Amacron" unicode="&#x100;" horiz-adv-x="700" 
d="M-1 1v21l4 3q29 3 55 29q22 24 41 66l181 392q23 51 43.5 95t38.5 89h14l183 -491q18 -49 30.5 -79.5t21 -48.5t13.5 -26t9 -12q7 -7 22 -10.5t31 -3.5l4 -4v-20l-4 -4q-26 2 -58.5 2.5t-53.5 0.5q-27 0 -55 -1t-48 -2l-4 4v20l4 4q28 1 35.5 2t14.5 3q13 4 13 22
q0 12 -8 38.5t-16 48.5l-63 170h-218l-71 -163q-18 -42 -26.5 -62.5t-8.5 -29.5q0 -14 11 -21.5t47 -7.5l4 -4v-20l-4 -4q-31 2 -49 2.5t-41 0.5q-17 0 -42.5 -0.5t-45.5 -2.5zM243 345h192l-90 232zM496 791h-264v43h264v-43z" />
    <glyph glyph-name="amacron" unicode="&#x101;" horiz-adv-x="485" 
d="M330 256q-30 -7 -70 -17.5t-71 -21.5q-32 -12 -51.5 -30.5t-19.5 -56.5q0 -16 4 -32t13.5 -29.5t25.5 -22t41 -8.5q24 0 45.5 9.5t38 22t28 26t16.5 22.5v138zM393 86q0 -32 10 -47t36 -17l22 -2l3 -3v-17l-3 -3q-16 1 -31 2t-33 1t-36.5 -1t-27.5 -2l-6 6q3 37 3 75
q-14 -14 -37 -33t-46 -36q-17 -12 -32.5 -16.5t-35.5 -4.5q-35 0 -60 11t-41 29.5t-23.5 42.5t-7.5 51t8 46t21.5 32.5t32.5 22.5t41 15q43 13 92 23.5t88 18.5v19q0 64 -27 90.5t-85 26.5q-30 0 -53.5 -9t-32.5 -32l-18 -48l-3 -1l-19 5l-3 3l-2 63l3 4q12 10 29.5 20.5
t39 19t45.5 14t48 5.5q15 0 32.5 -3t35 -10t33 -20t25.5 -32q10 -21 13.5 -42.5t3.5 -56.5q0 -26 -1 -56t-1 -63v-91zM381 591h-264v43h264v-43z" />
    <glyph glyph-name="Abreve" unicode="&#x102;" horiz-adv-x="700" 
d="M-1 1v21l4 3q29 3 55 29q22 24 41 66l181 392q23 51 43.5 95t38.5 89h14l183 -491q18 -49 30.5 -79.5t21 -48.5t13.5 -26t9 -12q7 -7 22 -10.5t31 -3.5l4 -4v-20l-4 -4q-26 2 -58.5 2.5t-53.5 0.5q-27 0 -55 -1t-48 -2l-4 4v20l4 4q28 1 35.5 2t14.5 3q13 4 13 22
q0 12 -8 38.5t-16 48.5l-63 170h-218l-71 -163q-18 -42 -26.5 -62.5t-8.5 -29.5q0 -14 11 -21.5t47 -7.5l4 -4v-20l-4 -4q-31 2 -49 2.5t-41 0.5q-17 0 -42.5 -0.5t-45.5 -2.5zM243 345h192l-90 232zM512 889q-3 -72 -38 -109t-98 -37t-99 35.5t-39 110.5l4 4h20
q7 -45 39 -75t75 -30q48 0 76.5 30t35.5 75h20z" />
    <glyph glyph-name="abreve" unicode="&#x103;" horiz-adv-x="485" 
d="M330 256q-30 -7 -70 -17.5t-71 -21.5q-32 -12 -51.5 -30.5t-19.5 -56.5q0 -16 4 -32t13.5 -29.5t25.5 -22t41 -8.5q24 0 45.5 9.5t38 22t28 26t16.5 22.5v138zM393 86q0 -32 10 -47t36 -17l22 -2l3 -3v-17l-3 -3q-16 1 -31 2t-33 1t-36.5 -1t-27.5 -2l-6 6q3 37 3 75
q-14 -14 -37 -33t-46 -36q-17 -12 -32.5 -16.5t-35.5 -4.5q-35 0 -60 11t-41 29.5t-23.5 42.5t-7.5 51t8 46t21.5 32.5t32.5 22.5t41 15q43 13 92 23.5t88 18.5v19q0 64 -27 90.5t-85 26.5q-30 0 -53.5 -9t-32.5 -32l-18 -48l-3 -1l-19 5l-3 3l-2 63l3 4q12 10 29.5 20.5
t39 19t45.5 14t48 5.5q15 0 32.5 -3t35 -10t33 -20t25.5 -32q10 -21 13.5 -42.5t3.5 -56.5q0 -26 -1 -56t-1 -63v-91zM391 689q-3 -72 -38 -109t-98 -37t-99 35.5t-39 110.5l4 4h20q7 -45 39 -75t75 -30q48 0 76.5 30t35.5 75h20z" />
    <glyph glyph-name="Aogonek" unicode="&#x104;" horiz-adv-x="700" 
d="M718 -155q-25 -13 -52.5 -19.5t-48.5 -6.5q-17 0 -33.5 3.5t-29.5 11.5t-21.5 22t-8.5 35q0 38 29 63t75 42v4q-13 0 -36.5 -0.5t-48 -1t-45 -1t-27.5 -0.5l-4 4v20l4 4q28 1 35.5 2t14.5 3q13 4 13 22q0 12 -8 38.5t-16 48.5l-63 170h-218l-71 -163q-18 -42 -26.5 -62.5
t-8.5 -29.5q0 -14 11 -21.5t47 -7.5l4 -4v-20l-4 -4q-31 2 -49 2.5t-41 0.5q-17 0 -42.5 -0.5t-45.5 -2.5l-4 4v21l4 3q32 3 54 28t42 67l181 392q23 51 43.5 95t38.5 89h14l184 -493q19 -50 31.5 -80.5t20.5 -47.5t12.5 -24.5t8.5 -11.5q7 -7 22 -10.5t31 -3.5l4 -4v-21
q-23 -6 -44 -15.5t-36.5 -22t-24.5 -28.5t-9 -34q0 -15 6 -25t15.5 -15.5t20.5 -7.5t22 -2q22 0 39.5 4t29.5 8h5l4 -12v-5zM243 345h192l-90 232z" />
    <glyph glyph-name="aogonek" unicode="&#x105;" horiz-adv-x="485" 
d="M330 256q-30 -7 -70 -17.5t-71 -21.5q-32 -12 -51.5 -30.5t-19.5 -56.5q0 -16 4 -32t13.5 -29.5t25.5 -22t41 -8.5q24 0 45.5 9.5t38 22t28 26t16.5 22.5v138zM400 0q-18 0 -38 -1t-29 -2l-6 6q3 37 3 75q-14 -14 -37 -33t-46 -36q-17 -12 -32.5 -16.5t-35.5 -4.5
q-35 0 -60 11t-41 29.5t-23.5 42.5t-7.5 51t8 46t21.5 32.5t32.5 22.5t41 15q43 13 92 23.5t88 18.5v19q0 64 -27 90.5t-85 26.5q-30 0 -53.5 -9t-32.5 -32l-18 -48l-3 -1l-19 5l-3 3l-2 63l3 4q12 10 29.5 20.5t39 19t45.5 14t48 5.5q15 0 32.5 -3t35 -10t33 -20t25.5 -32
q10 -21 13.5 -42.5t3.5 -56.5q0 -26 -1 -56t-1 -63v-91q0 -32 10 -47t36 -17l22 -2l3 -3v-17q-23 -5 -43.5 -14.5t-37 -22.5t-26 -29t-9.5 -34q0 -15 6 -25t15.5 -15.5t20.5 -7.5t22 -2q22 0 39.5 4t29.5 8h5l4 -12v-5q-25 -13 -52.5 -19.5t-48.5 -6.5q-17 0 -33.5 3.5
t-29.5 11.5t-21.5 22t-8.5 35q0 38 29 63t75 42v4z" />
    <glyph glyph-name="Cacute" unicode="&#x106;" horiz-adv-x="684" 
d="M630 36q-29 -17 -79 -34t-132 -17q-86 0 -154 26t-115 72.5t-72 109.5t-25 138q0 76 24.5 142t71.5 115.5t114.5 78t153.5 28.5q92 0 149.5 -14t86.5 -24l3 -5q-11 -32 -16.5 -64t-8.5 -74l-3 -3h-21l-3 3q0 44 -0.5 61.5t-3.5 25.5q-4 10 -20 20.5t-40.5 18.5
t-56.5 13.5t-68 5.5q-52 0 -102 -17.5t-89 -54.5t-63 -95t-24 -139q0 -55 16.5 -112.5t52.5 -105t92.5 -78t136.5 -30.5q41 0 74 6.5t58.5 16t44.5 21t32 21.5l9 -8zM506 909q7 11 13.5 14t12.5 3q11 0 24.5 -9.5t13.5 -21.5q0 -7 -8 -15l-149 -151l-6 -2l-10 7l-1 6z" />
    <glyph glyph-name="cacute" unicode="&#x107;" horiz-adv-x="430" 
d="M379 25q-19 -13 -50.5 -25t-86.5 -12q-36 0 -71.5 12.5t-64 39.5t-46 70.5t-17.5 105.5q0 43 7.5 77t25.5 60q12 18 33.5 36.5t49 34.5t59.5 26t64 10q38 0 61.5 -7.5t46.5 -18.5l3 -5q-8 -32 -11 -63t-4 -55l-3 -3h-18l-3 3q0 3 -0.5 12t-1.5 19.5t-3 20t-5 14.5
q-2 4 -10 10.5t-21 13.5t-30 12t-36 5q-26 0 -50.5 -7t-43.5 -26.5t-30.5 -53.5t-11.5 -88q0 -36 9.5 -73.5t29.5 -67.5t52 -49.5t76 -19.5q42 0 68 9t45 20l6 -8zM318 709q7 11 13.5 14t12.5 3q11 0 24.5 -9.5t13.5 -21.5q0 -7 -8 -15l-149 -151l-6 -2l-10 7l-1 6z" />
    <glyph glyph-name="Ccircumflex" unicode="&#x108;" horiz-adv-x="684" 
d="M630 36q-29 -17 -79 -34t-132 -17q-86 0 -154 26t-115 72.5t-72 109.5t-25 138q0 76 24.5 142t71.5 115.5t114.5 78t153.5 28.5q92 0 149.5 -14t86.5 -24l3 -5q-11 -32 -16.5 -64t-8.5 -74l-3 -3h-21l-3 3q0 44 -0.5 61.5t-3.5 25.5q-4 10 -20 20.5t-40.5 18.5
t-56.5 13.5t-68 5.5q-52 0 -102 -17.5t-89 -54.5t-63 -95t-24 -139q0 -55 16.5 -112.5t52.5 -105t92.5 -78t136.5 -30.5q41 0 74 6.5t58.5 16t44.5 21t32 21.5l9 -8zM573 742l-4 -5h-23l-122 123l-124 -123h-23l-4 5l127 176h46z" />
    <glyph glyph-name="ccircumflex" unicode="&#x109;" horiz-adv-x="430" 
d="M379 25q-19 -13 -50.5 -25t-86.5 -12q-36 0 -71.5 12.5t-64 39.5t-46 70.5t-17.5 105.5q0 43 7.5 77t25.5 60q12 18 33.5 36.5t49 34.5t59.5 26t64 10q38 0 61.5 -7.5t46.5 -18.5l3 -5q-8 -32 -11 -63t-4 -55l-3 -3h-18l-3 3q0 3 -0.5 12t-1.5 19.5t-3 20t-5 14.5
q-2 4 -10 10.5t-21 13.5t-30 12t-36 5q-26 0 -50.5 -7t-43.5 -26.5t-30.5 -53.5t-11.5 -88q0 -36 9.5 -73.5t29.5 -67.5t52 -49.5t76 -19.5q42 0 68 9t45 20l6 -8zM390 542l-4 -5h-23l-122 123l-124 -123h-23l-4 5l127 176h46z" />
    <glyph glyph-name="Cdotaccent" unicode="&#x10a;" horiz-adv-x="684" 
d="M630 36q-29 -17 -79 -34t-132 -17q-86 0 -154 26t-115 72.5t-72 109.5t-25 138q0 76 24.5 142t71.5 115.5t114.5 78t153.5 28.5q92 0 149.5 -14t86.5 -24l3 -5q-11 -32 -16.5 -64t-8.5 -74l-3 -3h-21l-3 3q0 44 -0.5 61.5t-3.5 25.5q-4 10 -20 20.5t-40.5 18.5
t-56.5 13.5t-68 5.5q-52 0 -102 -17.5t-89 -54.5t-63 -95t-24 -139q0 -55 16.5 -112.5t52.5 -105t92.5 -78t136.5 -30.5q41 0 74 6.5t58.5 16t44.5 21t32 21.5l9 -8zM368 817q0 20 14 34t34 14t34.5 -14t14.5 -34t-14.5 -34.5t-34.5 -14.5t-34 14.5t-14 34.5z" />
    <glyph glyph-name="cdotaccent" unicode="&#x10b;" horiz-adv-x="430" 
d="M379 25q-19 -13 -50.5 -25t-86.5 -12q-36 0 -71.5 12.5t-64 39.5t-46 70.5t-17.5 105.5q0 43 7.5 77t25.5 60q12 18 33.5 36.5t49 34.5t59.5 26t64 10q38 0 61.5 -7.5t46.5 -18.5l3 -5q-8 -32 -11 -63t-4 -55l-3 -3h-18l-3 3q0 3 -0.5 12t-1.5 19.5t-3 20t-5 14.5
q-2 4 -10 10.5t-21 13.5t-30 12t-36 5q-26 0 -50.5 -7t-43.5 -26.5t-30.5 -53.5t-11.5 -88q0 -36 9.5 -73.5t29.5 -67.5t52 -49.5t76 -19.5q42 0 68 9t45 20l6 -8zM205 617q0 20 14 34t34 14t34.5 -14t14.5 -34t-14.5 -34.5t-34.5 -14.5t-34 14.5t-14 34.5z" />
    <glyph glyph-name="Ccaron" unicode="&#x10c;" horiz-adv-x="684" 
d="M630 36q-29 -17 -79 -34t-132 -17q-86 0 -154 26t-115 72.5t-72 109.5t-25 138q0 76 24.5 142t71.5 115.5t114.5 78t153.5 28.5q92 0 149.5 -14t86.5 -24l3 -5q-11 -32 -16.5 -64t-8.5 -74l-3 -3h-21l-3 3q0 44 -0.5 61.5t-3.5 25.5q-4 10 -20 20.5t-40.5 18.5
t-56.5 13.5t-68 5.5q-52 0 -102 -17.5t-89 -54.5t-63 -95t-24 -139q0 -55 16.5 -112.5t52.5 -105t92.5 -78t136.5 -30.5q41 0 74 6.5t58.5 16t44.5 21t32 21.5l9 -8zM272 920l4 5h23l122 -123l124 123h23l4 -5l-127 -176h-46z" />
    <glyph glyph-name="ccaron" unicode="&#x10d;" horiz-adv-x="430" 
d="M379 25q-19 -13 -50.5 -25t-86.5 -12q-36 0 -71.5 12.5t-64 39.5t-46 70.5t-17.5 105.5q0 43 7.5 77t25.5 60q12 18 33.5 36.5t49 34.5t59.5 26t64 10q38 0 61.5 -7.5t46.5 -18.5l3 -5q-8 -32 -11 -63t-4 -55l-3 -3h-18l-3 3q0 3 -0.5 12t-1.5 19.5t-3 20t-5 14.5
q-2 4 -10 10.5t-21 13.5t-30 12t-36 5q-26 0 -50.5 -7t-43.5 -26.5t-30.5 -53.5t-11.5 -88q0 -36 9.5 -73.5t29.5 -67.5t52 -49.5t76 -19.5q42 0 68 9t45 20l6 -8zM106 714l4 5h23l122 -123l124 123h23l4 -5l-127 -176h-46z" />
    <glyph glyph-name="Dcaron" unicode="&#x10e;" horiz-adv-x="764" 
d="M198 147v-56t2 -52q19 -3 51.5 -4.5t66.5 -1.5q69 0 125.5 22.5t97 64t63 100.5t22.5 133q0 67 -16 115t-42.5 81t-60.5 53t-70 30.5t-70.5 14t-62.5 3.5q-30 0 -57.5 -2t-43.5 -4q-4 -27 -4.5 -59.5t-0.5 -80.5v-357zM82 0v14l4 5q11 5 20.5 9.5t10.5 7.5q5 19 6.5 69.5
t1.5 122.5v225v89.5t-1 54t-3.5 28.5t-6.5 14q-5 5 -17 9t-44 6l-4 3v23l4 3q38 -2 67 -2.5t39 -0.5q27 0 54.5 0.5t53 1t47.5 1t38 0.5q58 0 121 -13t116 -47.5t87.5 -96t34.5 -157.5q0 -62 -22.5 -127.5t-70.5 -120t-122.5 -89.5t-177.5 -35q-38 0 -73.5 1.5t-80.5 1.5
q-17 0 -36 -0.5t-42 -2.5zM184 920l4 5h23l122 -123l124 123h23l4 -5l-127 -176h-46z" />
    <glyph glyph-name="dcaron" unicode="&#x10f;" horiz-adv-x="560" 
d="M397 68q-27 -17 -51 -32.5t-54 -37.5q-5 -3 -19 -6.5t-28 -3.5q-53 0 -89.5 20t-59.5 53t-33 75.5t-10 86.5q0 42 10 71t22 46q10 16 30.5 37t48.5 39.5t61.5 31t69.5 12.5q25 0 55 -6t47 -17v153q0 22 -0.5 36t-5.5 19q-4 5 -9 7t-16 3l-41 2l-3 3v17l3 3q10 1 26.5 5
t34.5 9t36.5 11.5t32.5 12.5l11 -7q-2 -18 -3.5 -69t-1.5 -154v-372q0 -32 1 -50.5t7.5 -28t20 -13t38.5 -4.5l3 -3v-17l-3 -3q-16 1 -31 2t-33 1t-36.5 -1t-27.5 -2l-6 6q2 19 2.5 32.5t0.5 32.5zM397 311q0 6 -0.5 17t-1.5 22t-1.5 19.5t-1.5 10.5q-16 17 -49.5 30.5
t-68.5 13.5q-72 0 -112.5 -50.5t-40.5 -144.5q0 -32 8 -66t26 -62.5t46.5 -46.5t69.5 -18q22 0 43 7t37.5 18.5t28.5 25t17 27.5v197zM540 475l-7 8q21 58 35 109t19 88q20 2 30 4.5t20 7.5l10 -10q-11 -27 -22.5 -54.5t-22.5 -53t-21.5 -47.5t-19.5 -38z" />
    <glyph glyph-name="Dcroat" unicode="&#x110;" horiz-adv-x="764" 
d="M82 0v14l4 5q11 5 20.5 9.5t10.5 7.5q5 19 6.5 69.5t1.5 122.5v105h-83l-5 5v23l5 6h83v86v89.5t-1 54t-3.5 28.5t-6.5 14q-5 5 -17 9t-44 6l-4 3v23l4 3q38 -2 67 -2.5t39 -0.5q27 0 54.5 0.5t53 1t47.5 1t38 0.5q58 0 121 -13t116 -47.5t87.5 -96t34.5 -157.5
q0 -62 -22.5 -127.5t-70.5 -120t-122.5 -89.5t-177.5 -35q-38 0 -73.5 1.5t-80.5 1.5q-17 0 -36 -0.5t-42 -2.5zM198 367h176l5 -5v-24l-5 -5h-176v-186v-56t2 -52q19 -3 51.5 -4.5t66.5 -1.5q69 0 125.5 22.5t97 64t63 100.5t22.5 133q0 67 -16 115t-42.5 81t-60.5 53
t-70 30.5t-70.5 14t-62.5 3.5q-30 0 -57.5 -2t-43.5 -4q-4 -27 -4.5 -59.5t-0.5 -80.5v-137z" />
    <glyph glyph-name="dcroat" unicode="&#x111;" horiz-adv-x="560" 
d="M397 68q-27 -17 -51 -32.5t-54 -37.5q-5 -3 -19 -6.5t-28 -3.5q-53 0 -89.5 20t-59.5 53t-33 75.5t-10 86.5q0 42 10 71t22 46q10 16 30.5 37t48.5 39.5t61.5 31t69.5 12.5q25 0 55 -6t47 -17v87h-198v27h198v39q0 22 -0.5 36t-5.5 19q-4 5 -9 7t-16 3l-41 2l-3 3v17l3 3
q10 1 26.5 5t34.5 9t36.5 11.5t32.5 12.5l11 -7q-2 -15 -3 -52.5t-2 -107.5h93v-27h-93v-408q0 -32 1 -50.5t7.5 -28t20 -13t38.5 -4.5l3 -3v-17l-3 -3q-16 1 -31 2t-33 1t-36.5 -1t-27.5 -2l-6 6q2 19 2.5 32.5t0.5 32.5zM397 311q0 6 -0.5 17t-1.5 22t-1.5 19.5t-1.5 10.5
q-16 17 -49.5 30.5t-68.5 13.5q-72 0 -112.5 -50.5t-40.5 -144.5q0 -32 8 -66t26 -62.5t46.5 -46.5t69.5 -18q22 0 43 7t37.5 18.5t28.5 25t17 27.5v197z" />
    <glyph glyph-name="Emacron" unicode="&#x112;" horiz-adv-x="576" 
d="M426 242h-22l-4 4l-3 29q-2 20 -5 30.5t-11 16.5q-12 9 -53.5 11t-111.5 2h-19v-105q0 -51 0.5 -98.5t2.5 -98.5h65q88 0 145 4t78 14q9 11 18 39t15 63l3 3h22l4 -3q-3 -19 -5.5 -41t-4.5 -43t-3 -39.5t-1 -29.5l-3 -4q-23 1 -65 2t-92.5 1.5t-105 0.5h-103.5
q-17 0 -37.5 -0.5t-43.5 -2.5l-4 3v14l4 5q11 5 20.5 9.5t10.5 7.5q5 19 6.5 69.5t1.5 122.5v225v89.5t-1 54t-3.5 28.5t-6.5 14q-5 5 -17 9t-44 6l-4 3v23l4 3q38 -2 67 -2.5t39 -0.5h80t90 0.5t86.5 1.5t69.5 2l2 -3q-2 -23 -3 -57t-1 -85l-3 -4h-24l-4 4v7q0 67 -6 78
q-11 17 -62 21q-12 1 -32 1.5t-43.5 1t-48.5 0.5h-49h-14v-281h24q60 0 105.5 1t59.5 9q6 3 8 12t4 32l2 30l4 4h22l4 -4q-2 -26 -2.5 -51t-0.5 -52q0 -21 0.5 -44t2.5 -58zM416 791h-264v43h264v-43z" />
    <glyph glyph-name="emacron" unicode="&#x113;" horiz-adv-x="495" 
d="M259 424q-41 0 -66.5 -15.5t-40 -38.5t-20 -51t-7.5 -52h64t64 1t59 2t50 3q5 1 7 4.5t2 17.5q0 54 -28 91.5t-84 37.5zM254 -12q-40 0 -76.5 13.5t-64 42t-44 72.5t-16.5 104q0 16 2.5 37t7.5 42t13.5 40.5t19.5 31.5q7 9 24.5 24t41.5 29.5t54 25t63 10.5
q35 0 65.5 -10t53 -31.5t35 -55.5t12.5 -82v-14.5t-2 -11.5l-5 -5q-10 -2 -39 -4t-71 -4t-94 -3.5t-109 -1.5q0 -45 10.5 -82.5t31.5 -64.5t51.5 -42t71.5 -15q42 0 74 11t61 28l6 -8l-18 -29q-23 -18 -62.5 -32.5t-96.5 -14.5zM387 591h-264v43h264v-43z" />
    <glyph glyph-name="Ebreve" unicode="&#x114;" horiz-adv-x="576" 
d="M426 242h-22l-4 4l-3 29q-2 20 -5 30.5t-11 16.5q-12 9 -53.5 11t-111.5 2h-19v-105q0 -51 0.5 -98.5t2.5 -98.5h65q88 0 145 4t78 14q9 11 18 39t15 63l3 3h22l4 -3q-3 -19 -5.5 -41t-4.5 -43t-3 -39.5t-1 -29.5l-3 -4q-23 1 -65 2t-92.5 1.5t-105 0.5h-103.5
q-17 0 -37.5 -0.5t-43.5 -2.5l-4 3v14l4 5q11 5 20.5 9.5t10.5 7.5q5 19 6.5 69.5t1.5 122.5v225v89.5t-1 54t-3.5 28.5t-6.5 14q-5 5 -17 9t-44 6l-4 3v23l4 3q38 -2 67 -2.5t39 -0.5h80t90 0.5t86.5 1.5t69.5 2l2 -3q-2 -23 -3 -57t-1 -85l-3 -4h-24l-4 4v7q0 67 -6 78
q-11 17 -62 21q-12 1 -32 1.5t-43.5 1t-48.5 0.5h-49h-14v-281h24q60 0 105.5 1t59.5 9q6 3 8 12t4 32l2 30l4 4h22l4 -4q-2 -26 -2.5 -51t-0.5 -52q0 -21 0.5 -44t2.5 -58zM421 889q-3 -72 -38 -109t-98 -37t-99 35.5t-39 110.5l4 4h20q7 -45 39 -75t75 -30q48 0 76.5 30
t35.5 75h20z" />
    <glyph glyph-name="ebreve" unicode="&#x115;" horiz-adv-x="495" 
d="M259 424q-41 0 -66.5 -15.5t-40 -38.5t-20 -51t-7.5 -52h64t64 1t59 2t50 3q5 1 7 4.5t2 17.5q0 54 -28 91.5t-84 37.5zM254 -12q-40 0 -76.5 13.5t-64 42t-44 72.5t-16.5 104q0 16 2.5 37t7.5 42t13.5 40.5t19.5 31.5q7 9 24.5 24t41.5 29.5t54 25t63 10.5
q35 0 65.5 -10t53 -31.5t35 -55.5t12.5 -82v-14.5t-2 -11.5l-5 -5q-10 -2 -39 -4t-71 -4t-94 -3.5t-109 -1.5q0 -45 10.5 -82.5t31.5 -64.5t51.5 -42t71.5 -15q42 0 74 11t61 28l6 -8l-18 -29q-23 -18 -62.5 -32.5t-96.5 -14.5zM398 689q-3 -72 -38 -109t-98 -37t-99 35.5
t-39 110.5l4 4h20q7 -45 39 -75t75 -30q48 0 76.5 30t35.5 75h20z" />
    <glyph glyph-name="Edotaccent" unicode="&#x116;" horiz-adv-x="576" 
d="M426 242h-22l-4 4l-3 29q-2 20 -5 30.5t-11 16.5q-12 9 -53.5 11t-111.5 2h-19v-105q0 -51 0.5 -98.5t2.5 -98.5h65q88 0 145 4t78 14q9 11 18 39t15 63l3 3h22l4 -3q-3 -19 -5.5 -41t-4.5 -43t-3 -39.5t-1 -29.5l-3 -4q-23 1 -65 2t-92.5 1.5t-105 0.5h-103.5
q-17 0 -37.5 -0.5t-43.5 -2.5l-4 3v14l4 5q11 5 20.5 9.5t10.5 7.5q5 19 6.5 69.5t1.5 122.5v225v89.5t-1 54t-3.5 28.5t-6.5 14q-5 5 -17 9t-44 6l-4 3v23l4 3q38 -2 67 -2.5t39 -0.5h80t90 0.5t86.5 1.5t69.5 2l2 -3q-2 -23 -3 -57t-1 -85l-3 -4h-24l-4 4v7q0 67 -6 78
q-11 17 -62 21q-12 1 -32 1.5t-43.5 1t-48.5 0.5h-49h-14v-281h24q60 0 105.5 1t59.5 9q6 3 8 12t4 32l2 30l4 4h22l4 -4q-2 -26 -2.5 -51t-0.5 -52q0 -21 0.5 -44t2.5 -58zM241 817q0 20 14 34t34 14t34.5 -14t14.5 -34t-14.5 -34.5t-34.5 -14.5t-34 14.5t-14 34.5z" />
    <glyph glyph-name="edotaccent" unicode="&#x117;" horiz-adv-x="495" 
d="M259 424q-41 0 -66.5 -15.5t-40 -38.5t-20 -51t-7.5 -52h64t64 1t59 2t50 3q5 1 7 4.5t2 17.5q0 54 -28 91.5t-84 37.5zM254 -12q-40 0 -76.5 13.5t-64 42t-44 72.5t-16.5 104q0 16 2.5 37t7.5 42t13.5 40.5t19.5 31.5q7 9 24.5 24t41.5 29.5t54 25t63 10.5
q35 0 65.5 -10t53 -31.5t35 -55.5t12.5 -82v-14.5t-2 -11.5l-5 -5q-10 -2 -39 -4t-71 -4t-94 -3.5t-109 -1.5q0 -45 10.5 -82.5t31.5 -64.5t51.5 -42t71.5 -15q42 0 74 11t61 28l6 -8l-18 -29q-23 -18 -62.5 -32.5t-96.5 -14.5zM217 617q0 20 14 34t34 14t34.5 -14t14.5 -34
t-14.5 -34.5t-34.5 -14.5t-34 14.5t-14 34.5z" />
    <glyph glyph-name="Eogonek" unicode="&#x118;" horiz-adv-x="576" 
d="M584 -155q-25 -13 -52.5 -19.5t-48.5 -6.5q-17 0 -33.5 3.5t-29.5 11.5t-21.5 22t-8.5 35q0 32 27 60.5t70 45.5q-30 0 -69 0.5t-81.5 1t-86.5 1t-83 0.5q-17 0 -37.5 -0.5t-43.5 -2.5l-4 3v14l4 5q11 5 20.5 9.5t10.5 7.5q5 19 6.5 69.5t1.5 122.5v225v89.5t-1 54
t-3.5 28.5t-6.5 14q-5 5 -17 9t-44 6l-4 3v23l4 3q38 -2 67 -2.5t39 -0.5h80t90 0.5t86.5 1.5t69.5 2l2 -3q-2 -23 -3 -57t-1 -85l-3 -4h-24l-4 4v7q0 67 -6 78q-5 9 -18.5 13.5t-40.5 7t-69.5 3t-106.5 0.5h-14v-281h24q75 0 113 1.5t52 8.5q6 3 8 12t4 32l2 30l4 4h22
l4 -4q-2 -26 -2.5 -51t-0.5 -52q0 -21 0.5 -44t2.5 -58l-4 -4h-22l-4 4l-3 29q-2 20 -5 30.5t-11 16.5q-6 4 -24.5 6.5t-42 4t-50 2t-48.5 0.5h-19v-105q0 -51 0.5 -98.5t2.5 -98.5h65q88 0 145 4t78 14q9 11 18 39t15 63l3 3h22l4 -3q-3 -19 -5.5 -41t-4.5 -43t-3 -39.5
t-1 -29.5l-3 -4l-11 1q-42 -23 -61 -47t-19 -50q0 -15 6 -25t15.5 -15.5t20.5 -7.5t22 -2q22 0 39.5 4t29.5 8h5l4 -12v-5z" />
    <glyph glyph-name="eogonek" unicode="&#x119;" horiz-adv-x="495" 
d="M259 424q-41 0 -66.5 -15.5t-40 -38.5t-20 -51t-7.5 -52h64t64 1t59 2t50 3q5 1 7 4.5t2 17.5q0 54 -28 91.5t-84 37.5zM320 -6q-37 -14 -63 -38t-26 -56q0 -15 6 -25t15.5 -15.5t20.5 -7.5t22 -2q22 0 39.5 4t29.5 8h5l4 -12v-5q-25 -13 -52.5 -19.5t-48.5 -6.5
q-17 0 -33.5 3.5t-29.5 11.5t-21.5 22t-8.5 35q0 33 25 55.5t60 37.5l-3 4q-40 0 -77.5 13.5t-66.5 42t-46.5 72.5t-17.5 104q0 16 2.5 37t7.5 42t13.5 40.5t19.5 31.5q7 9 24.5 24t41.5 29.5t54 25t63 10.5q35 0 65.5 -10t53 -31.5t35 -55.5t12.5 -82v-14t-2 -12l-5 -5
q-10 -2 -39 -4t-71 -4t-94 -3.5t-109 -1.5q0 -45 10.5 -82.5t31.5 -64.5t51.5 -42t71.5 -15q42 0 74 11t61 28l6 -8l-18 -29q-16 -12 -39 -23t-54 -18z" />
    <glyph glyph-name="Ecaron" unicode="&#x11a;" horiz-adv-x="576" 
d="M426 242h-22l-4 4l-3 29q-2 20 -5 30.5t-11 16.5q-12 9 -53.5 11t-111.5 2h-19v-105q0 -51 0.5 -98.5t2.5 -98.5h65q88 0 145 4t78 14q9 11 18 39t15 63l3 3h22l4 -3q-3 -19 -5.5 -41t-4.5 -43t-3 -39.5t-1 -29.5l-3 -4q-23 1 -65 2t-92.5 1.5t-105 0.5h-103.5
q-17 0 -37.5 -0.5t-43.5 -2.5l-4 3v14l4 5q11 5 20.5 9.5t10.5 7.5q5 19 6.5 69.5t1.5 122.5v225v89.5t-1 54t-3.5 28.5t-6.5 14q-5 5 -17 9t-44 6l-4 3v23l4 3q38 -2 67 -2.5t39 -0.5h80t90 0.5t86.5 1.5t69.5 2l2 -3q-2 -23 -3 -57t-1 -85l-3 -4h-24l-4 4v7q0 67 -6 78
q-11 17 -62 21q-12 1 -32 1.5t-43.5 1t-48.5 0.5h-49h-14v-281h24q60 0 105.5 1t59.5 9q6 3 8 12t4 32l2 30l4 4h22l4 -4q-2 -26 -2.5 -51t-0.5 -52q0 -21 0.5 -44t2.5 -58zM139 920l4 5h23l122 -123l124 123h23l4 -5l-127 -176h-46z" />
    <glyph glyph-name="ecaron" unicode="&#x11b;" horiz-adv-x="495" 
d="M259 424q-41 0 -66.5 -15.5t-40 -38.5t-20 -51t-7.5 -52h64t64 1t59 2t50 3q5 1 7 4.5t2 17.5q0 54 -28 91.5t-84 37.5zM254 -12q-40 0 -76.5 13.5t-64 42t-44 72.5t-16.5 104q0 16 2.5 37t7.5 42t13.5 40.5t19.5 31.5q7 9 24.5 24t41.5 29.5t54 25t63 10.5
q35 0 65.5 -10t53 -31.5t35 -55.5t12.5 -82v-14.5t-2 -11.5l-5 -5q-10 -2 -39 -4t-71 -4t-94 -3.5t-109 -1.5q0 -45 10.5 -82.5t31.5 -64.5t51.5 -42t71.5 -15q42 0 74 11t61 28l6 -8l-18 -29q-23 -18 -62.5 -32.5t-96.5 -14.5zM115 714l4 5h23l122 -123l124 123h23l4 -5
l-127 -176h-46z" />
    <glyph glyph-name="Gcircumflex" unicode="&#x11c;" horiz-adv-x="764" 
d="M440 659q-73 0 -129.5 -21.5t-95.5 -61t-59 -95.5t-20 -125q0 -74 22.5 -135t63 -105.5t96.5 -69t123 -24.5q58 0 100 10.5t70 27.5q3 6 4 30t1 73v39q0 23 -15 30.5t-55 9.5l-44 2l-3 3v22l3 3q26 -1 62.5 -2t70.5 -1q22 0 48 1t41 2l2 -3v-16l-2 -3l-27 -9
q-5 -6 -7.5 -30t-2.5 -83q0 -32 0.5 -53t3.5 -35l-3 -3q-31 -17 -95.5 -34.5t-160.5 -17.5q-78 0 -147.5 23.5t-122 68.5t-83 111.5t-30.5 153.5q0 90 33 156.5t87.5 110t125.5 65t147 21.5q92 0 149.5 -14t86.5 -24l3 -4q-11 -32 -16.5 -64.5t-8.5 -74.5l-3 -3h-21l-3 3
q0 29 -0.5 54t-3.5 33q-4 10 -20 20.5t-40.5 18.5t-56.5 13.5t-68 5.5zM588 742l-4 -5h-23l-122 123l-124 -123h-23l-4 5l127 176h46z" />
    <glyph glyph-name="gcircumflex" unicode="&#x11d;" horiz-adv-x="522" 
d="M148 -2q-29 6 -45.5 25.5t-16.5 42.5q0 12 5 26t12 22l69 41q-15 2 -34 10.5t-35.5 25t-27.5 41.5t-11 60q0 30 7.5 54t25.5 44q29 32 76.5 51t101.5 19q29 0 52.5 -6t46.5 -17h16q17 0 37 0.5t38.5 1.5t34 2.5t24.5 3.5l4 -7l-16 -36h-109q13 -17 18.5 -40.5t5.5 -50.5
q0 -31 -14.5 -60t-40.5 -51.5t-64 -36t-84 -13.5h-17q-9 -4 -19 -9t-18.5 -11t-14 -14t-5.5 -19q0 -30 21 -39.5t53 -9.5q33 0 66.5 1.5t56.5 1.5q20 0 45 -4t46.5 -16.5t36.5 -35.5t15 -61q0 -47 -21.5 -85t-57.5 -64.5t-83 -41t-99 -14.5q-35 0 -69 9t-61 27t-43.5 45
t-16.5 63q0 22 4.5 42.5t18.5 32.5zM104 -121q0 -33 13 -56t33.5 -37.5t46 -21t51.5 -6.5q36 0 68 9t56 26.5t38.5 43.5t14.5 59q0 36 -14 56.5t-38 30t-55.5 11.5t-65.5 2q-20 0 -41.5 -0.5t-31.5 -1.5q-75 -33 -75 -115zM133 303q0 -25 6.5 -47.5t20.5 -39t35.5 -26.5
t51.5 -10q20 0 39.5 7.5t34.5 22.5t24.5 38.5t9.5 56.5q0 67 -28.5 94.5t-80.5 27.5q-58 0 -85.5 -35t-27.5 -89zM420 542l-4 -5h-23l-122 123l-124 -123h-23l-4 5l127 176h46z" />
    <glyph glyph-name="Gbreve" unicode="&#x11e;" horiz-adv-x="764" 
d="M440 659q-73 0 -129.5 -21.5t-95.5 -61t-59 -95.5t-20 -125q0 -74 22.5 -135t63 -105.5t96.5 -69t123 -24.5q58 0 100 10.5t70 27.5q3 6 4 30t1 73v39q0 23 -15 30.5t-55 9.5l-44 2l-3 3v22l3 3q26 -1 62.5 -2t70.5 -1q22 0 48 1t41 2l2 -3v-16l-2 -3l-27 -9
q-5 -6 -7.5 -30t-2.5 -83q0 -32 0.5 -53t3.5 -35l-3 -3q-31 -17 -95.5 -34.5t-160.5 -17.5q-78 0 -147.5 23.5t-122 68.5t-83 111.5t-30.5 153.5q0 90 33 156.5t87.5 110t125.5 65t147 21.5q92 0 149.5 -14t86.5 -24l3 -4q-11 -32 -16.5 -64.5t-8.5 -74.5l-3 -3h-21l-3 3
q0 29 -0.5 54t-3.5 33q-4 10 -20 20.5t-40.5 18.5t-56.5 13.5t-68 5.5zM574 889q-3 -72 -38 -109t-98 -37t-99 35.5t-39 110.5l4 4h20q7 -45 39 -75t75 -30q48 0 76.5 30t35.5 75h20z" />
    <glyph glyph-name="gbreve" unicode="&#x11f;" horiz-adv-x="522" 
d="M148 -2q-29 6 -45.5 25.5t-16.5 42.5q0 12 5 26t12 22l69 41q-15 2 -34 10.5t-35.5 25t-27.5 41.5t-11 60q0 30 7.5 54t25.5 44q29 32 76.5 51t101.5 19q29 0 52.5 -6t46.5 -17h16q17 0 37 0.5t38.5 1.5t34 2.5t24.5 3.5l4 -7l-16 -36h-109q13 -17 18.5 -40.5t5.5 -50.5
q0 -31 -14.5 -60t-40.5 -51.5t-64 -36t-84 -13.5h-17q-9 -4 -19 -9t-18.5 -11t-14 -14t-5.5 -19q0 -30 21 -39.5t53 -9.5q33 0 66.5 1.5t56.5 1.5q20 0 45 -4t46.5 -16.5t36.5 -35.5t15 -61q0 -47 -21.5 -85t-57.5 -64.5t-83 -41t-99 -14.5q-35 0 -69 9t-61 27t-43.5 45
t-16.5 63q0 22 4.5 42.5t18.5 32.5zM104 -121q0 -33 13 -56t33.5 -37.5t46 -21t51.5 -6.5q36 0 68 9t56 26.5t38.5 43.5t14.5 59q0 36 -14 56.5t-38 30t-55.5 11.5t-65.5 2q-20 0 -41.5 -0.5t-31.5 -1.5q-75 -33 -75 -115zM133 303q0 -25 6.5 -47.5t20.5 -39t35.5 -26.5
t51.5 -10q20 0 39.5 7.5t34.5 22.5t24.5 38.5t9.5 56.5q0 67 -28.5 94.5t-80.5 27.5q-58 0 -85.5 -35t-27.5 -89zM408 689q-3 -72 -38 -109t-98 -37t-99 35.5t-39 110.5l4 4h20q7 -45 39 -75t75 -30q48 0 76.5 30t35.5 75h20z" />
    <glyph glyph-name="Gdotaccent" unicode="&#x120;" horiz-adv-x="764" 
d="M440 659q-73 0 -129.5 -21.5t-95.5 -61t-59 -95.5t-20 -125q0 -74 22.5 -135t63 -105.5t96.5 -69t123 -24.5q58 0 100 10.5t70 27.5q3 6 4 30t1 73v39q0 23 -15 30.5t-55 9.5l-44 2l-3 3v22l3 3q26 -1 62.5 -2t70.5 -1q22 0 48 1t41 2l2 -3v-16l-2 -3l-27 -9
q-5 -6 -7.5 -30t-2.5 -83q0 -32 0.5 -53t3.5 -35l-3 -3q-31 -17 -95.5 -34.5t-160.5 -17.5q-78 0 -147.5 23.5t-122 68.5t-83 111.5t-30.5 153.5q0 90 33 156.5t87.5 110t125.5 65t147 21.5q92 0 149.5 -14t86.5 -24l3 -4q-11 -32 -16.5 -64.5t-8.5 -74.5l-3 -3h-21l-3 3
q0 29 -0.5 54t-3.5 33q-4 10 -20 20.5t-40.5 18.5t-56.5 13.5t-68 5.5zM393 817q0 20 14 34t34 14t34.5 -14t14.5 -34t-14.5 -34.5t-34.5 -14.5t-34 14.5t-14 34.5z" />
    <glyph glyph-name="gdotaccent" unicode="&#x121;" horiz-adv-x="522" 
d="M148 -2q-29 6 -45.5 25.5t-16.5 42.5q0 12 5 26t12 22l69 41q-15 2 -34 10.5t-35.5 25t-27.5 41.5t-11 60q0 30 7.5 54t25.5 44q29 32 76.5 51t101.5 19q29 0 52.5 -6t46.5 -17h16q17 0 37 0.5t38.5 1.5t34 2.5t24.5 3.5l4 -7l-16 -36h-109q13 -17 18.5 -40.5t5.5 -50.5
q0 -31 -14.5 -60t-40.5 -51.5t-64 -36t-84 -13.5h-17q-9 -4 -19 -9t-18.5 -11t-14 -14t-5.5 -19q0 -30 21 -39.5t53 -9.5q33 0 66.5 1.5t56.5 1.5q20 0 45 -4t46.5 -16.5t36.5 -35.5t15 -61q0 -47 -21.5 -85t-57.5 -64.5t-83 -41t-99 -14.5q-35 0 -69 9t-61 27t-43.5 45
t-16.5 63q0 22 4.5 42.5t18.5 32.5zM104 -121q0 -33 13 -56t33.5 -37.5t46 -21t51.5 -6.5q36 0 68 9t56 26.5t38.5 43.5t14.5 59q0 36 -14 56.5t-38 30t-55.5 11.5t-65.5 2q-20 0 -41.5 -0.5t-31.5 -1.5q-75 -33 -75 -115zM133 303q0 -25 6.5 -47.5t20.5 -39t35.5 -26.5
t51.5 -10q20 0 39.5 7.5t34.5 22.5t24.5 38.5t9.5 56.5q0 67 -28.5 94.5t-80.5 27.5q-58 0 -85.5 -35t-27.5 -89zM211 617q0 20 14 34t34 14t34.5 -14t14.5 -34t-14.5 -34.5t-34.5 -14.5t-34 14.5t-14 34.5z" />
    <glyph glyph-name="Gcommaaccent" unicode="&#x122;" horiz-adv-x="764" 
d="M440 659q-73 0 -129.5 -21.5t-95.5 -61t-59 -95.5t-20 -125q0 -74 22.5 -135t63 -105.5t96.5 -69t123 -24.5q58 0 100 10.5t70 27.5q3 6 4 30t1 73v39q0 23 -15 30.5t-55 9.5l-44 2l-3 3v22l3 3q26 -1 62.5 -2t70.5 -1q22 0 48 1t41 2l2 -3v-16l-2 -3l-27 -9
q-5 -6 -7.5 -30t-2.5 -83q0 -32 0.5 -53t3.5 -35l-3 -3q-31 -17 -95.5 -34.5t-160.5 -17.5q-78 0 -147.5 23.5t-122 68.5t-83 111.5t-30.5 153.5q0 90 33 156.5t87.5 110t125.5 65t147 21.5q92 0 149.5 -14t86.5 -24l3 -4q-11 -32 -16.5 -64.5t-8.5 -74.5l-3 -3h-21l-3 3
q0 29 -0.5 54t-3.5 33q-4 10 -20 20.5t-40.5 18.5t-56.5 13.5t-68 5.5zM377 -227q35 15 61 39.5t26 56.5q0 26 -16.5 40.5t-43.5 14.5q-5 0 -9.5 -0.5t-9.5 -1.5l-3 9q13 16 32 27q45 0 68 -21.5t23 -59.5q0 -24 -10.5 -43.5t-27 -34.5t-36 -25t-37.5 -16l-17 9v6z" />
    <glyph glyph-name="gcommaaccent" unicode="&#x123;" horiz-adv-x="522" 
d="M148 -2q-29 6 -45.5 25.5t-16.5 42.5q0 12 5 26t12 22l69 41q-15 2 -34 10.5t-35.5 25t-27.5 41.5t-11 60q0 30 7.5 54t25.5 44q29 32 76.5 51t101.5 19q29 0 52.5 -6t46.5 -17h16q17 0 37 0.5t38.5 1.5t34 2.5t24.5 3.5l4 -7l-16 -36h-109q13 -17 18.5 -40.5t5.5 -50.5
q0 -31 -14.5 -60t-40.5 -51.5t-64 -36t-84 -13.5h-17q-9 -4 -19 -9t-18.5 -11t-14 -14t-5.5 -19q0 -30 21 -39.5t53 -9.5q33 0 66.5 1.5t56.5 1.5q20 0 45 -4t46.5 -16.5t36.5 -35.5t15 -61q0 -47 -21.5 -85t-57.5 -64.5t-83 -41t-99 -14.5q-35 0 -69 9t-61 27t-43.5 45
t-16.5 63q0 22 4.5 42.5t18.5 32.5zM104 -121q0 -33 13 -56t33.5 -37.5t46 -21t51.5 -6.5q36 0 68 9t56 26.5t38.5 43.5t14.5 59q0 36 -14 56.5t-38 30t-55.5 11.5t-65.5 2q-20 0 -41.5 -0.5t-31.5 -1.5q-75 -33 -75 -115zM133 303q0 -25 6.5 -47.5t20.5 -39t35.5 -26.5
t51.5 -10q20 0 39.5 7.5t34.5 22.5t24.5 38.5t9.5 56.5q0 67 -28.5 94.5t-80.5 27.5q-58 0 -85.5 -35t-27.5 -89zM324 715q-35 -15 -61 -39.5t-26 -56.5q0 -26 16.5 -40.5t43.5 -14.5q5 0 9.5 0.5t9.5 1.5l3 -9q-13 -16 -32 -27q-45 0 -68 21.5t-23 59.5q0 24 10.5 43.5
t27 34.5t36 25t37.5 16l17 -9v-6z" />
    <glyph glyph-name="Hcircumflex" unicode="&#x124;" horiz-adv-x="797" 
d="M197 379q99 -3 202 -3q99 0 200 3v74q0 55 -0.5 89t-1.5 54t-3 29t-6 14q-5 5 -17 9t-44 6l-4 3v23l4 3q38 -2 68.5 -2.5t40.5 -0.5q9 0 39.5 0.5t68.5 2.5l4 -3v-23l-4 -3q-32 -2 -44.5 -6t-17.5 -9q-4 -5 -6 -13t-3 -27.5t-1.5 -54t-0.5 -91.5v-226q0 -59 0.5 -94
t1.5 -54t3 -26.5t6 -12.5q5 -5 17.5 -9t44.5 -6l4 -3v-22l-4 -3q-38 2 -68.5 2.5t-40.5 0.5q-9 0 -39.5 -0.5t-68.5 -2.5l-4 3v22l4 3q32 2 44 6t17 9q4 5 6 14t3 28.5t1.5 53.5t0.5 90v112q-101 3 -200 3q-103 0 -202 -3v-111q0 -59 0.5 -93.5t1.5 -53.5t3 -27t6 -13
q5 -5 17.5 -9t44.5 -6l4 -3v-22l-4 -3q-38 2 -68.5 2.5t-40.5 0.5q-9 0 -39.5 -0.5t-68.5 -2.5l-4 3v22l4 3q32 2 44 6t17 9q4 5 6 14t3 28.5t1.5 53.5t0.5 90v227q0 57 -0.5 91.5t-1.5 54t-3 27.5t-6 13q-5 5 -17 9t-44 6l-4 3v23l4 3q38 -2 68.5 -2.5t40.5 -0.5
q9 0 39.5 0.5t68.5 2.5l4 -3v-23l-4 -3q-32 -2 -44.5 -6t-17.5 -9q-4 -5 -6 -13t-3 -27t-1.5 -53.5t-0.5 -92.5v-74zM548 742l-4 -5h-23l-122 123l-124 -123h-23l-4 5l127 176h46z" />
    <glyph glyph-name="hcircumflex" unicode="&#x125;" horiz-adv-x="589" 
d="M174 179q0 -72 2 -105t7 -39q5 -5 18 -8.5t48 -6.5l3 -3v-17l-3 -2q-25 2 -54 2h-57h-52.5t-46.5 -2l-3 2v17l3 3q21 2 33 4t18.5 4t8.5 5t4 8t3.5 14t2 25t1 40t0.5 59v411q0 22 -0.5 36t-5.5 19q-4 5 -9 7t-16 3l-41 2l-3 3v17l3 3q10 1 26 5t34.5 9t36.5 11.5t33 12.5
l11 -7q-2 -18 -3.5 -69t-1.5 -154v-113q8 6 20 15.5t24 20t22.5 20.5t15.5 16q14 6 30.5 9.5t46.5 3.5q46 0 75.5 -15t46.5 -39t23.5 -52.5t6.5 -55.5v-222q0 -32 9 -41.5t41 -12.5l22 -2l3 -3v-17l-3 -3q-8 1 -20.5 1.5t-26 1t-26.5 0.5h-22q-11 0 -25 -0.5t-28 -2.5
q-2 0 -4 4.5t-2 6.5q6 18 11 36q4 35 5.5 79t1.5 89v17q0 38 -3.5 71t-16.5 57t-37.5 38t-67.5 14q-24 0 -44.5 -8.5t-35.5 -20t-24.5 -22t-10.5 -13.5q-3 -6 -5 -29.5t-2 -75.5v-61zM383 747l-3 -4h-21l-110 98l-111 -98h-21l-4 4l115 140h41z" />
    <glyph glyph-name="Hbar" unicode="&#x126;" horiz-adv-x="797" 
d="M208 639q-4 -5 -6 -13.5t-3 -26t-1.5 -45.5t-0.5 -71h402q0 43 -0.5 71t-1.5 45.5t-3 26t-6 13.5q-5 5 -17 9t-44 6l-4 3v23l4 3q38 -2 68.5 -2.5t40.5 -0.5q9 0 39.5 0.5t68.5 2.5l4 -3v-23l-4 -3q-32 -2 -44.5 -6t-17.5 -9q-4 -5 -6 -13.5t-3 -26t-1.5 -45.5t-0.5 -71
h91v-31h-91v-225v-90t1 -53.5t3.5 -28.5t6.5 -15q5 -5 17.5 -9t44.5 -6l4 -3v-22l-4 -3q-38 2 -68.5 2.5t-40.5 0.5q-9 0 -39.5 -0.5t-68.5 -2.5l-4 3v22l4 3q32 2 44 6t17 9q4 6 6.5 15t3.5 28.5t1 53v89.5v112h-402v-111v-90t1 -53.5t3.5 -28.5t6.5 -15q5 -5 17.5 -9
t44.5 -6l4 -3v-22l-4 -3q-38 2 -68.5 2.5t-40.5 0.5q-9 0 -39.5 -0.5t-68.5 -2.5l-4 3v22l4 3q32 2 44 6t17 9q4 6 6.5 15t3.5 28.5t1 53v89.5v226h-90v31h90q0 43 -0.5 71t-1.5 45.5t-3 26t-6 13.5q-5 5 -17 9t-44 6l-4 3v23l4 3q38 -2 68.5 -2.5t40.5 -0.5q9 0 39.5 0.5
t68.5 2.5l4 -3v-23l-4 -3q-32 -2 -44.5 -6t-17.5 -9zM599 374v78h-402v-78h402z" />
    <glyph glyph-name="hbar" unicode="&#x127;" horiz-adv-x="589" 
d="M174 179q0 -72 2 -105t7 -39q5 -5 18 -8.5t48 -6.5l3 -3v-17l-3 -2q-25 1 -54 1.5t-57 0.5q-29 0 -52.5 -1t-46.5 -1l-3 2v17l3 3q21 2 33 4t18.5 4t8.5 5t4 8t3.5 14t2 25t1 40t0.5 59v345h-89v27h89v39q0 22 -0.5 36t-5.5 19q-4 5 -9 7t-16 3l-41 2l-3 3v17l3 3
q10 1 26 5t34.5 9t36.5 11.5t33 12.5l11 -7q-2 -15 -3 -53t-2 -107h202v-27h-202v-149q8 6 20 15.5t24 20t22.5 20.5t15.5 16q14 6 30.5 10.5t46.5 4.5q46 0 75.5 -15.5t46.5 -39.5t23.5 -53t6.5 -56v-222q0 -32 9 -41.5t41 -12.5l22 -2l3 -3v-17l-3 -3q-8 0 -20.5 0.5
t-26 1t-26.5 1t-22 0.5q-11 0 -25 -0.5t-28 -2.5q-2 0 -4 4.5t-2 6.5l6 18t5 18q4 35 5.5 79t1.5 89v17q0 38 -3.5 71t-16.5 57t-37.5 38t-67.5 14q-24 0 -44.5 -8.5t-35.5 -20t-24.5 -22t-10.5 -13.5q-3 -6 -5 -29.5t-2 -75.5v-61z" />
    <glyph glyph-name="Itilde" unicode="&#x128;" horiz-adv-x="323" 
d="M197 226v-90.5t1 -53t3.5 -28t6.5 -14.5q5 -5 17.5 -9t44.5 -6l4 -3v-22l-4 -3q-38 2 -68.5 2.5t-40.5 0.5q-9 0 -39.5 -0.5t-68.5 -2.5l-4 3v22l4 3q32 2 44 6t17 9q4 6 6.5 15t3.5 28.5t1 53v89.5v227v89.5t-1 54t-3.5 28.5t-6.5 14q-5 5 -17 9t-44 6l-4 3v23l4 3
q38 -2 68.5 -2.5t40.5 -0.5q9 0 39.5 0.5t68.5 2.5l4 -3v-23l-4 -3q-32 -2 -44.5 -6t-17.5 -9q-4 -5 -6.5 -14t-3.5 -28.5t-1 -54v-89.5v-227zM318 856q-9 -40 -34.5 -60t-60.5 -20q-15 0 -32.5 5t-40.5 18q-22 13 -37.5 17t-24.5 4q-18 0 -36 -11.5t-27 -34.5l-14 3l-3 3
q9 36 35 60.5t59 24.5q30 0 74 -24q23 -12 39 -16t25 -4q17 0 35 8.5t28 33.5l12 -4z" />
    <glyph glyph-name="itilde" unicode="&#x129;" horiz-adv-x="282" 
d="M175 179q0 -72 3 -105t8 -39q5 -5 17 -8.5t47 -6.5l3 -3v-17l-3 -2q-25 1 -54 1.5t-57 0.5q-29 0 -52.5 -1t-46.5 -1l-3 2v17l3 3q21 2 33 4t18.5 4t8.5 5t4 8t3.5 14t2 25t1 40t0.5 59v156q0 22 -0.5 36t-5.5 19q-4 5 -9 7t-16 3l-41 2l-3 3v16l3 3q10 1 26 5t34.5 9
t36.5 11.5t33 12.5l8 -6q-1 -9 -1.5 -26t-0.5 -35v-34.5v-25.5v-156zM289 662q-9 -42 -33 -63.5t-58 -21.5q-14 0 -31 5.5t-39 19.5q-21 13 -36.5 17.5t-23.5 4.5q-17 0 -34.5 -12t-26.5 -37l-13 4l-3 3q8 38 33.5 63.5t57.5 25.5q30 0 71 -25q22 -13 37 -17t24 -4
q17 0 34 9t26 35l13 -4z" />
    <glyph glyph-name="Imacron" unicode="&#x12a;" horiz-adv-x="323" 
d="M197 226v-90.5t1 -53t3.5 -28t6.5 -14.5q5 -5 17.5 -9t44.5 -6l4 -3v-22l-4 -3q-38 2 -68.5 2.5t-40.5 0.5q-9 0 -39.5 -0.5t-68.5 -2.5l-4 3v22l4 3q32 2 44 6t17 9q4 6 6.5 15t3.5 28.5t1 53v89.5v227v89.5t-1 54t-3.5 28.5t-6.5 14q-5 5 -17 9t-44 6l-4 3v23l4 3
q38 -2 68.5 -2.5t40.5 -0.5q9 0 39.5 0.5t68.5 2.5l4 -3v-23l-4 -3q-32 -2 -44.5 -6t-17.5 -9q-4 -5 -6.5 -14t-3.5 -28.5t-1 -54v-89.5v-227zM294 791h-264v43h264v-43z" />
    <glyph glyph-name="imacron" unicode="&#x12b;" horiz-adv-x="282" 
d="M175 179q0 -72 3 -105t8 -39q5 -5 17 -8.5t47 -6.5l3 -3v-17l-3 -2q-25 1 -54 1.5t-57 0.5q-29 0 -52.5 -1t-46.5 -1l-3 2v17l3 3q21 2 33 4t18.5 4t8.5 5t4 8t3.5 14t2 25t1 40t0.5 59v156q0 22 -0.5 36t-5.5 19q-4 5 -9 7t-16 3l-41 2l-3 3v16l3 3q10 1 26 5t34.5 9
t36.5 11.5t33 12.5l8 -6q-1 -9 -1.5 -26t-0.5 -35v-34.5v-25.5v-156zM267 591h-264v43h264v-43z" />
    <glyph glyph-name="Ibreve" unicode="&#x12c;" horiz-adv-x="323" 
d="M197 226v-90.5t1 -53t3.5 -28t6.5 -14.5q5 -5 17.5 -9t44.5 -6l4 -3v-22l-4 -3q-38 2 -68.5 2.5t-40.5 0.5q-9 0 -39.5 -0.5t-68.5 -2.5l-4 3v22l4 3q32 2 44 6t17 9q4 6 6.5 15t3.5 28.5t1 53v89.5v227v89.5t-1 54t-3.5 28.5t-6.5 14q-5 5 -17 9t-44 6l-4 3v23l4 3
q38 -2 68.5 -2.5t40.5 -0.5q9 0 39.5 0.5t68.5 2.5l4 -3v-23l-4 -3q-32 -2 -44.5 -6t-17.5 -9q-4 -5 -6.5 -14t-3.5 -28.5t-1 -54v-89.5v-227zM299 889q-3 -72 -38 -109t-98 -37t-99 35.5t-39 110.5l4 4h20q7 -45 39 -75t75 -30q48 0 76.5 30t35.5 75h20z" />
    <glyph glyph-name="ibreve" unicode="&#x12d;" horiz-adv-x="282" 
d="M175 179q0 -72 3 -105t8 -39q5 -5 17 -8.5t47 -6.5l3 -3v-17l-3 -2q-25 1 -54 1.5t-57 0.5q-29 0 -52.5 -1t-46.5 -1l-3 2v17l3 3q21 2 33 4t18.5 4t8.5 5t4 8t3.5 14t2 25t1 40t0.5 59v156q0 22 -0.5 36t-5.5 19q-4 5 -9 7t-16 3l-41 2l-3 3v16l3 3q10 1 26 5t34.5 9
t36.5 11.5t33 12.5l8 -6q-1 -9 -1.5 -26t-0.5 -35v-34.5v-25.5v-156zM274 689q-3 -72 -38 -109t-98 -37t-99 35.5t-39 110.5l4 4h20q7 -45 39 -75t75 -30q48 0 76.5 30t35.5 75h20z" />
    <glyph glyph-name="Iogonek" unicode="&#x12e;" horiz-adv-x="323" 
d="M211 0h-28.5t-45 -0.5t-48 -1t-36.5 -1.5l-4 3v22l4 3q32 2 44 6t17 9q4 6 6.5 15t3.5 28.5t1 53v89.5v227v89.5t-1 54t-3.5 28.5t-6.5 14q-5 5 -17 9t-44 6l-4 3v23l4 3q38 -2 68.5 -2.5t40.5 -0.5q9 0 39.5 0.5t68.5 2.5l4 -3v-23l-4 -3q-32 -2 -44.5 -6t-17.5 -9
q-4 -5 -6.5 -14t-3.5 -28.5t-1 -54v-89.5v-227v-90.5t1 -53t3.5 -28t6.5 -14.5q5 -5 17.5 -9t44.5 -6l4 -3v-22q-23 -6 -44 -15.5t-37 -22t-25 -28.5t-9 -34q0 -15 6 -25t15.5 -15.5t20.5 -7.5t22 -2q22 0 39.5 4t29.5 8h5l4 -12v-5q-25 -13 -52.5 -19.5t-48.5 -6.5
q-17 0 -33.5 3.5t-29.5 11.5t-21.5 22t-8.5 35q0 38 29 63t75 42v4z" />
    <glyph glyph-name="iogonek" unicode="&#x12f;" horiz-adv-x="282" 
d="M94 621q0 20 14 34t34 14t34.5 -14t14.5 -34t-14.5 -34.5t-34.5 -14.5t-34 14.5t-14 34.5zM191 0q-12 0 -33.5 -0.5t-44.5 -0.5t-43 -0.5t-30 -0.5l-3 2v17l3 3q21 2 33 4t18.5 4t8.5 5t4 8t3.5 14t2 25t1 40t0.5 59v156q0 22 -0.5 36t-5.5 19q-4 5 -9 7t-16 3l-41 2
l-3 3v16l3 3q10 1 26 5t34.5 9t36.5 11.5t33 12.5l8 -6q-1 -9 -1.5 -26t-0.5 -35v-34.5v-25.5v-156q0 -72 3 -105t8 -39q5 -5 17 -8.5t47 -6.5l3 -3v-16q-23 -6 -44 -15.5t-36.5 -22.5t-24.5 -29t-9 -34q0 -15 6 -25t15.5 -15.5t20.5 -7.5t22 -2q22 0 39.5 4t29.5 8h5l4 -12
v-5q-25 -13 -52.5 -19.5t-48.5 -6.5q-17 0 -33.5 3.5t-29.5 11.5t-21.5 22t-8.5 35q0 38 29 63t75 42v4z" />
    <glyph glyph-name="Idotaccent" unicode="&#x130;" horiz-adv-x="323" 
d="M197 226v-90.5t1 -53t3.5 -28t6.5 -14.5q5 -5 17.5 -9t44.5 -6l4 -3v-22l-4 -3q-38 2 -68.5 2.5t-40.5 0.5q-9 0 -39.5 -0.5t-68.5 -2.5l-4 3v22l4 3q32 2 44 6t17 9q4 6 6.5 15t3.5 28.5t1 53v89.5v227v89.5t-1 54t-3.5 28.5t-6.5 14q-5 5 -17 9t-44 6l-4 3v23l4 3
q38 -2 68.5 -2.5t40.5 -0.5q9 0 39.5 0.5t68.5 2.5l4 -3v-23l-4 -3q-32 -2 -44.5 -6t-17.5 -9q-4 -5 -6.5 -14t-3.5 -28.5t-1 -54v-89.5v-227zM112 817q0 20 14 34t34 14t34.5 -14t14.5 -34t-14.5 -34.5t-34.5 -14.5t-34 14.5t-14 34.5z" />
    <glyph glyph-name="dotlessi" unicode="&#x131;" horiz-adv-x="282" 
d="M175 179q0 -72 3 -105t8 -39q5 -5 17 -8.5t47 -6.5l3 -3v-17l-3 -2q-25 1 -54 1.5t-57 0.5q-29 0 -52.5 -1t-46.5 -1l-3 2v17l3 3q21 2 33 4t18.5 4t8.5 5t4 8t3.5 14t2 25t1 40t0.5 59v156q0 22 -0.5 36t-5.5 19q-4 5 -9 7t-16 3l-41 2l-3 3v16l3 3q10 1 26 5t34.5 9
t36.5 11.5t33 12.5l8 -6q-1 -9 -1.5 -26t-0.5 -35v-34.5v-25.5v-156z" />
    <glyph glyph-name="Jcircumflex" unicode="&#x134;" horiz-adv-x="321" 
d="M136 453v89.5t-1 54t-3.5 28.5t-6.5 14q-5 5 -19.5 9t-46.5 6l-4 3v23l4 3q38 -2 68.5 -2.5t40.5 -0.5q9 0 40 0.5t69 2.5l4 -3v-23l-4 -3q-32 -2 -42.5 -6t-14.5 -9t-6.5 -14t-3.5 -28.5t-1 -54v-89.5v-349q0 -66 -16 -123t-51 -99t-72.5 -65t-80.5 -23q-8 0 -17.5 2
t-10.5 5q3 13 6 31t5 33l8 6q12 -9 27.5 -13.5t25.5 -4.5q24 0 46.5 11t35.5 35t17 68.5t4 98.5v387zM318 742l-4 -5h-23l-122 123l-124 -123h-23l-4 5l127 176h46z" />
    <glyph glyph-name="jcircumflex" unicode="&#x135;" horiz-adv-x="280" 
d="M116 335q0 22 -0.5 36t-5.5 19q-4 5 -9 7t-16 3l-41 2l-3 3v16l3 3q10 1 26 5t34.5 9t36.5 11.5t33 12.5l8 -6q-1 -9 -1.5 -26t-0.5 -35v-34.5v-25.5v-301q0 -48 -5 -100.5t-24 -97t-57.5 -76t-105.5 -38.5l-10 -1l-9 18l4 6q51 5 79.5 37t43 77t17.5 94.5t3 89.5v292z
M294 542l-4 -5h-23l-122 123l-124 -123h-23l-4 5l127 176h46z" />
    <glyph glyph-name="Kcommaaccent" unicode="&#x136;" horiz-adv-x="690" 
d="M484 678l4 4q11 -1 26.5 -1.5t33.5 -0.5q16 0 34.5 0.5t36.5 1.5l3 -4v-20l-3 -4q-36 -2 -60 -9q-16 -5 -41 -28.5t-73 -69.5l-174 -171l275 -278q38 -38 65 -54.5t65 -18.5l3 -4v-19l-3 -4q-24 1 -44 1.5t-35 0.5h-21.5t-37.5 -2q-7 8 -14.5 17t-21 23.5t-35.5 37
t-57.5 58.5t-87.5 88t-125 124v-119v-90t1 -53.5t3.5 -28.5t6.5 -15q5 -5 17.5 -9t44.5 -6l4 -3v-22l-4 -3q-38 2 -68.5 2.5t-40.5 0.5q-9 0 -39.5 -0.5t-68.5 -2.5l-4 3v22l4 3q32 2 44 6t17 9q4 6 6.5 15t3.5 28.5t1 53v89.5v227v89.5t-1 54t-3.5 28.5t-6.5 14q-5 5 -17 9
t-44 6l-4 3v23l4 3q38 -2 68.5 -2.5t40.5 -0.5q9 0 39.5 0.5t68.5 2.5l4 -3v-23l-4 -3q-32 -2 -44.5 -6t-17.5 -9q-4 -5 -6.5 -14t-3.5 -28.5t-1 -54v-89.5v-102q94 85 164 160t124 147zM303 -227q35 15 61 39.5t26 56.5q0 26 -16.5 40.5t-43.5 14.5q-5 0 -9.5 -0.5
t-9.5 -1.5l-3 9q13 16 32 27q45 0 68 -21.5t23 -59.5q0 -24 -10.5 -43.5t-27 -34.5t-36 -25t-37.5 -16l-17 9v6z" />
    <glyph glyph-name="kcommaaccent" unicode="&#x137;" horiz-adv-x="531" 
d="M199 -227q35 15 61 39.5t26 56.5q0 26 -16.5 40.5t-43.5 14.5q-5 0 -9.5 -0.5t-9.5 -1.5l-3 9q13 16 32 27q45 0 68 -21.5t23 -59.5q0 -24 -10.5 -43.5t-27 -34.5t-36 -25t-37.5 -16l-17 9v6zM174 266q20 14 47.5 35.5t53.5 44t46 42.5t26 31q2 7 2.5 12t0.5 7l3 3h64
q3 0 11 0.5t18 0.5t20.5 0.5t18.5 0.5l4 -4v-15l-3 -5q-20 -1 -36.5 -3t-23.5 -4q-21 -6 -62.5 -34t-92.5 -73l-36 -31q48 -54 97 -104t87 -86q20 -19 32.5 -28.5t25.5 -11.5q8 -2 25 -2h23l3 -3v-16q-14 -3 -30 -6.5t-31 -7.5t-27.5 -7.5t-21.5 -6.5h-10q-20 22 -46.5 51
t-57.5 62t-64 68t-66 69v-66q0 -72 2 -105t7 -39q5 -5 18 -8.5t48 -6.5l3 -3v-17l-3 -2q-25 2 -54 2h-57h-52.5t-46.5 -2l-3 2v17l3 3q21 2 33 4t18.5 4t8.5 5t4 8t3.5 14t2 25t1 40t0.5 59v411q0 22 -0.5 36t-5.5 19q-4 5 -9 7t-16 3l-41 2l-3 3v17l3 3q10 1 26 5t34.5 9
t36.5 11.5t33 12.5l11 -7q-2 -18 -3.5 -69t-1.5 -154v-222z" />
    <glyph glyph-name="kgreenlandic" unicode="&#x138;" horiz-adv-x="531" 
d="M174 244q24 19 51 44.5t51 51t42.5 47t24.5 32.5q2 7 2.5 12t0.5 7l3 3h68q3 0 11 0.5t18 0.5t20.5 0.5t18.5 0.5l4 -4v-15l-3 -5q-20 -1 -36.5 -3t-23.5 -4q-11 -3 -24.5 -10.5t-33 -22t-45 -37.5t-59.5 -57l-30 -30q51 -54 97.5 -98t87.5 -78q23 -19 34 -26t24 -9
q8 -2 25 -2h23l3 -3v-16q-14 -3 -31.5 -6.5t-34 -7.5t-30.5 -7.5t-23 -6.5h-10q-40 44 -99.5 102t-125.5 126v-44q0 -72 2 -105t7 -39q5 -5 18 -8.5t48 -6.5l3 -3v-17l-3 -2q-25 2 -54 2h-57h-52.5t-46.5 -2l-3 2v17l3 3q21 2 33 4t18.5 4t8.5 5t4 8t3.5 14t2 25t1 40
t0.5 59v156q0 22 -0.5 36t-5.5 19q-4 5 -9 7t-16 3l-41 2l-3 3v16l3 3q10 1 26 5t34.5 9t36.5 11.5t33 12.5l8 -6q-1 -9 -1.5 -26t-0.5 -35v-34.5v-25.5v-91z" />
    <glyph glyph-name="Lacute" unicode="&#x139;" horiz-adv-x="595" 
d="M82 0v14l4 5q11 5 20.5 9.5t10.5 7.5q5 19 6.5 69.5t1.5 122.5v225v89.5t-1 54t-3.5 28.5t-6.5 14q-5 5 -17 9t-44 6l-4 3v23l4 3q38 -2 68.5 -2.5t40.5 -0.5q9 0 39.5 0.5t68.5 2.5l4 -3v-23l-4 -3q-32 -2 -44.5 -6t-17.5 -9q-4 -5 -6.5 -14t-3.5 -28.5t-1 -54v-89.5
v-226q0 -21 0.5 -50t1 -57.5t1.5 -51.5t2 -32h98q38 0 72.5 1.5t61.5 4.5t45 6.5t23 7.5q4 4 9.5 18t10 31.5t8 35t5.5 28.5l3 3h23l3 -3q-3 -19 -6.5 -42t-7 -46.5t-5.5 -44.5t-2 -36l-3 -3q-38 0 -87 0.5t-99.5 1t-99.5 1t-87 0.5q-17 0 -37.5 -0.5t-43.5 -2.5zM236 909
q7 11 13.5 14t12.5 3q11 0 24.5 -9.5t13.5 -21.5q0 -7 -8 -15l-149 -151l-6 -2l-10 7l-1 6z" />
    <glyph glyph-name="lacute" unicode="&#x13a;" horiz-adv-x="281" 
d="M174 179q0 -72 2 -105t7 -39q5 -5 18 -8.5t48 -6.5l3 -3v-17l-3 -2q-25 2 -54 2h-57h-52.5t-46.5 -2l-3 2v17l3 3q21 2 33 4t18.5 4t8.5 5t4 8t3.5 14t2 25t1 40t0.5 59v411q0 22 -0.5 36t-5.5 19q-4 5 -9 7t-16 3l-41 2l-3 3v17l3 3q10 1 26 5t34.5 9t36.5 11.5t33 12.5
l11 -7q-2 -18 -3.5 -69t-1.5 -154v-309zM178 860q6 8 12 10t11 2q10 0 22 -6.5t12 -15.5q0 -4 -7 -10l-134 -105l-6 -2l-9 5l-1 4z" />
    <glyph glyph-name="Lcommaaccent" unicode="&#x13b;" horiz-adv-x="595" 
d="M82 0v14l4 5q11 5 20.5 9.5t10.5 7.5q5 19 6.5 69.5t1.5 122.5v225v89.5t-1 54t-3.5 28.5t-6.5 14q-5 5 -17 9t-44 6l-4 3v23l4 3q38 -2 68.5 -2.5t40.5 -0.5q9 0 39.5 0.5t68.5 2.5l4 -3v-23l-4 -3q-32 -2 -44.5 -6t-17.5 -9q-4 -5 -6.5 -14t-3.5 -28.5t-1 -54v-89.5
v-226q0 -21 0.5 -50t1 -57.5t1.5 -51.5t2 -32h98q38 0 72.5 1.5t61.5 4.5t45 6.5t23 7.5q4 4 9.5 18t10 31.5t8 35t5.5 28.5l3 3h23l3 -3q-3 -19 -6.5 -42t-7 -46.5t-5.5 -44.5t-2 -36l-3 -3q-38 0 -87 0.5t-99.5 1t-99.5 1t-87 0.5q-17 0 -37.5 -0.5t-43.5 -2.5zM233 -227
q35 15 61 39.5t26 56.5q0 26 -16.5 40.5t-43.5 14.5q-5 0 -9.5 -0.5t-9.5 -1.5l-3 9q13 16 32 27q45 0 68 -21.5t23 -59.5q0 -24 -10.5 -43.5t-27 -34.5t-36 -25t-37.5 -16l-17 9v6z" />
    <glyph glyph-name="lcommaaccent" unicode="&#x13c;" horiz-adv-x="281" 
d="M174 179q0 -72 2 -105t7 -39q5 -5 18 -8.5t48 -6.5l3 -3v-17l-3 -2q-25 2 -54 2h-57h-52.5t-46.5 -2l-3 2v17l3 3q21 2 33 4t18.5 4t8.5 5t4 8t3.5 14t2 25t1 40t0.5 59v411q0 22 -0.5 36t-5.5 19q-4 5 -9 7t-16 3l-41 2l-3 3v17l3 3q10 1 26 5t34.5 9t36.5 11.5t33 12.5
l11 -7q-2 -18 -3.5 -69t-1.5 -154v-309zM79 -227q35 15 61 39.5t26 56.5q0 26 -16.5 40.5t-43.5 14.5q-5 0 -9.5 -0.5t-9.5 -1.5l-3 9q13 16 32 27q45 0 68 -21.5t23 -59.5q0 -24 -10.5 -43.5t-27 -34.5t-36 -25t-37.5 -16l-17 9v6z" />
    <glyph glyph-name="Lcaron" unicode="&#x13d;" horiz-adv-x="595" 
d="M82 0v14l4 5q11 5 20.5 9.5t10.5 7.5q5 19 6.5 69.5t1.5 122.5v225v89.5t-1 54t-3.5 28.5t-6.5 14q-5 5 -17 9t-44 6l-4 3v23l4 3q38 -2 68.5 -2.5t40.5 -0.5q9 0 39.5 0.5t68.5 2.5l4 -3v-23l-4 -3q-32 -2 -44.5 -6t-17.5 -9q-4 -5 -6.5 -14t-3.5 -28.5t-1 -54v-89.5
v-226q0 -21 0.5 -50t1 -57.5t1.5 -51.5t2 -32h98q38 0 72.5 1.5t61.5 4.5t45 6.5t23 7.5q4 4 9.5 18t10 31.5t8 35t5.5 28.5l3 3h23l3 -3q-3 -19 -6.5 -42t-7 -46.5t-5.5 -44.5t-2 -36l-3 -3q-38 0 -87 0.5t-99.5 1t-99.5 1t-87 0.5q-17 0 -37.5 -0.5t-43.5 -2.5zM301 475
l-7 8q21 58 35 109t19 88q20 2 30 4.5t20 7.5l10 -10q-11 -27 -22.5 -54.5t-22.5 -53t-21.5 -47.5t-19.5 -38z" />
    <glyph glyph-name="lcaron" unicode="&#x13e;" horiz-adv-x="281" 
d="M174 179q0 -72 2 -105t7 -39q5 -5 18 -8.5t48 -6.5l3 -3v-17l-3 -2q-25 2 -54 2h-57h-52.5t-46.5 -2l-3 2v17l3 3q21 2 33 4t18.5 4t8.5 5t4 8t3.5 14t2 25t1 40t0.5 59v411q0 22 -0.5 36t-5.5 19q-4 5 -9 7t-16 3l-41 2l-3 3v17l3 3q10 1 26 5t34.5 9t36.5 11.5t33 12.5
l11 -7q-2 -18 -3.5 -69t-1.5 -154v-309zM252 475l-7 8q21 58 35 109t19 88q20 2 30 4.5t20 7.5l10 -10q-11 -27 -22.5 -54.5t-22.5 -53t-21.5 -47.5t-19.5 -38z" />
    <glyph glyph-name="Ldot" unicode="&#x13f;" horiz-adv-x="595" 
d="M82 0v14l4 5q11 5 20.5 9.5t10.5 7.5q5 19 6.5 69.5t1.5 122.5v225v89.5t-1 54t-3.5 28.5t-6.5 14q-5 5 -17 9t-44 6l-4 3v23l4 3q38 -2 68.5 -2.5t40.5 -0.5q9 0 39.5 0.5t68.5 2.5l4 -3v-23l-4 -3q-32 -2 -44.5 -6t-17.5 -9q-4 -5 -6.5 -14t-3.5 -28.5t-1 -54v-89.5
v-226q0 -21 0.5 -50t1 -57.5t1.5 -51.5t2 -32h98q38 0 72.5 1.5t61.5 4.5t45 6.5t23 7.5q4 4 9.5 18t10 31.5t8 35t5.5 28.5l3 3h23l3 -3q-3 -19 -6.5 -42t-7 -46.5t-5.5 -44.5t-2 -36l-3 -3q-38 0 -87 0.5t-99.5 1t-99.5 1t-87 0.5q-17 0 -37.5 -0.5t-43.5 -2.5zM377 354
q0 20 14 34t34 14t34.5 -14t14.5 -34t-14.5 -34.5t-34.5 -14.5t-34 14.5t-14 34.5z" />
    <glyph glyph-name="ldot" unicode="&#x140;" horiz-adv-x="350" 
d="M174 179q0 -72 2 -105t7 -39q5 -5 18 -8.5t48 -6.5l3 -3v-17l-3 -2q-25 2 -54 2h-57h-52.5t-46.5 -2l-3 2v17l3 3q21 2 33 4t18.5 4t8.5 5t4 8t3.5 14t2 25t1 40t0.5 59v411q0 22 -0.5 36t-5.5 19q-4 5 -9 7t-16 3l-41 2l-3 3v17l3 3q10 1 26 5t34.5 9t36.5 11.5t33 12.5
l11 -7q-2 -18 -3.5 -69t-1.5 -154v-309zM260 353q0 20 14 34t34 14t34.5 -14t14.5 -34t-14.5 -34.5t-34.5 -14.5t-34 14.5t-14 34.5z" />
    <glyph glyph-name="Lslash" unicode="&#x141;" horiz-adv-x="595" 
d="M82 0v14l4 5q11 5 20.5 9.5t10.5 7.5q5 19 6.5 69.5t1.5 122.5v81l-82 -73h-5l-14 18v6l101 90v103v89.5t-1 54t-3.5 28.5t-6.5 14q-5 5 -17 9t-44 6l-4 3v23l4 3q38 -2 68.5 -2.5t40.5 -0.5q9 0 39.5 0.5t68.5 2.5l4 -3v-23l-4 -3q-32 -2 -44.5 -6t-17.5 -9
q-4 -5 -6.5 -14t-3.5 -28.5t-1 -54v-89.5v-38l119 106h6l13 -16v-5l-138 -126v-147q0 -21 0.5 -50t1 -57.5t1.5 -51.5t2 -32h98q38 0 72.5 1.5t61.5 4.5t45 6.5t23 7.5q4 4 9.5 18t10 31.5t8 35t5.5 28.5l3 3h23l3 -3q-3 -19 -6.5 -42t-7 -46.5t-5.5 -44.5t-2 -36l-3 -3
q-38 0 -87 0.5t-99.5 1t-99.5 1t-87 0.5q-17 0 -37.5 -0.5t-43.5 -2.5z" />
    <glyph glyph-name="lslash" unicode="&#x142;" horiz-adv-x="281" 
d="M174 412l87 78h6l12 -15v-6l-105 -95v-195q0 -72 2 -105t7 -39q5 -5 18 -8.5t48 -6.5l3 -3v-17l-3 -2q-25 1 -54 1.5t-57 0.5q-29 0 -52.5 -1t-46.5 -1l-3 2v17l3 3q21 2 33 4t18.5 4t8.5 5t4 8t3.5 14t2 25t1 40t0.5 59v137l-86 -77h-5l-13 18v6l104 92v235
q0 22 -0.5 36t-5.5 19q-4 5 -9 7t-16 3l-41 2l-3 3v17l3 3q10 1 26 5t34.5 9t36.5 11.5t33 12.5l11 -7q-2 -18 -3.5 -69t-1.5 -154v-76z" />
    <glyph glyph-name="Nacute" unicode="&#x143;" horiz-adv-x="793" 
d="M622 0q-9 14 -23 33t-30.5 41.5t-35 46t-36.5 46.5l-332 416l3 -355q0 -56 1 -90t3 -53.5t5 -28.5t7 -15q9 -10 71 -15l4 -3v-23l-4 -3q-11 1 -25.5 1.5t-30 1t-29.5 0.5h-24q-9 0 -33.5 -0.5t-62.5 -2.5l-4 3v23l4 3q32 2 44 6t17 9q4 6 7 16t4.5 30.5t2 54t0.5 86.5
v322q0 30 -2 55.5t-13 35.5q-6 5 -18.5 8t-44.5 5l-4 3v23l4 3q21 -2 45 -2.5t35 -0.5q17 0 29 0.5t29 1.5l383 -484q20 -26 39 -51t35 -48l-3 353q0 55 -1 89.5t-3 54.5t-5 29t-7 14q-9 10 -72 15l-4 3v23l4 3q10 -1 25 -1.5l30 -1t29 -0.5h23t35 0.5t64 2.5l3 -3v-23
l-3 -3q-32 -2 -44.5 -6t-17.5 -9q-4 -5 -7 -15t-4.5 -30.5t-2 -54.5t-0.5 -87v-321q0 -33 1.5 -70t3.5 -59q-1 0 -2 -1q-2 -2 -4 -3q-13 1 -24.5 1.5t-33.5 0.5zM486 909q7 11 13.5 14t12.5 3q11 0 24.5 -9.5t13.5 -21.5q0 -7 -8 -15l-149 -151l-6 -2l-10 7l-1 6z" />
    <glyph glyph-name="nacute" unicode="&#x144;" horiz-adv-x="589" 
d="M174 179q0 -72 2 -105t7 -39q5 -5 18 -8.5t48 -6.5l3 -3v-17l-3 -2q-25 2 -54 2h-57h-52.5t-46.5 -2l-3 2v17l3 3q21 2 33 4t18.5 4t8.5 5t4 8t3.5 14t2 25t1 40t0.5 59v156q0 22 -0.5 36t-5.5 19q-4 5 -9 7t-16 3l-41 2l-3 3v16l3 3q10 1 26 5t34.5 9t36.5 11.5t33 12.5
l8 -6q-2 -18 -2 -33v-32v-16q8 6 20 15.5t24 19.5t22.5 19.5t15.5 15.5q14 6 30.5 10.5t46.5 4.5q46 0 75.5 -15t46.5 -39t23.5 -52.5t6.5 -55.5v-222q0 -32 9 -41.5t41 -12.5l22 -2l3 -3v-17l-3 -3q-8 0 -20.5 0.5t-26 1t-26.5 1t-22 0.5q-11 0 -25 -0.5t-28 -2.5
q-2 0 -4 4.5t-2 6.5q3 7 6 17t5 19q4 35 5.5 79t1.5 89v17q0 38 -3.5 71t-16.5 57t-37.5 38t-67.5 14q-24 0 -44.5 -8.5t-35.5 -20t-24.5 -22t-10.5 -13.5q-3 -6 -5 -29.5t-2 -75.5v-61zM372 709q7 11 13.5 14t12.5 3q11 0 24.5 -9.5t13.5 -21.5q0 -7 -8 -15l-149 -151
l-6 -2l-10 7l-1 6z" />
    <glyph glyph-name="Ncommaaccent" unicode="&#x145;" horiz-adv-x="793" 
d="M622 0q-9 14 -23 33t-30.5 41.5t-35 46t-36.5 46.5l-332 416l3 -355q0 -56 1 -90t3 -53.5t5 -28.5t7 -15q9 -10 71 -15l4 -3v-23l-4 -3q-11 1 -25.5 1.5t-30 1t-29.5 0.5h-24q-9 0 -33.5 -0.5t-62.5 -2.5l-4 3v23l4 3q32 2 44 6t17 9q4 6 7 16t4.5 30.5t2 54t0.5 86.5
v322q0 30 -2 55.5t-13 35.5q-6 5 -18.5 8t-44.5 5l-4 3v23l4 3q21 -2 45 -2.5t35 -0.5q17 0 29 0.5t29 1.5l383 -484q20 -26 39 -51t35 -48l-3 353q0 55 -1 89.5t-3 54.5t-5 29t-7 14q-9 10 -72 15l-4 3v23l4 3q10 -1 25 -1.5l30 -1t29 -0.5h23t35 0.5t64 2.5l3 -3v-23
l-3 -3q-32 -2 -44.5 -6t-17.5 -9q-4 -5 -7 -15t-4.5 -30.5t-2 -54.5t-0.5 -87v-321q0 -33 1.5 -70t3.5 -59q-1 0 -2 -1q-2 -2 -4 -3q-13 1 -24.5 1.5t-33.5 0.5zM347 -227q35 15 61 39.5t26 56.5q0 26 -16.5 40.5t-43.5 14.5q-5 0 -9.5 -0.5t-9.5 -1.5l-3 9q13 16 32 27
q45 0 68 -21.5t23 -59.5q0 -24 -10.5 -43.5t-27 -34.5t-36 -25t-37.5 -16l-17 9v6z" />
    <glyph glyph-name="ncommaaccent" unicode="&#x146;" horiz-adv-x="589" 
d="M174 179q0 -72 2 -105t7 -39q5 -5 18 -8.5t48 -6.5l3 -3v-17l-3 -2q-25 2 -54 2h-57h-52.5t-46.5 -2l-3 2v17l3 3q21 2 33 4t18.5 4t8.5 5t4 8t3.5 14t2 25t1 40t0.5 59v156q0 22 -0.5 36t-5.5 19q-4 5 -9 7t-16 3l-41 2l-3 3v16l3 3q10 1 26 5t34.5 9t36.5 11.5t33 12.5
l8 -6q-2 -18 -2 -33v-32v-16q8 6 20 15.5t24 19.5t22.5 19.5t15.5 15.5q14 6 30.5 10.5t46.5 4.5q46 0 75.5 -15t46.5 -39t23.5 -52.5t6.5 -55.5v-222q0 -32 9 -41.5t41 -12.5l22 -2l3 -3v-17l-3 -3q-8 0 -20.5 0.5t-26 1t-26.5 1t-22 0.5q-11 0 -25 -0.5t-28 -2.5
q-2 0 -4 4.5t-2 6.5q3 7 6 17t5 19q4 35 5.5 79t1.5 89v17q0 38 -3.5 71t-16.5 57t-37.5 38t-67.5 14q-24 0 -44.5 -8.5t-35.5 -20t-24.5 -22t-10.5 -13.5q-3 -6 -5 -29.5t-2 -75.5v-61zM231 -227q35 15 61 39.5t26 56.5q0 26 -16.5 40.5t-43.5 14.5q-5 0 -9.5 -0.5
t-9.5 -1.5l-3 9q13 16 32 27q45 0 68 -21.5t23 -59.5q0 -24 -10.5 -43.5t-27 -34.5t-36 -25t-37.5 -16l-17 9v6z" />
    <glyph glyph-name="Ncaron" unicode="&#x147;" horiz-adv-x="793" 
d="M622 0q-9 14 -23 33t-30.5 41.5t-35 46t-36.5 46.5l-332 416l3 -355q0 -56 1 -90t3 -53.5t5 -28.5t7 -15q9 -10 71 -15l4 -3v-23l-4 -3q-11 1 -25.5 1.5t-30 1t-29.5 0.5h-24q-9 0 -33.5 -0.5t-62.5 -2.5l-4 3v23l4 3q32 2 44 6t17 9q4 6 7 16t4.5 30.5t2 54t0.5 86.5
v322q0 30 -2 55.5t-13 35.5q-6 5 -18.5 8t-44.5 5l-4 3v23l4 3q21 -2 45 -2.5t35 -0.5q17 0 29 0.5t29 1.5l383 -484q20 -26 39 -51t35 -48l-3 353q0 55 -1 89.5t-3 54.5t-5 29t-7 14q-9 10 -72 15l-4 3v23l4 3q10 -1 25 -1.5l30 -1t29 -0.5h23t35 0.5t64 2.5l3 -3v-23
l-3 -3q-32 -2 -44.5 -6t-17.5 -9q-4 -5 -7 -15t-4.5 -30.5t-2 -54.5t-0.5 -87v-321q0 -33 1.5 -70t3.5 -59q-1 0 -2 -1q-2 -2 -4 -3q-13 1 -24.5 1.5t-33.5 0.5zM259 920l4 5h23l122 -123l124 123h23l4 -5l-127 -176h-46z" />
    <glyph glyph-name="ncaron" unicode="&#x148;" horiz-adv-x="589" 
d="M174 179q0 -72 2 -105t7 -39q5 -5 18 -8.5t48 -6.5l3 -3v-17l-3 -2q-25 2 -54 2h-57h-52.5t-46.5 -2l-3 2v17l3 3q21 2 33 4t18.5 4t8.5 5t4 8t3.5 14t2 25t1 40t0.5 59v156q0 22 -0.5 36t-5.5 19q-4 5 -9 7t-16 3l-41 2l-3 3v16l3 3q10 1 26 5t34.5 9t36.5 11.5t33 12.5
l8 -6q-2 -18 -2 -33v-32v-16q8 6 20 15.5t24 19.5t22.5 19.5t15.5 15.5q14 6 30.5 10.5t46.5 4.5q46 0 75.5 -15t46.5 -39t23.5 -52.5t6.5 -55.5v-222q0 -32 9 -41.5t41 -12.5l22 -2l3 -3v-17l-3 -3q-8 0 -20.5 0.5t-26 1t-26.5 1t-22 0.5q-11 0 -25 -0.5t-28 -2.5
q-2 0 -4 4.5t-2 6.5q3 7 6 17t5 19q4 35 5.5 79t1.5 89v17q0 38 -3.5 71t-16.5 57t-37.5 38t-67.5 14q-24 0 -44.5 -8.5t-35.5 -20t-24.5 -22t-10.5 -13.5q-3 -6 -5 -29.5t-2 -75.5v-61zM151 714l4 5h23l122 -123l124 123h23l4 -5l-127 -176h-46z" />
    <glyph glyph-name="Eng" unicode="&#x14a;" horiz-adv-x="793" 
d="M559 -168q45 0 64 30.5t19 87.5v53l-32 13q-12 16 -26 35t-29 39l-30 40t-28 37l-332 416l3 -355q0 -56 1 -90t3 -53.5t5 -28.5t7 -15q9 -10 71 -15l4 -3v-23l-4 -3q-11 1 -25.5 1.5t-30 1t-29.5 0.5h-24q-9 0 -33.5 -0.5t-62.5 -2.5l-4 3v23l4 3q32 2 44 6t17 9
q4 6 7 16t4.5 30.5t2 54t0.5 86.5v322q0 30 -2 55.5t-13 35.5q-6 5 -18.5 8t-44.5 5l-4 3v23l4 3q21 -2 45 -2.5t35 -0.5q17 0 29 0.5t29 1.5l383 -484q20 -26 39 -51t35 -48l-3 353q0 55 -1 89.5t-3 54.5t-5 29t-7 14q-9 10 -72 15l-4 3v23l4 3q10 -1 25 -1.5l30 -1
t29 -0.5h23t35 0.5t64 2.5l3 -3v-23l-3 -3q-32 -2 -44.5 -6t-17.5 -9q-4 -5 -7 -15t-4.5 -30.5t-2 -54.5t-0.5 -87v-511q0 -85 -33 -130t-100 -45q-18 0 -34 3.5t-27 11.5l-3 7q4 10 9 26t8 25l11 4q7 -5 19.5 -8t27.5 -3z" />
    <glyph glyph-name="eng" unicode="&#x14b;" horiz-adv-x="585" 
d="M485 34q0 -48 -5 -100.5t-24 -97t-57.5 -76t-105.5 -38.5l-10 -1l-9 18l4 6q51 5 79.5 37t43 77t17.5 94.5t3 89.5v186q0 38 -3.5 71t-16.5 57t-37.5 38t-67.5 14q-24 0 -44.5 -8.5t-35.5 -20t-24.5 -22t-10.5 -13.5q-3 -6 -5 -29.5t-2 -75.5v-61q0 -72 2 -105t7 -39
q5 -5 18 -8.5t48 -6.5l3 -3v-17l-3 -2q-25 2 -54 2h-57h-52.5t-46.5 -2l-3 2v17l3 3q21 2 33 4t18.5 4t8.5 5t4 8t3.5 14t2 25t1 40t0.5 59v156q0 22 -0.5 36t-5.5 19q-4 5 -9 7t-16 3l-41 2l-3 3v16l3 3q10 1 26 5t34.5 9t36.5 11.5t33 12.5l8 -6q-2 -18 -2 -33v-32v-16
q8 6 20 15.5t24 19.5t22.5 19.5t15.5 15.5q14 6 30.5 10.5t46.5 4.5q46 0 75.5 -15t46.5 -39t23.5 -52.5t6.5 -55.5v-264z" />
    <glyph glyph-name="Omacron" unicode="&#x14c;" horiz-adv-x="822" 
d="M134 378q0 -69 16.5 -133.5t51 -115t87 -81t124.5 -30.5q45 0 92.5 16t87 53t65 97t25.5 149q0 169 -71 250.5t-211 81.5q-51 0 -99.5 -17.5t-85.5 -53t-59.5 -89.5t-22.5 -127zM53 331q0 96 30 164.5t80 113t113.5 65.5t131.5 21q186 0 273.5 -90t87.5 -252
q0 -68 -22 -133.5t-68 -118t-116.5 -84.5t-167.5 -32q-99 0 -165 34.5t-105 86.5t-55.5 112.5t-16.5 112.5zM544 791h-264v43h264v-43z" />
    <glyph glyph-name="omacron" unicode="&#x14d;" horiz-adv-x="560" 
d="M53 216q0 52 15 97t44.5 77.5t72.5 51t100 18.5q63 0 105.5 -17t68.5 -48t37 -74t11 -94q0 -53 -19 -97t-50.5 -75.5t-72.5 -49t-86 -17.5q-68 0 -111.5 21.5t-69 54.5t-35.5 73.5t-10 78.5zM279 18q30 0 58 9t49.5 32t34 61.5t12.5 97.5q0 40 -7.5 78.5t-26 68t-49 47.5
t-76.5 18q-66 0 -106 -51.5t-40 -139.5q0 -105 39.5 -163t111.5 -58zM413 591h-264v43h264v-43z" />
    <glyph glyph-name="Obreve" unicode="&#x14e;" horiz-adv-x="822" 
d="M134 378q0 -69 16.5 -133.5t51 -115t87 -81t124.5 -30.5q45 0 92.5 16t87 53t65 97t25.5 149q0 169 -71 250.5t-211 81.5q-51 0 -99.5 -17.5t-85.5 -53t-59.5 -89.5t-22.5 -127zM53 331q0 96 30 164.5t80 113t113.5 65.5t131.5 21q186 0 273.5 -90t87.5 -252
q0 -68 -22 -133.5t-68 -118t-116.5 -84.5t-167.5 -32q-99 0 -165 34.5t-105 86.5t-55.5 112.5t-16.5 112.5zM547 889q-3 -72 -38 -109t-98 -37t-99 35.5t-39 110.5l4 4h20q7 -45 39 -75t75 -30q48 0 76.5 30t35.5 75h20z" />
    <glyph glyph-name="obreve" unicode="&#x14f;" horiz-adv-x="560" 
d="M53 216q0 52 15 97t44.5 77.5t72.5 51t100 18.5q63 0 105.5 -17t68.5 -48t37 -74t11 -94q0 -53 -19 -97t-50.5 -75.5t-72.5 -49t-86 -17.5q-68 0 -111.5 21.5t-69 54.5t-35.5 73.5t-10 78.5zM279 18q30 0 58 9t49.5 32t34 61.5t12.5 97.5q0 40 -7.5 78.5t-26 68t-49 47.5
t-76.5 18q-66 0 -106 -51.5t-40 -139.5q0 -105 39.5 -163t111.5 -58zM418 689q-3 -72 -38 -109t-98 -37t-99 35.5t-39 110.5l4 4h20q7 -45 39 -75t75 -30q48 0 76.5 30t35.5 75h20z" />
    <glyph glyph-name="Ohungarumlaut" unicode="&#x150;" horiz-adv-x="822" 
d="M134 378q0 -69 16.5 -133.5t51 -115t87 -81t124.5 -30.5q45 0 92.5 16t87 53t65 97t25.5 149q0 169 -71 250.5t-211 81.5q-51 0 -99.5 -17.5t-85.5 -53t-59.5 -89.5t-22.5 -127zM53 331q0 96 30 164.5t80 113t113.5 65.5t131.5 21q186 0 273.5 -90t87.5 -252
q0 -68 -22 -133.5t-68 -118t-116.5 -84.5t-167.5 -32q-99 0 -165 34.5t-105 86.5t-55.5 112.5t-16.5 112.5zM401 909q7 11 13.5 14t12.5 3q11 0 24.5 -9.5t13.5 -21.5q0 -7 -8 -15l-140 -151l-6 -2l-10 7l-1 6zM538 909q7 11 13.5 14t12.5 3q11 0 24.5 -9.5t13.5 -21.5
q0 -7 -8 -15l-149 -151l-6 -2l-10 7l-1 6z" />
    <glyph glyph-name="ohungarumlaut" unicode="&#x151;" horiz-adv-x="560" 
d="M53 216q0 52 15 97t44.5 77.5t72.5 51t100 18.5q63 0 105.5 -17t68.5 -48t37 -74t11 -94q0 -53 -19 -97t-50.5 -75.5t-72.5 -49t-86 -17.5q-68 0 -111.5 21.5t-69 54.5t-35.5 73.5t-10 78.5zM279 18q30 0 58 9t49.5 32t34 61.5t12.5 97.5q0 40 -7.5 78.5t-26 68t-49 47.5
t-76.5 18q-66 0 -106 -51.5t-40 -139.5q0 -105 39.5 -163t111.5 -58zM278 709q7 11 13.5 14t12.5 3q11 0 24.5 -9.5t13.5 -21.5q0 -7 -8 -15l-140 -151l-6 -2l-10 7l-1 6zM415 709q7 11 13.5 14t12.5 3q11 0 24.5 -9.5t13.5 -21.5q0 -7 -8 -15l-149 -151l-6 -2l-10 7l-1 6z
" />
    <glyph glyph-name="OE" unicode="&#x152;" horiz-adv-x="977" 
d="M137 369q0 -69 16 -132t50 -112t86 -78t124 -29q35 0 61 6t45 14q2 11 3.5 32.5t2.5 49.5t1.5 60.5t0.5 66.5v382q-5 14 -37 25t-89 11q-51 0 -99 -19t-84.5 -56t-58.5 -92.5t-22 -128.5zM568 0q-17 0 -28 -0.5t-20 -1.5t-17 -2.5t-19 -2.5q-23 -3 -44 -5.5t-45 -2.5
q-99 0 -165 34.5t-105 86.5t-55.5 112.5t-16.5 112.5q0 92 29.5 160.5t78.5 113.5t113.5 67.5t133.5 22.5q21 0 50 -1.5t53 -5.5q23 -4 43 -6t37 -2h75t79.5 0.5t76 1.5t64.5 2l2 -3q-2 -23 -3 -57t-1 -85l-3 -4h-24l-4 4v7q0 67 -6 78q-11 17 -62 21q-12 1 -32 1.5t-43.5 1
t-48.5 0.5h-49h-14v-281h24q60 0 105.5 1t59.5 9q6 3 8 12t4 32l2 30l4 4h22l4 -4q-2 -26 -2.5 -51t-0.5 -52q0 -21 0.5 -44t2.5 -58l-4 -4h-22l-4 4l-3 29q-2 20 -5 30.5t-11 16.5q-12 9 -55 11t-110 2h-19v-105q0 -51 0.5 -98.5t2.5 -98.5h65q88 0 145 4t78 14q9 11 18 39
t15 63l3 3h22l4 -3q-3 -19 -5.5 -41t-4.5 -43t-3 -39.5t-1 -29.5l-3 -4q-23 1 -65 2t-92.5 1.5t-105 0.5h-103.5z" />
    <glyph glyph-name="oe" unicode="&#x153;" horiz-adv-x="844" 
d="M603 -12q-52 0 -95.5 26t-69.5 77q-9 -17 -25 -35t-38 -33t-49.5 -25t-60.5 -10q-66 0 -107 23.5t-64.5 58.5t-32 75.5t-8.5 75.5q0 48 13.5 91.5t40.5 76.5t68.5 52t97.5 19q66 0 109.5 -27.5t60.5 -65.5q8 10 25.5 25.5t42 30.5t54.5 26t63 11q35 0 65.5 -10t53 -31.5
t35 -55.5t12.5 -82v-14t-2 -12l-5 -5q-10 -2 -39 -4t-71 -4t-94 -3.5t-109 -1.5q0 -45 10.5 -82.5t31.5 -64.5t51.5 -42t71.5 -15q42 0 74 11t61 28l6 -8l-18 -29q-23 -18 -62.5 -32.5t-96.5 -14.5zM263 430q-38 0 -63.5 -14.5t-42 -39.5t-23.5 -59t-7 -73q0 -35 6.5 -74.5
t23.5 -73.5t45.5 -56t72.5 -22q40 0 65.5 17.5t40 45t20 61.5t5.5 66q0 50 -8.5 91t-25.5 70t-44.5 45t-64.5 16zM608 424q-41 0 -66.5 -15.5t-40 -38.5t-20 -51t-7.5 -52h64t64 1t59 2t50 3q5 1 7 4.5t2 17.5q0 54 -28 91.5t-84 37.5z" />
    <glyph glyph-name="Racute" unicode="&#x154;" horiz-adv-x="635" 
d="M162 680q32 0 66.5 2t71.5 2q46 0 85 -7.5t66.5 -24.5t43 -46t15.5 -72q0 -34 -8.5 -62t-28.5 -51.5t-54.5 -41.5t-85.5 -31q9 -13 25.5 -34t33.5 -40l70 -84q33 -40 54.5 -65.5t36.5 -42t27 -27t26 -19.5q9 -6 20.5 -8.5t26.5 -3.5l4 -4l-2 -19l-5 -4q-18 2 -34.5 2.5
t-34.5 0.5q-27 0 -60 -3q-14 23 -40.5 57.5t-65.5 83.5q-51 66 -95.5 117t-82.5 93l2 10q20 2 42 5t46 10q48 13 76.5 49.5t28.5 99.5q0 69 -43 99.5t-115 30.5q-16 0 -34 -1t-38 -4q-2 -16 -3.5 -66t-1.5 -129v-225v-90t1 -53.5t3.5 -28.5t6.5 -15q5 -5 17.5 -9t44.5 -6
l4 -3v-22l-4 -3q-38 2 -68.5 2.5t-40.5 0.5q-9 0 -39.5 -0.5t-68.5 -2.5l-4 3v22l4 3q32 2 44 6t17 9q4 6 6.5 15t3.5 28.5t1 53v89.5v227v89.5t-1 54t-3.5 28.5t-6.5 14q-5 5 -17 9t-44 6l-4 3v23l4 3q38 -2 68.5 -2.5t40.5 -0.5zM362 909q7 11 13.5 14t12.5 3
q11 0 24.5 -9.5t13.5 -21.5q0 -7 -8 -15l-149 -151l-6 -2l-10 7l-1 6z" />
    <glyph glyph-name="racute" unicode="&#x155;" horiz-adv-x="369" 
d="M243 430q16 17 35 23.5t43 6.5q11 0 20.5 -2.5t14.5 -5.5l3 -7q-4 -20 -6 -35t-2 -38l-3 -3h-14l-3 2q-2 17 -11 24t-35 7q-19 0 -35.5 -7.5t-30 -19t-23 -26t-14.5 -28.5q-2 -6 -5.5 -24.5t-3.5 -48.5v-69q1 -72 3 -105t7 -39q9 -9 81 -15l3 -3v-17l-3 -2q-25 2 -61.5 2
h-64.5h-52.5t-46.5 -2l-3 2v17l3 3q21 2 33 4t18.5 4t8.5 5t4 8t3.5 14t2 25t1 40t0.5 59v156q0 22 -0.5 36t-5.5 19q-4 5 -9 7t-16 3l-41 2l-3 3v16l3 3q10 1 26 5t34.5 9t36.5 11.5t33 12.5l8 -6q-2 -18 -2 -33v-32v-33q20 20 34.5 35t34.5 37zM232 709q7 11 13.5 14
t12.5 3q11 0 24.5 -9.5t13.5 -21.5q0 -7 -8 -15l-149 -151l-6 -2l-10 7l-1 6z" />
    <glyph glyph-name="Rcommaaccent" unicode="&#x156;" horiz-adv-x="635" 
d="M162 680q32 0 66.5 2t71.5 2q46 0 85 -7.5t66.5 -24.5t43 -46t15.5 -72q0 -34 -8.5 -62t-28.5 -51.5t-54.5 -41.5t-85.5 -31q9 -13 25.5 -34t33.5 -40l70 -84q33 -40 54.5 -65.5t36.5 -42t27 -27t26 -19.5q9 -6 20.5 -8.5t26.5 -3.5l4 -4l-2 -19l-5 -4q-18 2 -34.5 2.5
t-34.5 0.5q-27 0 -60 -3q-14 23 -40.5 57.5t-65.5 83.5q-51 66 -95.5 117t-82.5 93l2 10q20 2 42 5t46 10q48 13 76.5 49.5t28.5 99.5q0 69 -43 99.5t-115 30.5q-16 0 -34 -1t-38 -4q-2 -16 -3.5 -66t-1.5 -129v-225v-90t1 -53.5t3.5 -28.5t6.5 -15q5 -5 17.5 -9t44.5 -6
l4 -3v-22l-4 -3q-38 2 -68.5 2.5t-40.5 0.5q-9 0 -39.5 -0.5t-68.5 -2.5l-4 3v22l4 3q32 2 44 6t17 9q4 6 6.5 15t3.5 28.5t1 53v89.5v227v89.5t-1 54t-3.5 28.5t-6.5 14q-5 5 -17 9t-44 6l-4 3v23l4 3q38 -2 68.5 -2.5t40.5 -0.5zM273 -227q35 15 61 39.5t26 56.5
q0 26 -16.5 40.5t-43.5 14.5q-5 0 -9.5 -0.5t-9.5 -1.5l-3 9q13 16 32 27q45 0 68 -21.5t23 -59.5q0 -24 -10.5 -43.5t-27 -34.5t-36 -25t-37.5 -16l-17 9v6z" />
    <glyph glyph-name="rcommaaccent" unicode="&#x157;" horiz-adv-x="369" 
d="M243 430q16 17 35 23.5t43 6.5q11 0 20.5 -2.5t14.5 -5.5l3 -7q-4 -20 -6 -35t-2 -38l-3 -3h-14l-3 2q-2 17 -11 24t-35 7q-19 0 -35.5 -7.5t-30 -19t-23 -26t-14.5 -28.5q-2 -6 -5.5 -24.5t-3.5 -48.5v-69q1 -72 3 -105t7 -39q9 -9 81 -15l3 -3v-17l-3 -2q-25 2 -61.5 2
h-64.5h-52.5t-46.5 -2l-3 2v17l3 3q21 2 33 4t18.5 4t8.5 5t4 8t3.5 14t2 25t1 40t0.5 59v156q0 22 -0.5 36t-5.5 19q-4 5 -9 7t-16 3l-41 2l-3 3v16l3 3q10 1 26 5t34.5 9t36.5 11.5t33 12.5l8 -6q-2 -18 -2 -33v-32v-33q20 20 34.5 35t34.5 37zM78 -227q35 15 61 39.5
t26 56.5q0 26 -16.5 40.5t-43.5 14.5q-5 0 -9.5 -0.5t-9.5 -1.5l-3 9q13 16 32 27q45 0 68 -21.5t23 -59.5q0 -24 -10.5 -43.5t-27 -34.5t-36 -25t-37.5 -16l-17 9v6z" />
    <glyph glyph-name="Rcaron" unicode="&#x158;" horiz-adv-x="635" 
d="M162 680q32 0 66.5 2t71.5 2q46 0 85 -7.5t66.5 -24.5t43 -46t15.5 -72q0 -34 -8.5 -62t-28.5 -51.5t-54.5 -41.5t-85.5 -31q9 -13 25.5 -34t33.5 -40l70 -84q33 -40 54.5 -65.5t36.5 -42t27 -27t26 -19.5q9 -6 20.5 -8.5t26.5 -3.5l4 -4l-2 -19l-5 -4q-18 2 -34.5 2.5
t-34.5 0.5q-27 0 -60 -3q-14 23 -40.5 57.5t-65.5 83.5q-51 66 -95.5 117t-82.5 93l2 10q20 2 42 5t46 10q48 13 76.5 49.5t28.5 99.5q0 69 -43 99.5t-115 30.5q-16 0 -34 -1t-38 -4q-2 -16 -3.5 -66t-1.5 -129v-225v-90t1 -53.5t3.5 -28.5t6.5 -15q5 -5 17.5 -9t44.5 -6
l4 -3v-22l-4 -3q-38 2 -68.5 2.5t-40.5 0.5q-9 0 -39.5 -0.5t-68.5 -2.5l-4 3v22l4 3q32 2 44 6t17 9q4 6 6.5 15t3.5 28.5t1 53v89.5v227v89.5t-1 54t-3.5 28.5t-6.5 14q-5 5 -17 9t-44 6l-4 3v23l4 3q38 -2 68.5 -2.5t40.5 -0.5zM144 920l4 5h23l122 -123l124 123h23l4 -5
l-127 -176h-46z" />
    <glyph glyph-name="rcaron" unicode="&#x159;" horiz-adv-x="369" 
d="M243 430q16 17 35 23.5t43 6.5q11 0 20.5 -2.5t14.5 -5.5l3 -7q-4 -20 -6 -35t-2 -38l-3 -3h-14l-3 2q-2 17 -11 24t-35 7q-19 0 -35.5 -7.5t-30 -19t-23 -26t-14.5 -28.5q-2 -6 -5.5 -24.5t-3.5 -48.5v-69q1 -72 3 -105t7 -39q9 -9 81 -15l3 -3v-17l-3 -2q-25 2 -61.5 2
h-64.5h-52.5t-46.5 -2l-3 2v17l3 3q21 2 33 4t18.5 4t8.5 5t4 8t3.5 14t2 25t1 40t0.5 59v156q0 22 -0.5 36t-5.5 19q-4 5 -9 7t-16 3l-41 2l-3 3v16l3 3q10 1 26 5t34.5 9t36.5 11.5t33 12.5l8 -6q-2 -18 -2 -33v-32v-33q20 20 34.5 35t34.5 37zM46 714l4 5h23l122 -123
l124 123h23l4 -5l-127 -176h-46z" />
    <glyph glyph-name="Sacute" unicode="&#x15a;" horiz-adv-x="538" 
d="M62 164h21l4 -4q1 -31 2.5 -46t3.5 -22q6 -17 20.5 -30t34.5 -21.5t44 -13t49 -4.5q31 0 61 9t54 28t38.5 48t14.5 70q0 34 -9.5 58.5t-27.5 41.5t-43.5 28t-58.5 19q-40 10 -76.5 22t-64.5 32t-44.5 51.5t-16.5 80.5q0 46 18 80.5t48.5 57.5t70 34.5t83.5 11.5
q42 0 80.5 -5.5t76.5 -20.5l3 -6q-5 -29 -8 -59.5t-4 -72.5l-5 -4h-21l-4 4q-1 29 -2.5 43t-3.5 24q-3 9 -12.5 20t-25.5 20t-38 15t-49 6q-31 0 -57 -7.5t-45.5 -22.5t-30.5 -37.5t-11 -53.5q0 -35 13 -58.5t34.5 -39t50 -25t60.5 -16.5q40 -9 75.5 -20.5t61.5 -31
t41 -50.5t15 -80q0 -48 -22 -91t-60 -76q-40 -34 -85.5 -49.5t-99.5 -15.5q-46 0 -86 6t-75 20l-3 6q2 20 4 53t3 90zM358 909q7 11 13.5 14t12.5 3q11 0 24.5 -9.5t13.5 -21.5q0 -7 -8 -15l-149 -151l-6 -2l-10 7l-1 6z" />
    <glyph glyph-name="sacute" unicode="&#x15b;" horiz-adv-x="420" 
d="M63 122h18l3 -4q1 -20 3 -32.5t4 -18.5q5 -14 15.5 -23.5t25 -15.5t31 -8.5t32.5 -2.5q54 0 81 25.5t27 67.5q0 37 -27 55t-90 33q-63 16 -92.5 43.5t-29.5 81.5q0 32 13.5 57.5t36 43t52.5 27t62 9.5q24 0 56 -3.5t53 -11.5l4 -6q-2 -10 -3 -28.5t-2 -60.5l-3 -3h-15
l-4 3q0 12 -4 26.5t-13 26.5q-8 11 -27.5 20t-47.5 9q-18 0 -35.5 -5t-31 -15t-21.5 -25.5t-8 -37.5q0 -23 7 -37.5t19 -24t28.5 -15t36.5 -9.5q36 -8 63 -18t46 -24t28.5 -34t9.5 -48q0 -34 -11.5 -58t-36.5 -47q-26 -23 -63 -34.5t-74 -11.5q-33 0 -66.5 4.5t-60.5 11.5
l-3 6q2 10 4 24.5t3.5 29.5t2.5 29.5t1 24.5zM295 709q7 11 13.5 14t12.5 3q11 0 24.5 -9.5t13.5 -21.5q0 -7 -8 -15l-149 -151l-6 -2l-10 7l-1 6z" />
    <glyph glyph-name="Scircumflex" unicode="&#x15c;" horiz-adv-x="538" 
d="M62 164h21l4 -4q1 -31 2.5 -46t3.5 -22q6 -17 20.5 -30t34.5 -21.5t44 -13t49 -4.5q31 0 61 9t54 28t38.5 48t14.5 70q0 34 -9.5 58.5t-27.5 41.5t-43.5 28t-58.5 19q-40 10 -76.5 22t-64.5 32t-44.5 51.5t-16.5 80.5q0 46 18 80.5t48.5 57.5t70 34.5t83.5 11.5
q42 0 80.5 -5.5t76.5 -20.5l3 -6q-5 -29 -8 -59.5t-4 -72.5l-5 -4h-21l-4 4q-1 29 -2.5 43t-3.5 24q-3 9 -12.5 20t-25.5 20t-38 15t-49 6q-31 0 -57 -7.5t-45.5 -22.5t-30.5 -37.5t-11 -53.5q0 -35 13 -58.5t34.5 -39t50 -25t60.5 -16.5q40 -9 75.5 -20.5t61.5 -31
t41 -50.5t15 -80q0 -48 -22 -91t-60 -76q-40 -34 -85.5 -49.5t-99.5 -15.5q-46 0 -86 6t-75 20l-3 6q2 20 4 53t3 90zM437 742l-4 -5h-23l-122 123l-124 -123h-23l-4 5l127 176h46z" />
    <glyph glyph-name="scircumflex" unicode="&#x15d;" horiz-adv-x="420" 
d="M63 122h18l3 -4q1 -20 3 -32.5t4 -18.5q5 -14 15.5 -23.5t25 -15.5t31 -8.5t32.5 -2.5q54 0 81 25.5t27 67.5q0 37 -27 55t-90 33q-63 16 -92.5 43.5t-29.5 81.5q0 32 13.5 57.5t36 43t52.5 27t62 9.5q24 0 56 -3.5t53 -11.5l4 -6q-2 -10 -3 -28.5t-2 -60.5l-3 -3h-15
l-4 3q0 12 -4 26.5t-13 26.5q-8 11 -27.5 20t-47.5 9q-18 0 -35.5 -5t-31 -15t-21.5 -25.5t-8 -37.5q0 -23 7 -37.5t19 -24t28.5 -15t36.5 -9.5q36 -8 63 -18t46 -24t28.5 -34t9.5 -48q0 -34 -11.5 -58t-36.5 -47q-26 -23 -63 -34.5t-74 -11.5q-33 0 -66.5 4.5t-60.5 11.5
l-3 6q2 10 4 24.5t3.5 29.5t2.5 29.5t1 24.5zM383 542l-4 -5h-23l-122 123l-124 -123h-23l-4 5l127 176h46z" />
    <glyph glyph-name="Scedilla" unicode="&#x15e;" horiz-adv-x="538" 
d="M62 164h21l4 -4q1 -31 2.5 -46t3.5 -22q6 -17 20.5 -30t34.5 -21.5t44 -13t49 -4.5q31 0 61 9t54 28t38.5 48t14.5 70q0 34 -9.5 58.5t-27.5 41.5t-43.5 28t-58.5 19q-40 10 -76.5 22t-64.5 32t-44.5 51.5t-16.5 80.5q0 46 18 80.5t48.5 57.5t70 34.5t83.5 11.5
q42 0 80.5 -5.5t76.5 -20.5l3 -6q-5 -29 -8 -59.5t-4 -72.5l-5 -4h-21l-4 4q-1 29 -2.5 43t-3.5 24q-3 9 -12.5 20t-25.5 20t-38 15t-49 6q-31 0 -57 -7.5t-45.5 -22.5t-30.5 -37.5t-11 -53.5q0 -35 13 -58.5t34.5 -39.5t50 -25t60.5 -16q40 -10 75.5 -21t61.5 -30.5
t41 -50.5t15 -80q0 -48 -22 -91.5t-60 -75.5q-28 -25 -58.5 -39t-66.5 -21l-24 -47l17 -5q11 -3 23 -9t22 -15.5t16.5 -22.5t6.5 -31q0 -27 -13.5 -46.5t-36 -31.5t-51.5 -17.5t-60 -5.5l-3 3v21l3 2q17 0 36 2.5t35.5 10t27 20t10.5 32.5q0 29 -22.5 43.5t-53.5 20.5l-1 7
l36 65q-51 -3 -100 2.5t-89 22.5l-3 6q2 20 4 53t3 90z" />
    <glyph glyph-name="scedilla" unicode="&#x15f;" horiz-adv-x="420" 
d="M63 122h18l3 -4q1 -20 3 -32.5t4 -18.5q5 -14 15.5 -23.5t25 -15.5t31 -8.5t32.5 -2.5q54 0 81 25.5t27 67.5q0 37 -27 55t-90 33q-63 16 -92.5 43.5t-29.5 81.5q0 32 13.5 57.5t36 43t52.5 27t62 9.5q24 0 56 -3.5t53 -11.5l4 -6q-2 -10 -3 -28.5t-2 -60.5l-3 -3h-15
l-4 3q0 12 -4 26.5t-13 26.5q-8 11 -28.5 20t-46.5 9q-18 0 -35.5 -5t-31 -15t-21.5 -25.5t-8 -37.5q0 -44 25.5 -61t65.5 -25q72 -15 109.5 -41t37.5 -83q0 -34 -11.5 -58t-36.5 -47q-20 -17 -45 -27t-52 -15l-23 -49l17 -5q11 -3 23 -9t22 -15.5t16.5 -22.5t6.5 -31
q0 -27 -13.5 -46.5t-36 -31.5t-51.5 -17.5t-60 -5.5l-3 3v21l3 2q17 0 36 2.5t35.5 10t27 20t10.5 32.5q0 29 -22.5 43.5t-53.5 20.5l-1 7l37 67h-10q-33 0 -66.5 4.5t-60.5 11.5l-3 6q2 10 4 24.5t3.5 29.5t2.5 29.5t1 24.5z" />
    <glyph glyph-name="Scaron" unicode="&#x160;" horiz-adv-x="538" 
d="M62 164h21l4 -4q1 -31 2.5 -46t3.5 -22q6 -17 20.5 -30t34.5 -21.5t44 -13t49 -4.5q31 0 61 9t54 28t38.5 48t14.5 70q0 34 -9.5 58.5t-27.5 41.5t-43.5 28t-58.5 19q-40 10 -76.5 22t-64.5 32t-44.5 51.5t-16.5 80.5q0 46 18 80.5t48.5 57.5t70 34.5t83.5 11.5
q42 0 80.5 -5.5t76.5 -20.5l3 -6q-5 -29 -8 -59.5t-4 -72.5l-5 -4h-21l-4 4q-1 29 -2.5 43t-3.5 24q-3 9 -12.5 20t-25.5 20t-38 15t-49 6q-31 0 -57 -7.5t-45.5 -22.5t-30.5 -37.5t-11 -53.5q0 -35 13 -58.5t34.5 -39t50 -25t60.5 -16.5q40 -9 75.5 -20.5t61.5 -31
t41 -50.5t15 -80q0 -48 -22 -91t-60 -76q-40 -34 -85.5 -49.5t-99.5 -15.5q-46 0 -86 6t-75 20l-3 6q2 20 4 53t3 90zM130 920l4 5h23l122 -123l124 123h23l4 -5l-127 -176h-46z" />
    <glyph glyph-name="scaron" unicode="&#x161;" horiz-adv-x="420" 
d="M63 122h18l3 -4q1 -20 3 -32.5t4 -18.5q5 -14 15.5 -23.5t25 -15.5t31 -8.5t32.5 -2.5q54 0 81 25.5t27 67.5q0 37 -27 55t-90 33q-63 16 -92.5 43.5t-29.5 81.5q0 32 13.5 57.5t36 43t52.5 27t62 9.5q24 0 56 -3.5t53 -11.5l4 -6q-2 -10 -3 -28.5t-2 -60.5l-3 -3h-15
l-4 3q0 12 -4 26.5t-13 26.5q-8 11 -27.5 20t-47.5 9q-18 0 -35.5 -5t-31 -15t-21.5 -25.5t-8 -37.5q0 -23 7 -37.5t19 -24t28.5 -15t36.5 -9.5q36 -8 63 -18t46 -24t28.5 -34t9.5 -48q0 -34 -11.5 -58t-36.5 -47q-26 -23 -63 -34.5t-74 -11.5q-33 0 -66.5 4.5t-60.5 11.5
l-3 6q2 10 4 24.5t3.5 29.5t2.5 29.5t1 24.5zM65 714l4 5h23l122 -123l124 123h23l4 -5l-127 -176h-46z" />
    <glyph glyph-name="Tcommaaccent" unicode="&#x162;" horiz-adv-x="588" 
d="M330 227v-90t1 -53.5t3.5 -28.5t6.5 -15q5 -5 17.5 -9t44.5 -6l4 -3v-22l-4 -3q-38 2 -68.5 2.5t-40.5 0.5q-9 0 -39.5 -0.5t-68.5 -2.5l-4 3v22l4 3q32 2 44 6t17 9q4 6 6.5 15t3.5 28.5t1 53.5v90v277q0 45 -1 82.5t-2 58.5h-33q-29 0 -58 -1t-46 -3q-19 -2 -29.5 -4
t-16 -6t-7 -11.5t-2.5 -19.5l-6 -68l-2 -3h-23l-3 3q0 48 -2 85.5t-5 65.5l3 3q66 -3 134 -4.5t134 -1.5q69 0 136 1t134 5l3 -3q-3 -28 -5 -65.5t-2 -85.5l-3 -3h-23l-3 3l-8 76q-1 11 -3.5 17.5t-8.5 10t-17.5 5t-30.5 2.5q-18 1 -42.5 1.5t-54.5 0.5h-32
q-2 -21 -2.5 -58.5t-0.5 -82.5v-277zM229 -227q35 15 61 39.5t26 56.5q0 26 -16.5 40.5t-43.5 14.5q-5 0 -9.5 -0.5t-9.5 -1.5l-3 9q13 16 32 27q45 0 68 -21.5t23 -59.5q0 -24 -10.5 -43.5t-27 -34.5t-36 -25t-37.5 -16l-17 9v6z" />
    <glyph glyph-name="tcommaaccent" unicode="&#x163;" horiz-adv-x="321" 
d="M100 402h-78l-3 3v16l3 3l78 17q0 69 -0.5 108.5t-2.5 50.5q25 9 40.5 18.5t28.5 18.5l10 -10q-1 -7 -3 -29t-3.5 -50t-2.5 -57t-1 -50h54q23 0 43 0.5t38 1.5l5 -6l-15 -30l-4 -5h-121l-2 -215q0 -42 3.5 -71t13.5 -46.5t27 -25t43 -7.5q15 0 25 1.5t25 5.5l2 -2l2 -13
q-15 -6 -31 -15t-25 -15q-16 -5 -28 -6t-24 -1q-36 0 -55.5 9.5t-29 26.5t-11 40t-1.5 49v285zM112 -227q35 15 61 39.5t26 56.5q0 26 -16.5 40.5t-43.5 14.5q-5 0 -9.5 -0.5t-9.5 -1.5l-3 9q13 16 32 27q45 0 68 -21.5t23 -59.5q0 -24 -10.5 -43.5t-27 -34.5t-36 -25
t-37.5 -16l-17 9v6z" />
    <glyph glyph-name="Tcaron" unicode="&#x164;" horiz-adv-x="588" 
d="M330 227v-90t1 -53.5t3.5 -28.5t6.5 -15q5 -5 17.5 -9t44.5 -6l4 -3v-22l-4 -3q-38 2 -68.5 2.5t-40.5 0.5q-9 0 -39.5 -0.5t-68.5 -2.5l-4 3v22l4 3q32 2 44 6t17 9q4 6 6.5 15t3.5 28.5t1 53.5v90v277q0 45 -1 82.5t-2 58.5h-33q-29 0 -58 -1t-46 -3q-19 -2 -29.5 -4
t-16 -6t-7 -11.5t-2.5 -19.5l-6 -68l-2 -3h-23l-3 3q0 48 -2 85.5t-5 65.5l3 3q66 -3 134 -4.5t134 -1.5q69 0 136 1t134 5l3 -3q-3 -28 -5 -65.5t-2 -85.5l-3 -3h-23l-3 3l-8 76q-1 11 -3.5 17.5t-8.5 10t-17.5 5t-30.5 2.5q-18 1 -42.5 1.5t-54.5 0.5h-32
q-2 -21 -2.5 -58.5t-0.5 -82.5v-277zM144 920l4 5h23l122 -123l124 123h23l4 -5l-127 -176h-46z" />
    <glyph glyph-name="tcaron" unicode="&#x165;" horiz-adv-x="321" 
d="M100 402h-78l-3 3v16l3 3l78 17q0 69 -0.5 108.5t-2.5 50.5q25 9 40.5 18.5t28.5 18.5l10 -10q-1 -7 -3 -29t-3.5 -50t-2.5 -57t-1 -50h54q23 0 43 0.5t38 1.5l5 -6l-15 -30l-4 -5h-121l-2 -215q0 -42 3.5 -71t13.5 -46.5t27 -25t43 -7.5q15 0 25 1.5t25 5.5l2 -2l2 -13
q-15 -6 -31 -15t-25 -15q-16 -5 -28 -6t-24 -1q-36 0 -55.5 9.5t-29 26.5t-11 40t-1.5 49v285zM246 475l-7 8q21 58 35 109t19 88q20 2 30 4.5t20 7.5l10 -10q-11 -27 -22.5 -54.5t-22.5 -53t-21.5 -47.5t-19.5 -38z" />
    <glyph glyph-name="Tbar" unicode="&#x166;" horiz-adv-x="588" 
d="M330 438h134v-31h-134v-180v-90t1 -53.5t3.5 -28.5t6.5 -15q5 -5 17.5 -9t44.5 -6l4 -3v-22l-4 -3q-38 2 -68.5 2.5t-40.5 0.5q-9 0 -39.5 -0.5t-68.5 -2.5l-4 3v22l4 3q32 2 44 6t17 9q4 6 6.5 15t3.5 28.5t1 53.5v90v180h-149v31h149v66q0 45 -1 82.5t-2 58.5h-33
q-29 0 -58 -1t-46 -3q-19 -2 -29.5 -4t-16 -6t-7 -11.5t-2.5 -19.5l-6 -68l-2 -3h-23l-3 3q0 48 -2 85.5t-5 65.5l3 3q66 -3 134 -4.5t134 -1.5q69 0 136 1t134 5l3 -3q-3 -28 -5 -65.5t-2 -85.5l-3 -3h-23l-3 3l-8 76q-1 11 -3.5 17.5t-8.5 10t-17.5 5t-30.5 2.5
q-18 1 -42.5 1.5t-54.5 0.5h-32q-2 -21 -2.5 -58.5t-0.5 -82.5v-66z" />
    <glyph glyph-name="tbar" unicode="&#x167;" horiz-adv-x="321" 
d="M100 402h-78l-3 3v16l3 3l78 17q0 69 -0.5 108.5t-2.5 50.5q25 9 40.5 18.5t28.5 18.5l10 -10q-1 -7 -3 -29t-3.5 -50t-2.5 -57t-1 -50h54q23 0 43 0.5t38 1.5l5 -6l-15 -30l-4 -5h-121l-1 -100h126v-27h-126l-1 -88q0 -42 3.5 -71t13.5 -46.5t27 -25t43 -7.5
q15 0 25 1.5t25 5.5l2 -2l2 -13q-15 -6 -31 -15t-25 -15q-16 -5 -28 -6t-24 -1q-36 0 -55.5 9.5t-29 26.5t-11 40t-1.5 49v158h-74v27h74v100z" />
    <glyph glyph-name="Utilde" unicode="&#x168;" horiz-adv-x="761" 
d="M191 235q0 -48 9.5 -86t32.5 -64.5t60.5 -40.5t93.5 -14q85 0 131.5 26t65.5 74q11 26 14.5 63t3.5 98v161q0 55 -1 89.5t-3 54.5t-5 29t-7 14q-9 10 -72 15l-4 3v23l4 3q10 -1 25 -1.5l30 -1t29 -0.5h23t35 0.5t64 2.5l3 -3v-23l-3 -3q-32 -2 -44.5 -6t-17.5 -9
q-4 -5 -7 -15t-4.5 -30.5t-2 -54.5t-0.5 -87v-154q0 -42 -1 -70t-4 -48.5t-7 -35.5t-10 -30q-12 -28 -32 -51.5t-50 -41t-70.5 -27t-94.5 -9.5q-80 0 -130 17.5t-78 46t-38 66t-10 78.5v260v89.5t-1 54t-3.5 28.5t-6.5 14q-5 5 -17 9t-44 6l-4 3v23l4 3q38 -2 68.5 -2.5
t40.5 -0.5q9 0 39.5 0.5t68.5 2.5l4 -3v-23l-4 -3q-32 -2 -44.5 -6t-17.5 -9q-4 -5 -6.5 -14t-3.5 -28.5t-1 -54v-89.5v-218zM560 861q-10 -42 -37.5 -63.5t-65.5 -21.5q-16 0 -35 5.5t-44 19.5q-24 13 -41 17.5t-27 4.5q-19 0 -38.5 -12t-29.5 -37l-15 4l-3 3
q9 38 37.5 63.5t64.5 25.5q34 0 80 -25q25 -13 42 -17t27 -4q19 0 38.5 9t29.5 35l14 -4z" />
    <glyph glyph-name="utilde" unicode="&#x169;" horiz-adv-x="577" 
d="M107 315q0 30 -2.5 50t-7.5 25q-9 9 -30 10l-37 2l-3 3v19l3 3q12 1 29 5t36 9t37.5 11.5t32.5 12.5l9 -6q-2 -14 -2.5 -45t-0.5 -76v-129q0 -38 4 -68t15 -51t30.5 -32.5t51.5 -11.5q35 0 64.5 15.5t52.5 41.5q7 8 13.5 24.5t6.5 58.5v149q0 21 -0.5 35.5t-5.5 19.5
q-4 5 -9 7t-16 3l-45 2l-3 3v19l3 3q12 1 29 5t35.5 9t37 11.5t32.5 12.5l9 -6q-2 -14 -2.5 -45t-0.5 -76v-253q0 -32 7 -46.5t33 -16.5l22 -2l3 -3v-17l-3 -3q-26 2 -42.5 2.5t-30.5 0.5h-29.5t-22.5 -1l-3 3q2 22 2 43v43l-85 -76q-14 -12 -35.5 -16.5t-49.5 -4.5
q-40 0 -65.5 13.5t-40.5 34.5t-20.5 46t-5.5 48v182zM453 662q-10 -42 -37.5 -63.5t-65.5 -21.5q-16 0 -35 5.5t-44 19.5q-24 13 -41 17.5t-27 4.5q-19 0 -38.5 -12t-29.5 -37l-15 4l-3 3q9 38 37.5 63.5t64.5 25.5q34 0 80 -25q25 -13 42 -17t27 -4q19 0 38.5 9t29.5 35
l14 -4z" />
    <glyph glyph-name="Umacron" unicode="&#x16a;" horiz-adv-x="761" 
d="M191 235q0 -48 9.5 -86t32.5 -64.5t60.5 -40.5t93.5 -14q85 0 131.5 26t65.5 74q11 26 14.5 63t3.5 98v161q0 55 -1 89.5t-3 54.5t-5 29t-7 14q-9 10 -72 15l-4 3v23l4 3q10 -1 25 -1.5l30 -1t29 -0.5h23t35 0.5t64 2.5l3 -3v-23l-3 -3q-32 -2 -44.5 -6t-17.5 -9
q-4 -5 -7 -15t-4.5 -30.5t-2 -54.5t-0.5 -87v-154q0 -42 -1 -70t-4 -48.5t-7 -35.5t-10 -30q-12 -28 -32 -51.5t-50 -41t-70.5 -27t-94.5 -9.5q-80 0 -130 17.5t-78 46t-38 66t-10 78.5v260v89.5t-1 54t-3.5 28.5t-6.5 14q-5 5 -17 9t-44 6l-4 3v23l4 3q38 -2 68.5 -2.5
t40.5 -0.5q9 0 39.5 0.5t68.5 2.5l4 -3v-23l-4 -3q-32 -2 -44.5 -6t-17.5 -9q-4 -5 -6.5 -14t-3.5 -28.5t-1 -54v-89.5v-218zM519 791h-264v43h264v-43z" />
    <glyph glyph-name="umacron" unicode="&#x16b;" horiz-adv-x="577" 
d="M107 315q0 30 -2.5 50t-7.5 25q-9 9 -30 10l-37 2l-3 3v19l3 3q12 1 29 5t36 9t37.5 11.5t32.5 12.5l9 -6q-2 -14 -2.5 -45t-0.5 -76v-129q0 -38 4 -68t15 -51t30.5 -32.5t51.5 -11.5q35 0 64.5 15.5t52.5 41.5q7 8 13.5 24.5t6.5 58.5v149q0 21 -0.5 35.5t-5.5 19.5
q-4 5 -9 7t-16 3l-45 2l-3 3v19l3 3q12 1 29 5t35.5 9t37 11.5t32.5 12.5l9 -6q-2 -14 -2.5 -45t-0.5 -76v-253q0 -32 7 -46.5t33 -16.5l22 -2l3 -3v-17l-3 -3q-26 2 -42.5 2.5t-30.5 0.5h-29.5t-22.5 -1l-3 3q2 22 2 43v43l-85 -76q-14 -12 -35.5 -16.5t-49.5 -4.5
q-40 0 -65.5 13.5t-40.5 34.5t-20.5 46t-5.5 48v182zM413 591h-264v43h264v-43z" />
    <glyph glyph-name="Ubreve" unicode="&#x16c;" horiz-adv-x="761" 
d="M191 235q0 -48 9.5 -86t32.5 -64.5t60.5 -40.5t93.5 -14q85 0 131.5 26t65.5 74q11 26 14.5 63t3.5 98v161q0 55 -1 89.5t-3 54.5t-5 29t-7 14q-9 10 -72 15l-4 3v23l4 3q10 -1 25 -1.5l30 -1t29 -0.5h23t35 0.5t64 2.5l3 -3v-23l-3 -3q-32 -2 -44.5 -6t-17.5 -9
q-4 -5 -7 -15t-4.5 -30.5t-2 -54.5t-0.5 -87v-154q0 -42 -1 -70t-4 -48.5t-7 -35.5t-10 -30q-12 -28 -32 -51.5t-50 -41t-70.5 -27t-94.5 -9.5q-80 0 -130 17.5t-78 46t-38 66t-10 78.5v260v89.5t-1 54t-3.5 28.5t-6.5 14q-5 5 -17 9t-44 6l-4 3v23l4 3q38 -2 68.5 -2.5
t40.5 -0.5q9 0 39.5 0.5t68.5 2.5l4 -3v-23l-4 -3q-32 -2 -44.5 -6t-17.5 -9q-4 -5 -6.5 -14t-3.5 -28.5t-1 -54v-89.5v-218zM530 889q-3 -72 -38 -109t-98 -37t-99 35.5t-39 110.5l4 4h20q7 -45 39 -75t75 -30q48 0 76.5 30t35.5 75h20z" />
    <glyph glyph-name="ubreve" unicode="&#x16d;" horiz-adv-x="577" 
d="M107 315q0 30 -2.5 50t-7.5 25q-9 9 -30 10l-37 2l-3 3v19l3 3q12 1 29 5t36 9t37.5 11.5t32.5 12.5l9 -6q-2 -14 -2.5 -45t-0.5 -76v-129q0 -38 4 -68t15 -51t30.5 -32.5t51.5 -11.5q35 0 64.5 15.5t52.5 41.5q7 8 13.5 24.5t6.5 58.5v149q0 21 -0.5 35.5t-5.5 19.5
q-4 5 -9 7t-16 3l-45 2l-3 3v19l3 3q12 1 29 5t35.5 9t37 11.5t32.5 12.5l9 -6q-2 -14 -2.5 -45t-0.5 -76v-253q0 -32 7 -46.5t33 -16.5l22 -2l3 -3v-17l-3 -3q-26 2 -42.5 2.5t-30.5 0.5h-29.5t-22.5 -1l-3 3q2 22 2 43v43l-85 -76q-14 -12 -35.5 -16.5t-49.5 -4.5
q-40 0 -65.5 13.5t-40.5 34.5t-20.5 46t-5.5 48v182zM427 689q-3 -72 -38 -109t-98 -37t-99 35.5t-39 110.5l4 4h20q7 -45 39 -75t75 -30q48 0 76.5 30t35.5 75h20z" />
    <glyph glyph-name="Uring" unicode="&#x16e;" horiz-adv-x="761" 
d="M191 235q0 -48 9.5 -86t32.5 -64.5t60.5 -40.5t93.5 -14q85 0 131.5 26t65.5 74q11 26 14.5 63t3.5 98v161q0 55 -1 89.5t-3 54.5t-5 29t-7 14q-9 10 -72 15l-4 3v23l4 3q10 -1 25 -1.5l30 -1t29 -0.5h23t35 0.5t64 2.5l3 -3v-23l-3 -3q-32 -2 -44.5 -6t-17.5 -9
q-4 -5 -7 -15t-4.5 -30.5t-2 -54.5t-0.5 -87v-154q0 -42 -1 -70t-4 -48.5t-7 -35.5t-10 -30q-12 -28 -32 -51.5t-50 -41t-70.5 -27t-94.5 -9.5q-80 0 -130 17.5t-78 46t-38 66t-10 78.5v260v89.5t-1 54t-3.5 28.5t-6.5 14q-5 5 -17 9t-44 6l-4 3v23l4 3q38 -2 68.5 -2.5
t40.5 -0.5q9 0 39.5 0.5t68.5 2.5l4 -3v-23l-4 -3q-32 -2 -44.5 -6t-17.5 -9q-4 -5 -6.5 -14t-3.5 -28.5t-1 -54v-89.5v-218zM487 821q0 -38 -26 -63.5t-66 -25.5q-42 0 -67.5 25.5t-25.5 63.5t25.5 63t67.5 25q48 0 70 -25t22 -63zM452 821q0 29 -14 50t-43 21
q-30 0 -44.5 -21t-14.5 -50q0 -13 3 -26t10 -23t18.5 -16.5t27.5 -6.5q29 0 43 21.5t14 50.5z" />
    <glyph glyph-name="uring" unicode="&#x16f;" horiz-adv-x="577" 
d="M107 315q0 30 -2.5 50t-7.5 25q-9 9 -30 10l-37 2l-3 3v19l3 3q12 1 29 5t36 9t37.5 11.5t32.5 12.5l9 -6q-2 -14 -2.5 -45t-0.5 -76v-129q0 -38 4 -68t15 -51t30.5 -32.5t51.5 -11.5q35 0 64.5 15.5t52.5 41.5q7 8 13.5 24.5t6.5 58.5v149q0 21 -0.5 35.5t-5.5 19.5
q-4 5 -9 7t-16 3l-45 2l-3 3v19l3 3q12 1 29 5t35.5 9t37 11.5t32.5 12.5l9 -6q-2 -14 -2.5 -45t-0.5 -76v-253q0 -32 7 -46.5t33 -16.5l22 -2l3 -3v-17l-3 -3q-26 2 -42.5 2.5t-30.5 0.5h-29.5t-22.5 -1l-3 3q2 22 2 43v43l-85 -76q-14 -12 -35.5 -16.5t-49.5 -4.5
q-40 0 -65.5 13.5t-40.5 34.5t-20.5 46t-5.5 48v182zM382 621q0 -38 -26 -63.5t-66 -25.5q-42 0 -67.5 25.5t-25.5 63.5t25.5 63t67.5 25q48 0 70 -25t22 -63zM347 621q0 29 -14 50t-43 21q-30 0 -44.5 -21t-14.5 -50q0 -13 3 -26t10 -23t18.5 -16.5t27.5 -6.5q29 0 43 21.5
t14 50.5z" />
    <glyph glyph-name="Uhungarumlaut" unicode="&#x170;" horiz-adv-x="761" 
d="M191 235q0 -48 9.5 -86t32.5 -64.5t60.5 -40.5t93.5 -14q85 0 131.5 26t65.5 74q11 26 14.5 63t3.5 98v161q0 55 -1 89.5t-3 54.5t-5 29t-7 14q-9 10 -72 15l-4 3v23l4 3q10 -1 25 -1.5l30 -1t29 -0.5h23t35 0.5t64 2.5l3 -3v-23l-3 -3q-32 -2 -44.5 -6t-17.5 -9
q-4 -5 -7 -15t-4.5 -30.5t-2 -54.5t-0.5 -87v-154q0 -42 -1 -70t-4 -48.5t-7 -35.5t-10 -30q-12 -28 -32 -51.5t-50 -41t-70.5 -27t-94.5 -9.5q-80 0 -130 17.5t-78 46t-38 66t-10 78.5v260v89.5t-1 54t-3.5 28.5t-6.5 14q-5 5 -17 9t-44 6l-4 3v23l4 3q38 -2 68.5 -2.5
t40.5 -0.5q9 0 39.5 0.5t68.5 2.5l4 -3v-23l-4 -3q-32 -2 -44.5 -6t-17.5 -9q-4 -5 -6.5 -14t-3.5 -28.5t-1 -54v-89.5v-218zM394 909q7 11 13.5 14t12.5 3q11 0 24.5 -9.5t13.5 -21.5q0 -7 -8 -15l-140 -151l-6 -2l-10 7l-1 6zM531 909q7 11 13.5 14t12.5 3q11 0 24.5 -9.5
t13.5 -21.5q0 -7 -8 -15l-149 -151l-6 -2l-10 7l-1 6z" />
    <glyph glyph-name="uhungarumlaut" unicode="&#x171;" horiz-adv-x="577" 
d="M107 315q0 30 -2.5 50t-7.5 25q-9 9 -30 10l-37 2l-3 3v19l3 3q12 1 29 5t36 9t37.5 11.5t32.5 12.5l9 -6q-2 -14 -2.5 -45t-0.5 -76v-129q0 -38 4 -68t15 -51t30.5 -32.5t51.5 -11.5q35 0 64.5 15.5t52.5 41.5q7 8 13.5 24.5t6.5 58.5v149q0 21 -0.5 35.5t-5.5 19.5
q-4 5 -9 7t-16 3l-45 2l-3 3v19l3 3q12 1 29 5t35.5 9t37 11.5t32.5 12.5l9 -6q-2 -14 -2.5 -45t-0.5 -76v-253q0 -32 7 -46.5t33 -16.5l22 -2l3 -3v-17l-3 -3q-26 2 -42.5 2.5t-30.5 0.5h-29.5t-22.5 -1l-3 3q2 22 2 43v43l-85 -76q-14 -12 -35.5 -16.5t-49.5 -4.5
q-40 0 -65.5 13.5t-40.5 34.5t-20.5 46t-5.5 48v182zM296 709q7 11 13.5 14t12.5 3q11 0 24.5 -9.5t13.5 -21.5q0 -7 -8 -15l-140 -151l-6 -2l-10 7l-1 6zM433 709q7 11 13.5 14t12.5 3q11 0 24.5 -9.5t13.5 -21.5q0 -7 -8 -15l-149 -151l-6 -2l-10 7l-1 6z" />
    <glyph glyph-name="Uogonek" unicode="&#x172;" horiz-adv-x="761" 
d="M503 -155q-25 -13 -52.5 -19.5t-48.5 -6.5q-17 0 -33.5 3.5t-29.5 11.5t-21.5 22t-8.5 35q0 26 19.5 51t52.5 43q-84 0 -135.5 17.5t-79.5 46.5t-37.5 66.5t-9.5 77.5v260v89.5t-1 54t-3.5 28.5t-6.5 14q-5 5 -17 9t-44 6l-4 3v23l4 3q38 -2 68.5 -2.5t40.5 -0.5
q9 0 39.5 0.5t68.5 2.5l4 -3v-23l-4 -3q-32 -2 -44.5 -6t-17.5 -9q-4 -5 -6.5 -14t-3.5 -28.5t-1 -54v-89.5v-218q0 -48 9.5 -86t32.5 -64.5t60.5 -40.5t93.5 -14q85 0 131.5 26t65.5 74q11 26 14.5 63t3.5 98v161q0 55 -1 89.5t-3 54.5t-5 29t-7 14q-9 10 -72 15l-4 3v23
l4 3q10 -1 25 -1.5l30 -1t29 -0.5h23t35 0.5t64 2.5l3 -3v-23l-3 -3q-32 -2 -44.5 -6t-17.5 -9q-4 -5 -7 -15t-4.5 -30.5t-2 -54.5t-0.5 -87v-158q0 -40 -1 -67.5t-4 -47.5t-7 -35t-10 -30q-22 -49 -64 -80.5t-117 -43.5q-12 -2 -21 -7q-59 -35 -59 -83q0 -15 6 -25
t15.5 -15.5t20.5 -7.5t22 -2q22 0 39.5 4t29.5 8h5l4 -12v-5z" />
    </font>
</defs>
</svg>
